<svg width="199" height="250" viewBox="0 0 199 250" fill="none" xmlns="http://www.w3.org/2000/svg">
<path d="M6.56403 75.038C16.0456 58.2223 25.3588 41.3504 34.7842 24.5347C32.5962 31.4522 30.0154 38.2009 27.7151 45.0622C23.6196 56.7038 19.5801 68.3455 15.4845 79.9871C12.511 78.2999 9.48142 76.7252 6.56403 75.038Z" fill="#5087EB"/>
<path d="M163.037 24.5347C169.433 42.8689 175.941 61.0906 182.225 79.4247C178.578 77.7938 174.987 76.1066 171.34 74.4756C168.647 57.8286 165.73 41.2379 163.037 24.5347Z" fill="#5087EB"/>
<path d="M33.8305 30.8333C34.5599 28.8087 35.2892 26.8403 35.9064 24.8157C35.8503 25.7718 35.7942 26.7278 35.6259 27.6839C32.9329 43.3186 30.4643 58.9532 27.7152 74.5317C24.0685 76.1064 20.4779 77.8498 16.8311 79.4808C22.4415 63.2275 28.1641 47.0304 33.8305 30.8333Z" fill="#5087EB"/>
<path d="M164.44 24.7595C173.08 40.113 181.608 55.4665 190.192 70.8762C190.977 72.2822 191.819 73.6882 192.492 75.1504C189.519 76.6689 186.657 78.3561 183.684 79.9308C178.522 65.2522 173.417 50.6298 168.255 35.9512C166.965 32.2394 165.45 28.5838 164.44 24.7595Z" fill="#5087EB"/>
<path d="M16.7189 80.8309C20.2535 78.975 23.9563 77.5127 27.5469 75.7693C29.0617 85.8362 30.5765 95.9594 32.0913 106.026C32.8207 111.088 33.7184 116.149 34.2794 121.267C28.6129 107.714 22.4976 94.3284 16.7189 80.8309Z" fill="#5087EB"/>
<path d="M167.021 105.858C168.536 95.8469 169.938 85.78 171.565 75.7693C175.156 77.5127 178.803 79.0874 182.393 80.7184C176.671 94.1597 170.724 107.489 164.889 120.874C165.338 115.868 166.292 110.863 167.021 105.858Z" fill="#5087EB"/>
<path d="M6.28361 76.2754C9.25711 77.6814 12.0623 79.3686 14.9797 80.9433C9.98646 95.3407 4.88102 109.682 0 124.135C0.44883 118.624 1.40259 113.112 2.07584 107.601C3.47843 97.1404 4.82492 86.736 6.28361 76.2754Z" fill="#5087EB"/>
<path d="M184.245 80.8305C187.106 79.312 189.967 77.6811 192.829 76.1626C194.568 89.5477 196.419 102.877 198.159 116.205C198.439 118.624 198.944 121.042 198.888 123.517C195.802 114.406 192.604 105.351 189.462 96.2965C187.779 91.1786 185.816 86.0608 184.245 80.8305Z" fill="#5087EB"/>
<path d="M167.974 115.474C172.968 104.114 177.905 92.7535 182.898 81.3931C182.954 97.4777 182.617 113.618 182.505 129.703C176.39 128.072 170.275 126.329 164.103 124.754C165.001 121.548 166.684 118.568 167.974 115.474Z" fill="#5087EB"/>
<path d="M16.1577 81.4492C22.3291 95.003 28.1077 108.726 34.1669 122.336C34.5597 123.123 34.7841 123.967 34.8402 124.81C28.7249 126.329 22.6657 128.241 16.4943 129.703C16.4382 113.618 16.326 97.5338 16.1577 81.4492Z" fill="#5087EB"/>
<path d="M183.964 99.8398C184.02 94.1033 183.964 88.3668 184.132 82.6304C188.901 96.5778 193.782 110.413 198.607 124.36C193.67 126.048 188.677 127.622 183.683 129.309C183.796 119.467 183.627 109.682 183.964 99.8398Z" fill="#5087EB"/>
<path d="M15.1482 82.293C15.1482 82.293 15.2044 113.956 15.4849 129.309C10.4916 127.735 5.55451 125.991 0.561279 124.417L15.1482 82.293Z" fill="#5087EB"/>
<path d="M0.561279 125.598C5.49841 127.172 10.3794 128.747 15.2605 130.491C16.8314 133.977 18.0656 137.577 19.5243 141.12C22.5539 148.993 25.6957 156.755 28.6692 164.684C19.1877 151.693 9.8745 138.645 0.561279 125.598Z" fill="#5087EB"/>
<path d="M183.74 130.434C188.677 128.803 193.614 127.116 198.551 125.542C189.631 138.027 180.654 150.456 171.734 162.941C171.341 163.503 170.892 164.066 170.499 164.572C174.763 153.155 179.364 141.851 183.74 130.434Z" fill="#5087EB"/>
<path d="M16.7189 130.884C22.8903 129.197 29.0056 127.453 35.1771 125.879C33.4939 138.814 31.6986 151.693 29.9033 164.628C25.415 153.436 21.1511 142.132 16.7189 130.884Z" fill="#5087EB"/>
<path d="M163.823 125.766C169.994 127.51 176.166 129.141 182.337 130.828C178.073 142.019 173.641 153.155 169.321 164.29C168.816 163.053 168.76 161.703 168.592 160.41C167.021 148.881 165.45 137.352 163.823 125.766Z" fill="#5087EB"/>
<path d="M35.9063 126.272C40.1702 135.271 44.4341 144.325 48.698 153.324C42.6949 156.979 36.6918 160.691 30.6887 164.29C32.3718 151.636 34.0549 138.926 35.9063 126.272Z" fill="#5087EB"/>
<path d="M170.724 165.64C180.093 152.424 189.575 139.32 199 126.104C197.429 135.046 195.465 143.932 193.782 152.874C192.324 160.073 191.033 167.328 189.462 174.47C183.235 171.489 176.951 168.565 170.724 165.64Z" fill="#5087EB"/>
<path d="M0.112183 126.216C9.20099 138.589 18.0093 151.13 26.9859 163.559C27.4908 164.234 27.9396 164.965 28.3324 165.696C22.0487 168.508 15.8773 171.714 9.53761 174.47C6.4519 158.329 3.19789 142.301 0.112183 126.216Z" fill="#5087EB"/>
<path d="M150.47 153.436C154.622 144.325 158.942 135.271 163.262 126.216C164.945 138.926 166.74 151.58 168.423 164.234C162.364 160.804 156.473 156.979 150.47 153.436Z" fill="#5087EB"/>
<path d="M47.2393 155.517C47.8565 155.124 48.4736 154.73 49.1469 154.449C55.5427 161.479 62.0507 168.396 68.4466 175.426C55.7671 172.333 43.1999 168.902 30.5204 165.697C36.0747 162.266 41.7412 158.948 47.2393 155.517Z" fill="#5087EB"/>
<path d="M130.554 175.483C136.949 168.396 143.57 161.479 149.965 154.393C154.173 156.923 158.381 159.51 162.645 162.097C164.552 163.335 166.628 164.347 168.367 165.753C155.744 169.015 143.177 172.333 130.554 175.483Z" fill="#5087EB"/>
<path d="M10.1545 175.482C16.4381 172.502 22.6656 169.577 28.9492 166.596C32.4838 185.212 35.9061 203.827 39.3284 222.443C39.0479 222.105 38.7674 221.768 38.4869 221.374C29.0053 206.077 19.5799 190.78 10.1545 175.482Z" fill="#5087EB"/>
<path d="M130.89 176.101C143.233 172.895 155.52 169.69 167.863 166.596C163.262 171.321 158.774 176.045 154.173 180.769C149.797 185.268 145.533 189.88 141.101 194.21C139.755 192.242 138.745 190.048 137.51 188.024C135.322 184.031 132.966 180.15 130.89 176.101Z" fill="#5087EB"/>
<path d="M158.942 223.511C158.942 223.511 147.385 204.727 141.606 195.335C150.863 185.774 160.176 176.157 169.433 166.54C168.031 174.976 166.348 183.412 164.777 191.848" fill="#5087EB"/>
<path d="M170.163 166.596C176.446 169.521 182.674 172.502 188.901 175.482C180.318 189.599 171.565 203.602 162.925 217.718C161.915 219.406 160.793 221.037 159.896 222.78L170.163 166.596Z" fill="#5087EB"/>
<path d="M29.623 166.596C38.5996 175.82 47.5201 185.099 56.4967 194.379C56.8333 194.829 57.6748 195.335 57.1138 195.897C51.5034 205.121 45.837 214.344 40.1705 223.511C36.6359 204.502 33.1575 185.549 29.623 166.596Z" fill="#5087EB"/>
<path d="M31.2496 166.596C43.5924 169.69 55.9352 172.895 68.2219 176.101C64.8557 182.119 61.4334 188.193 58.0672 194.21C56.384 192.804 54.9814 191.061 53.4105 189.486C46.061 181.95 38.6553 174.301 31.2496 166.596Z" fill="#5087EB"/>
<path d="M69.2321 176.607C72.4861 180.656 75.4035 184.931 78.5453 189.036C84.8851 197.641 91.2809 206.189 97.5645 214.794C84.6606 208.27 71.869 201.578 59.0212 194.998C62.3875 188.811 65.8659 182.737 69.2321 176.607Z" fill="#5087EB"/>
<path d="M100.314 186.562C109.795 183.356 119.221 179.982 128.702 176.776C123.484 184.087 118.042 191.286 112.713 198.541C108.617 203.996 104.634 209.62 100.482 215.019C100.538 211.87 100.482 208.72 100.65 205.571C100.482 199.216 100.314 192.86 100.314 186.562Z" fill="#5087EB"/>
<path d="M129.207 177.282C129.375 177.001 129.936 176.438 130.104 177.057C133.414 183.075 136.837 188.98 140.091 194.997C127.243 201.634 114.395 208.27 101.491 214.85C110.692 202.309 120.006 189.823 129.207 177.282Z" fill="#5087EB"/>
<path d="M70.298 176.72C79.8356 179.982 89.3732 183.3 98.9109 186.618C98.8548 191.904 98.5742 197.135 98.5181 202.365C98.4059 206.583 98.6303 210.745 98.5742 214.963C89.1488 202.253 79.7234 189.486 70.298 176.72Z" fill="#5087EB"/>
<path d="M41.0119 224.467C46.7345 214.85 52.6254 205.402 58.4602 195.897C71.7006 202.815 85.1094 209.564 98.3499 216.537C79.2185 219.181 60.1433 221.824 41.0119 224.467Z" fill="#5087EB"/>
<path d="M111.983 210.689C121.521 205.739 131.114 200.847 140.652 195.897C146.487 205.402 152.322 214.963 158.156 224.467C139.081 221.824 119.95 219.237 100.874 216.537C104.465 214.4 108.28 212.657 111.983 210.689Z" fill="#5087EB"/>
<path d="M100.37 217.212C108.673 218.168 116.92 219.462 125.224 220.587C136.052 222.049 146.823 223.624 157.651 225.03C155.071 226.436 152.322 227.392 149.685 228.629C133.246 235.772 116.752 242.914 100.313 250C100.37 239.09 100.201 228.123 100.37 217.212Z" fill="#5087EB"/>
<path d="M82.7529 219.349C88.0828 218.675 93.4126 217.718 98.7425 217.269C98.8547 228.179 98.7425 239.09 98.7425 250C79.6111 241.789 60.5359 233.353 41.3484 225.198C46.5099 224.186 51.8398 223.68 57.0574 222.893C65.6413 221.712 74.2252 220.53 82.7529 219.349Z" fill="#5087EB"/>
<path d="M140.195 58.9919L149.339 49.8746L158.456 59.0188L149.312 68.1362L140.195 58.9919Z" fill="#5087EB"/>
<path d="M40.3268 58.9919L49.4711 49.8746L58.5884 59.0188L49.4442 68.1362L40.3268 58.9919Z" fill="#5087EB"/>
<path d="M90.3199 108.867L99.4642 99.7492L108.581 108.893L99.4372 118.011L90.3199 108.867Z" fill="#5087EB"/>
<path d="M90.3199 9.11733L99.4642 0L108.581 9.14425L99.4372 18.2616L90.3199 9.11733Z" fill="#5087EB"/>
<path d="M92.3338 58.9965L99.3992 51.9519L106.444 59.0174L99.3785 66.062L92.3338 58.9965Z" fill="#5087EB"/>
<path d="M101.456 32.4599V54.0209L124.794 30.6829V9.12196L101.456 32.4599Z" fill="#5087EB"/>
<path d="M125.978 56.9826H104.417L127.755 33.6446H149.316L125.978 56.9826Z" fill="#5087EB"/>
<path d="M125.86 61.129H104.299L127.637 84.4669H149.198L125.86 61.129Z" fill="#5087EB"/>
<path d="M101.456 85.5331V63.9722L124.794 87.3102V108.871L101.456 85.5331Z" fill="#5087EB"/>
<path d="M97.3095 32.4599V54.0209L73.9715 30.6829V9.12196L97.3095 32.4599Z" fill="#5087EB"/>
<path d="M72.7868 56.9826H94.3478L71.0098 33.6446H49.4488L72.7868 56.9826Z" fill="#5087EB"/>
<path d="M72.9053 61.129H94.4663L71.1283 84.4669H49.5673L72.9053 61.129Z" fill="#5087EB"/>
<path d="M97.3095 85.5331V63.9722L73.9715 87.3102V108.871L97.3095 85.5331Z" fill="#5087EB"/>
</svg>
