<svg width="200" height="200" viewBox="0 0 200 200" fill="none" xmlns="http://www.w3.org/2000/svg">
<path fill-rule="evenodd" clip-rule="evenodd" d="M27.8481 91.1392L43.038 75.9494L24.0506 56.962L32.9114 48.1013L51.8987 67.0886L67.0886 51.8987L48.1013 32.9114L56.962 24.0506L75.9494 43.038L91.1392 27.8481L72.1519 8.86076L81.0127 3.026e-06L100 18.9873L118.987 0L127.848 8.86076L108.861 27.8481L124.051 43.038L143.038 24.0506L151.899 32.9114L132.911 51.8987L148.101 67.0886L167.089 48.1013L175.949 56.962L156.962 75.9494L172.152 91.1392L191.139 72.1519L200 81.0127L181.013 100L200 118.987L191.139 127.848L172.152 108.861L156.962 124.051L175.949 143.038L167.089 151.899L148.101 132.911L132.911 148.101L151.899 167.089L143.038 175.949L124.051 156.962L108.861 172.152L127.848 191.139L118.987 200L100 181.013L81.0127 200L72.1519 191.139L91.1392 172.152L75.9494 156.962L56.962 175.949L48.1013 167.089L67.0886 148.101L51.8987 132.911L32.9114 151.899L24.0506 143.038L43.038 124.051L27.8481 108.861L8.86076 127.848L0 118.987L18.9873 100L0 81.0127L8.86076 72.1519L27.8481 91.1392ZM36.7089 100L100 163.291L163.291 100L100 36.7089L36.7089 100Z" fill="#A2BC4D"/>
<path fill-rule="evenodd" clip-rule="evenodd" d="M145.57 100L100 145.57L54.4304 100L100 54.4304L145.57 100ZM72.1519 100L100 127.848L127.848 100L100 72.1519L72.1519 100Z" fill="#A2BC4D"/>
</svg>
