<svg width="60" height="60" viewBox="0 0 60 60" fill="none" xmlns="http://www.w3.org/2000/svg">
<path fill-rule="evenodd" clip-rule="evenodd" d="M8.35443 32.6582L12.9114 37.2152L7.21519 42.9114L9.87342 45.5696L15.5696 39.8734L20.1266 44.4304L14.4304 50.1266L17.0886 52.7848L22.7848 47.0886L27.3418 51.6456L21.6456 57.3418L24.3038 60L30 54.3038L35.6962 60L38.3544 57.3418L32.6582 51.6456L37.2152 47.0886L42.9114 52.7848L45.5696 50.1266L39.8734 44.4304L44.4304 39.8734L50.1266 45.5696L52.7848 42.9114L47.0886 37.2152L51.6456 32.6582L57.3418 38.3544L60 35.6962L54.3038 30L60 24.3038L57.3418 21.6456L51.6456 27.3418L47.0886 22.7848L52.7848 17.0886L50.1266 14.4304L44.4304 20.1266L39.8734 15.5696L45.5696 9.87342L42.9114 7.21519L37.2152 12.9114L32.6582 8.35443L38.3544 2.65823L35.6962 0L30 5.6962L24.3038 0L21.6456 2.65823L27.3418 8.35443L22.7848 12.9114L17.0886 7.21519L14.4304 9.87342L20.1266 15.5696L15.5696 20.1266L9.87342 14.4304L7.21519 17.0886L12.9114 22.7848L8.35443 27.3418L2.65823 21.6456L0 24.3038L5.6962 30L0 35.6962L2.65823 38.3544L8.35443 32.6582ZM11.0127 30L30 11.0127L48.9873 30L30 48.9873L11.0127 30Z" fill="#759607"/>
<path fill-rule="evenodd" clip-rule="evenodd" d="M43.6709 30L30 16.3291L16.3291 30L30 43.6709L43.6709 30ZM21.6456 30L30 21.6456L38.3544 30L30 38.3544L21.6456 30Z" fill="#759607"/>
</svg>
