<svg width="150" height="6306" viewBox="0 0 150 6306" fill="none" xmlns="http://www.w3.org/2000/svg">
<path d="M150 1587.45V1702.23L92.6094 1644.84L150 1587.45Z" fill="white"/>
<path d="M150 1587.45V1702.23L92.6094 1644.84L150 1587.45Z" fill="#A2BC4D" fill-opacity="0.5"/>
<path d="M74.9004 1256.13L150 1331.23V1384.11L23.0762 1511.03L74.7168 1562.67L150 1487.39V1537.2L74.7148 1612.48L0 1537.77V1484.13L126.547 1357.58L74.9062 1305.94L0 1380.85V1331.03L74.9004 1256.13Z" fill="white"/>
<path d="M74.9004 1256.13L150 1331.23V1384.11L23.0762 1511.03L74.7168 1562.67L150 1487.39V1537.2L74.7148 1612.48L0 1537.77V1484.13L126.547 1357.58L74.9062 1305.94L0 1380.85V1331.03L74.9004 1256.13Z" fill="#A2BC4D" fill-opacity="0.5"/>
<path d="M57.2461 1644.84L0 1702.08V1587.59L57.2461 1644.84Z" fill="white"/>
<path d="M57.2461 1644.84L0 1702.08V1587.59L57.2461 1644.84Z" fill="#A2BC4D" fill-opacity="0.5"/>
<path d="M150 1167.43V1282.21L92.6074 1224.82L150 1167.43Z" fill="white"/>
<path d="M150 1167.43V1282.21L92.6074 1224.82L150 1167.43Z" fill="#A2BC4D" fill-opacity="0.5"/>
<path d="M74.9004 836.114L150 911.213V964.092L23.0762 1091.02L74.7168 1142.66L150 1067.37V1117.18L74.7148 1192.47L0 1117.75V1064.11L126.547 937.567L74.9062 885.926L0 960.832V911.014L74.9004 836.114Z" fill="white"/>
<path d="M74.9004 836.114L150 911.213V964.092L23.0762 1091.02L74.7168 1142.66L150 1067.37V1117.18L74.7148 1192.47L0 1117.75V1064.11L126.547 937.567L74.9062 885.926L0 960.832V911.014L74.9004 836.114Z" fill="#A2BC4D" fill-opacity="0.5"/>
<path d="M57.2461 1224.82L0 1282.07V1167.58L57.2461 1224.82Z" fill="white"/>
<path d="M57.2461 1224.82L0 1282.07V1167.58L57.2461 1224.82Z" fill="#A2BC4D" fill-opacity="0.5"/>
<path d="M150 751.332V866.114L92.6094 808.723L150 751.332Z" fill="white"/>
<path d="M150 751.332V866.114L92.6094 808.723L150 751.332Z" fill="#A2BC4D" fill-opacity="0.5"/>
<path d="M74.9004 420.014L150 495.116V547.995L23.0762 674.918L74.7168 726.559L150 651.276V701.082L74.7148 776.368L0 701.653V648.014L126.547 521.467L74.9062 469.827L0 544.733V494.914L74.9004 420.014Z" fill="white"/>
<path d="M74.9004 420.014L150 495.116V547.995L23.0762 674.918L74.7168 726.559L150 651.276V701.082L74.7148 776.368L0 701.653V648.014L126.547 521.467L74.9062 469.827L0 544.733V494.914L74.9004 420.014Z" fill="#A2BC4D" fill-opacity="0.5"/>
<path d="M57.2461 808.723L0 865.969V751.477L57.2461 808.723Z" fill="white"/>
<path d="M57.2461 808.723L0 865.969V751.477L57.2461 808.723Z" fill="#A2BC4D" fill-opacity="0.5"/>
<path d="M150 331.318V446.1L92.6074 388.709L150 331.318Z" fill="white"/>
<path d="M150 331.318V446.1L92.6074 388.709L150 331.318Z" fill="#A2BC4D" fill-opacity="0.5"/>
<path d="M74.9004 0L150 75.0996V127.979L23.0762 254.902L74.7168 306.543L150 231.26V281.068L74.7148 356.354L0 281.639V228L126.547 101.453L74.9062 49.8125L0 124.719V74.9004L74.9004 0Z" fill="white"/>
<path d="M74.9004 0L150 75.0996V127.979L23.0762 254.902L74.7168 306.543L150 231.26V281.068L74.7148 356.354L0 281.639V228L126.547 101.453L74.9062 49.8125L0 124.719V74.9004L74.9004 0Z" fill="#A2BC4D" fill-opacity="0.5"/>
<path d="M57.2461 388.709L0 445.955V331.463L57.2461 388.709Z" fill="white"/>
<path d="M57.2461 388.709L0 445.955V331.463L57.2461 388.709Z" fill="#A2BC4D" fill-opacity="0.5"/>
<path d="M150 4515.79V4630.57L92.6094 4573.18L150 4515.79Z" fill="white"/>
<path d="M150 4515.79V4630.57L92.6094 4573.18L150 4515.79Z" fill="#A2BC4D" fill-opacity="0.5"/>
<path d="M74.9004 4184.47L150 4259.57V4312.45L23.0762 4439.37L74.7168 4491.01L150 4415.73V4465.54L74.7148 4540.82L0 4466.11V4412.47L126.547 4285.92L74.9062 4234.28L0 4309.19V4259.37L74.9004 4184.47Z" fill="white"/>
<path d="M74.9004 4184.47L150 4259.57V4312.45L23.0762 4439.37L74.7168 4491.01L150 4415.73V4465.54L74.7148 4540.82L0 4466.11V4412.47L126.547 4285.92L74.9062 4234.28L0 4309.19V4259.37L74.9004 4184.47Z" fill="#A2BC4D" fill-opacity="0.5"/>
<path d="M57.2461 4573.18L0 4630.42V4515.93L57.2461 4573.18Z" fill="white"/>
<path d="M57.2461 4573.18L0 4630.42V4515.93L57.2461 4573.18Z" fill="#A2BC4D" fill-opacity="0.5"/>
<path d="M150 4095.77V4210.55L92.6074 4153.16L150 4095.77Z" fill="white"/>
<path d="M150 4095.77V4210.55L92.6074 4153.16L150 4095.77Z" fill="#A2BC4D" fill-opacity="0.5"/>
<path d="M74.9004 3764.45L150 3839.55V3892.43L23.0762 4019.36L74.7168 4071L150 3995.71V4045.52L74.7148 4120.81L0 4046.09V3992.45L126.547 3865.91L74.9062 3814.27L0 3889.17V3839.35L74.9004 3764.45Z" fill="white"/>
<path d="M74.9004 3764.45L150 3839.55V3892.43L23.0762 4019.36L74.7168 4071L150 3995.71V4045.52L74.7148 4120.81L0 4046.09V3992.45L126.547 3865.91L74.9062 3814.27L0 3889.17V3839.35L74.9004 3764.45Z" fill="#A2BC4D" fill-opacity="0.5"/>
<path d="M57.2461 4153.16L0 4210.41V4095.92L57.2461 4153.16Z" fill="white"/>
<path d="M57.2461 4153.16L0 4210.41V4095.92L57.2461 4153.16Z" fill="#A2BC4D" fill-opacity="0.5"/>
<path d="M150 5354.45V5469.23L92.6094 5411.84L150 5354.45Z" fill="white"/>
<path d="M150 5354.45V5469.23L92.6094 5411.84L150 5354.45Z" fill="#A2BC4D" fill-opacity="0.5"/>
<path d="M74.9004 5023.13L150 5098.23V5151.11L23.0762 5278.03L74.7168 5329.67L150 5254.39V5304.2L74.7148 5379.48L0 5304.77V5251.13L126.547 5124.58L74.9062 5072.94L0 5147.85V5098.03L74.9004 5023.13Z" fill="white"/>
<path d="M74.9004 5023.13L150 5098.23V5151.11L23.0762 5278.03L74.7168 5329.67L150 5254.39V5304.2L74.7148 5379.48L0 5304.77V5251.13L126.547 5124.58L74.9062 5072.94L0 5147.85V5098.03L74.9004 5023.13Z" fill="#A2BC4D" fill-opacity="0.5"/>
<path d="M57.2461 5411.84L0 5469.08V5354.59L57.2461 5411.84Z" fill="white"/>
<path d="M57.2461 5411.84L0 5469.08V5354.59L57.2461 5411.84Z" fill="#A2BC4D" fill-opacity="0.5"/>
<path d="M150 4934.43V5049.21L92.6074 4991.82L150 4934.43Z" fill="white"/>
<path d="M150 4934.43V5049.21L92.6074 4991.82L150 4934.43Z" fill="#A2BC4D" fill-opacity="0.5"/>
<path d="M74.9004 4603.11L150 4678.21V4731.09L23.0762 4858.02L74.7168 4909.66L150 4834.37V4884.18L74.7148 4959.47L0 4884.75V4831.11L126.547 4704.57L74.9062 4652.93L0 4727.83V4678.01L74.9004 4603.11Z" fill="white"/>
<path d="M74.9004 4603.11L150 4678.21V4731.09L23.0762 4858.02L74.7168 4909.66L150 4834.37V4884.18L74.7148 4959.47L0 4884.75V4831.11L126.547 4704.57L74.9062 4652.93L0 4727.83V4678.01L74.9004 4603.11Z" fill="#A2BC4D" fill-opacity="0.5"/>
<path d="M57.2461 4991.82L0 5049.07V4934.58L57.2461 4991.82Z" fill="white"/>
<path d="M57.2461 4991.82L0 5049.07V4934.58L57.2461 4991.82Z" fill="#A2BC4D" fill-opacity="0.5"/>
<path d="M150 6190.45V6305.23L92.6094 6247.84L150 6190.45Z" fill="white"/>
<path d="M150 6190.45V6305.23L92.6094 6247.84L150 6190.45Z" fill="#A2BC4D" fill-opacity="0.5"/>
<path d="M74.9004 5859.13L150 5934.23V5987.11L23.0762 6114.03L74.7168 6165.67L150 6090.39V6140.2L74.7148 6215.48L0 6140.77V6087.13L126.547 5960.58L74.9062 5908.94L0 5983.85V5934.03L74.9004 5859.13Z" fill="white"/>
<path d="M74.9004 5859.13L150 5934.23V5987.11L23.0762 6114.03L74.7168 6165.67L150 6090.39V6140.2L74.7148 6215.48L0 6140.77V6087.13L126.547 5960.58L74.9062 5908.94L0 5983.85V5934.03L74.9004 5859.13Z" fill="#A2BC4D" fill-opacity="0.5"/>
<path d="M57.2461 6247.84L0 6305.08V6190.59L57.2461 6247.84Z" fill="white"/>
<path d="M57.2461 6247.84L0 6305.08V6190.59L57.2461 6247.84Z" fill="#A2BC4D" fill-opacity="0.5"/>
<path d="M150 5770.43V5885.21L92.6074 5827.82L150 5770.43Z" fill="white"/>
<path d="M150 5770.43V5885.21L92.6074 5827.82L150 5770.43Z" fill="#A2BC4D" fill-opacity="0.5"/>
<path d="M74.9004 5439.11L150 5514.21V5567.09L23.0762 5694.02L74.7168 5745.66L150 5670.37V5720.18L74.7148 5795.47L0 5720.75V5667.11L126.547 5540.57L74.9062 5488.93L0 5563.83V5514.01L74.9004 5439.11Z" fill="white"/>
<path d="M74.9004 5439.11L150 5514.21V5567.09L23.0762 5694.02L74.7168 5745.66L150 5670.37V5720.18L74.7148 5795.47L0 5720.75V5667.11L126.547 5540.57L74.9062 5488.93L0 5563.83V5514.01L74.9004 5439.11Z" fill="#A2BC4D" fill-opacity="0.5"/>
<path d="M57.2461 5827.82L0 5885.07V5770.58L57.2461 5827.82Z" fill="white"/>
<path d="M57.2461 5827.82L0 5885.07V5770.58L57.2461 5827.82Z" fill="#A2BC4D" fill-opacity="0.5"/>
<path d="M150 3679.67V3794.45L92.6094 3737.06L150 3679.67Z" fill="white"/>
<path d="M150 3679.67V3794.45L92.6094 3737.06L150 3679.67Z" fill="#A2BC4D" fill-opacity="0.5"/>
<path d="M74.9004 3348.35L150 3423.46V3476.34L23.0762 3603.26L74.7168 3654.9L150 3579.62V3629.42L74.7148 3704.71L0 3629.99V3576.35L126.547 3449.81L74.9062 3398.17L0 3473.07V3423.26L74.9004 3348.35Z" fill="white"/>
<path d="M74.9004 3348.35L150 3423.46V3476.34L23.0762 3603.26L74.7168 3654.9L150 3579.62V3629.42L74.7148 3704.71L0 3629.99V3576.35L126.547 3449.81L74.9062 3398.17L0 3473.07V3423.26L74.9004 3348.35Z" fill="#A2BC4D" fill-opacity="0.5"/>
<path d="M57.2461 3737.06L0 3794.31V3679.82L57.2461 3737.06Z" fill="white"/>
<path d="M57.2461 3737.06L0 3794.31V3679.82L57.2461 3737.06Z" fill="#A2BC4D" fill-opacity="0.5"/>
<path d="M150 3259.66V3374.44L92.6074 3317.05L150 3259.66Z" fill="white"/>
<path d="M150 3259.66V3374.44L92.6074 3317.05L150 3259.66Z" fill="#A2BC4D" fill-opacity="0.5"/>
<path d="M74.9004 2928.34L150 3003.44V3056.32L23.0762 3183.24L74.7168 3234.88L150 3159.6V3209.41L74.7148 3284.69L0 3209.98V3156.34L126.547 3029.79L74.9062 2978.15L0 3053.06V3003.24L74.9004 2928.34Z" fill="white"/>
<path d="M74.9004 2928.34L150 3003.44V3056.32L23.0762 3183.24L74.7168 3234.88L150 3159.6V3209.41L74.7148 3284.69L0 3209.98V3156.34L126.547 3029.79L74.9062 2978.15L0 3053.06V3003.24L74.9004 2928.34Z" fill="#A2BC4D" fill-opacity="0.5"/>
<path d="M57.2461 3317.05L0 3374.3V3259.8L57.2461 3317.05Z" fill="white"/>
<path d="M57.2461 3317.05L0 3374.3V3259.8L57.2461 3317.05Z" fill="#A2BC4D" fill-opacity="0.5"/>
<path d="M150 2843.56V2958.34L92.6094 2900.95L150 2843.56Z" fill="white"/>
<path d="M150 2843.56V2958.34L92.6094 2900.95L150 2843.56Z" fill="#A2BC4D" fill-opacity="0.5"/>
<path d="M74.9004 2512.24L150 2587.34V2640.22L23.0762 2767.15L74.7168 2818.79L150 2743.5V2793.31L74.7148 2868.59L0 2793.88V2740.24L126.547 2613.69L74.9062 2562.05L0 2636.96V2587.14L74.9004 2512.24Z" fill="white"/>
<path d="M74.9004 2512.24L150 2587.34V2640.22L23.0762 2767.15L74.7168 2818.79L150 2743.5V2793.31L74.7148 2868.59L0 2793.88V2740.24L126.547 2613.69L74.9062 2562.05L0 2636.96V2587.14L74.9004 2512.24Z" fill="#A2BC4D" fill-opacity="0.5"/>
<path d="M57.2461 2900.95L0 2958.2V2843.7L57.2461 2900.95Z" fill="white"/>
<path d="M57.2461 2900.95L0 2958.2V2843.7L57.2461 2900.95Z" fill="#A2BC4D" fill-opacity="0.5"/>
<path d="M150 2423.55V2538.33L92.6074 2480.94L150 2423.55Z" fill="white"/>
<path d="M150 2423.55V2538.33L92.6074 2480.94L150 2423.55Z" fill="#A2BC4D" fill-opacity="0.5"/>
<path d="M74.9004 2092.23L150 2167.33V2220.21L23.0762 2347.13L74.7168 2398.77L150 2323.49V2373.3L74.7148 2448.58L0 2373.87V2320.23L126.547 2193.68L74.9062 2142.04L0 2216.95V2167.13L74.9004 2092.23Z" fill="white"/>
<path d="M74.9004 2092.23L150 2167.33V2220.21L23.0762 2347.13L74.7168 2398.77L150 2323.49V2373.3L74.7148 2448.58L0 2373.87V2320.23L126.547 2193.68L74.9062 2142.04L0 2216.95V2167.13L74.9004 2092.23Z" fill="#A2BC4D" fill-opacity="0.5"/>
<path d="M57.2461 2480.94L0 2538.18V2423.69L57.2461 2480.94Z" fill="white"/>
<path d="M57.2461 2480.94L0 2538.18V2423.69L57.2461 2480.94Z" fill="#A2BC4D" fill-opacity="0.5"/>
<path d="M150 2007.45V2122.23L92.6094 2064.84L150 2007.45Z" fill="white"/>
<path d="M150 2007.45V2122.23L92.6094 2064.84L150 2007.45Z" fill="#A2BC4D" fill-opacity="0.5"/>
<path d="M74.9004 1676.13L150 1751.23V1804.11L23.0762 1931.03L74.7168 1982.67L150 1907.39V1957.2L74.7148 2032.48L0 1957.77V1904.13L126.547 1777.58L74.9062 1725.94L0 1800.85V1751.03L74.9004 1676.13Z" fill="white"/>
<path d="M74.9004 1676.13L150 1751.23V1804.11L23.0762 1931.03L74.7168 1982.67L150 1907.39V1957.2L74.7148 2032.48L0 1957.77V1904.13L126.547 1777.58L74.9062 1725.94L0 1800.85V1751.03L74.9004 1676.13Z" fill="#A2BC4D" fill-opacity="0.5"/>
<path d="M57.2461 2064.84L0 2122.08V2007.59L57.2461 2064.84Z" fill="white"/>
<path d="M57.2461 2064.84L0 2122.08V2007.59L57.2461 2064.84Z" fill="#A2BC4D" fill-opacity="0.5"/>
<path d="M150 1587.43V1702.21L92.6074 1644.82L150 1587.43Z" fill="white"/>
<path d="M150 1587.43V1702.21L92.6074 1644.82L150 1587.43Z" fill="#A2BC4D" fill-opacity="0.5"/>
<path d="M74.9004 1256.11L150 1331.21V1384.09L23.0762 1511.02L74.7168 1562.66L150 1487.37V1537.18L74.7148 1612.47L0 1537.75V1484.11L126.547 1357.57L74.9062 1305.93L0 1380.83V1331.01L74.9004 1256.11Z" fill="white"/>
<path d="M74.9004 1256.11L150 1331.21V1384.09L23.0762 1511.02L74.7168 1562.66L150 1487.37V1537.18L74.7148 1612.47L0 1537.75V1484.11L126.547 1357.57L74.9062 1305.93L0 1380.83V1331.01L74.9004 1256.11Z" fill="#A2BC4D" fill-opacity="0.5"/>
<path d="M57.2461 1644.82L0 1702.07V1587.58L57.2461 1644.82Z" fill="white"/>
<path d="M57.2461 1644.82L0 1702.07V1587.58L57.2461 1644.82Z" fill="#A2BC4D" fill-opacity="0.5"/>
</svg>
