<svg width="490" height="85" viewBox="0 0 490 85" fill="none" xmlns="http://www.w3.org/2000/svg">
<path d="M425.063 5.96046e-07L490 5.96046e-07L457.531 32.5214L425.063 5.96046e-07Z" fill="#5087EB"/>
<path d="M237.621 42.5564L280.109 5.96046e-07H310.025L381.832 71.9235L411.048 42.6605L368.456 5.96046e-07H396.634L439.227 42.6616L396.957 85H366.611L295.018 13.2901L265.802 42.5531L308.18 85H279.996L237.621 42.5564Z" fill="#5087EB"/>
<path d="M457.531 52.5605L489.918 85L425.145 85L457.531 52.5605Z" fill="#5087EB"/>
<path d="M187.442 5.96046e-07L252.379 5.96046e-07L219.91 32.5225L187.442 5.96046e-07Z" fill="#5087EB"/>
<path d="M-8.84125e-06 42.5564L42.4873 5.96046e-07H72.4033L144.21 71.9235L173.425 42.6605L130.834 5.96046e-07H159.013L201.605 42.6616L159.336 85H128.99L57.3966 13.2901L28.1812 42.5531L70.5591 85H42.3746L-8.84125e-06 42.5564Z" fill="#5087EB"/>
<path d="M219.91 52.5605L252.297 85L187.524 85L219.91 52.5605Z" fill="#5087EB"/>
</svg>
