<svg width="390" height="30" viewBox="0 0 390 30" fill="none" xmlns="http://www.w3.org/2000/svg">
<g opacity="0.6">
<path d="M427.451 0L450.407 0L438.929 11.4781L427.451 0Z" fill="#5087EB"/>
<path d="M361.187 15.0199L376.207 0L386.783 0L412.168 25.3848L422.496 15.0566L407.439 0H417.401L432.458 15.057L417.515 30L406.787 30L381.478 4.69062L371.149 15.0188L386.131 30L376.167 30L361.187 15.0199Z" fill="#5087EB"/>
<path d="M438.929 18.5508L450.378 30L427.48 30L438.929 18.5508Z" fill="#5087EB"/>
<path d="M343.448 0L366.404 0L354.926 11.4785L343.448 0Z" fill="#5087EB"/>
<path d="M277.184 15.0199L292.204 0H302.78L328.165 25.3848L338.493 15.0566L323.436 0H333.398L348.455 15.057L333.512 30H322.784L297.475 4.69062L287.147 15.0188L302.128 30H292.164L277.184 15.0199Z" fill="#5087EB"/>
<path d="M354.926 18.5508L366.375 30L343.477 30L354.926 18.5508Z" fill="#5087EB"/>
<path d="M258.86 0L281.816 0L270.338 11.4781L258.86 0Z" fill="#5087EB"/>
<path d="M192.596 15.0199L207.616 0L218.192 0L243.577 25.3848L253.905 15.0566L238.848 0H248.81L263.867 15.057L248.924 30L238.196 30L212.887 4.69062L202.558 15.0188L217.54 30L207.576 30L192.596 15.0199Z" fill="#5087EB"/>
<path d="M270.338 18.5508L281.787 30L258.888 30L270.338 18.5508Z" fill="#5087EB"/>
<path d="M174.857 0L197.813 0L186.335 11.4785L174.857 0Z" fill="#5087EB"/>
<path d="M108.593 15.0199L123.613 0H134.189L159.574 25.3848L169.902 15.0566L154.845 0H164.807L179.864 15.057L164.921 30H154.193L128.884 4.69062L118.556 15.0188L133.537 30H123.573L108.593 15.0199Z" fill="#5087EB"/>
<path d="M186.335 18.5508L197.784 30L174.886 30L186.335 18.5508Z" fill="#5087EB"/>
<path d="M89.8596 0L112.816 0L101.338 11.4781L89.8596 0Z" fill="#5087EB"/>
<path d="M23.5959 15.0199L38.6162 0L49.192 0L74.5768 25.3848L84.9049 15.0566L69.8482 0H79.8096L94.8666 15.057L79.9236 30L69.1959 30L43.8865 4.69062L33.5584 15.0188L48.5396 30L38.576 30L23.5959 15.0199Z" fill="#5087EB"/>
<path d="M101.338 18.5508L112.787 30L89.8885 30L101.338 18.5508Z" fill="#5087EB"/>
<path d="M5.85676 0L28.813 0L17.3349 11.4785L5.85676 0Z" fill="#5087EB"/>
<path d="M-60.4069 15.0199L-45.387 0H-34.8112L-9.42645 25.3848L0.90168 15.0566L-14.155 0H-4.19324L10.8638 15.057L-4.07918 30H-14.8069L-40.1163 4.69062L-50.4444 15.0188L-35.4632 30H-45.4268L-60.4069 15.0199Z" fill="#5087EB"/>
<path d="M17.3349 18.5508L28.7841 30L5.88567 30L17.3349 18.5508Z" fill="#5087EB"/>
</g>
</svg>
