<svg width="37" height="34" viewBox="0 0 37 34" fill="none" xmlns="http://www.w3.org/2000/svg">
<path d="M18.1667 33.3333L25.75 13.3333H29.25L36.8333 33.3333H33.3333L31.5417 28.25H23.4583L21.6667 33.3333H18.1667ZM5 28.3333L2.66667 26L11.0833 17.5833C10.1111 16.6111 9.22917 15.5 8.4375 14.25C7.64583 13 6.91667 11.5833 6.25 10H9.75C10.3056 11.0833 10.8611 12.0278 11.4167 12.8333C11.9722 13.6389 12.6389 14.4444 13.4167 15.25C14.3333 14.3333 15.2847 13.0486 16.2708 11.3958C17.2569 9.74306 18 8.16667 18.5 6.66667H0V3.33333H11.6667V0H15V3.33333H26.6667V6.66667H21.8333C21.25 8.66667 20.375 10.7222 19.2083 12.8333C18.0417 14.9444 16.8889 16.5556 15.75 17.6667L19.75 21.75L18.5 25.1667L13.4167 19.9583L5 28.3333ZM24.5 25.3333H30.5L27.5 16.8333L24.5 25.3333Z" fill="#282828"/>
</svg>
