<svg width="647" height="647" viewBox="0 0 647 647" fill="none" xmlns="http://www.w3.org/2000/svg">
<path d="M189.422 0L265.477 60.5619L296.857 4.83344L323.362 323.358" fill="#5087EB"/>
<path d="M189.422 0L178.467 96.6024L116.873 79.3853L323.362 323.358" fill="#5087EB"/>
<path d="M116.873 79.3853L236.105 112.702L323.362 323.358" fill="#7CAAFF"/>
<path d="M0 189.439L96.5937 178.471L79.3813 116.873L323.362 323.358" fill="#5087EB"/>
<path d="M0 189.439L60.5627 265.458L4.81895 296.882L323.362 323.358" fill="#5087EB"/>
<path d="M4.81895 296.882L112.68 236.112L323.362 323.358" fill="#7CAAFF"/>
<path d="M457.291 0.023008L468.247 96.5892L529.857 79.4042L323.362 323.358" fill="#5087EB"/>
<path d="M457.291 0.023008L381.261 60.5584L349.848 4.84212L323.362 323.358" fill="#5087EB"/>
<path d="M349.848 4.84212L410.617 112.703L323.362 323.358" fill="#7CAAFF"/>
<path d="M457.302 646.715L381.258 586.181L349.851 641.921L323.362 323.358" fill="#5087EB"/>
<path d="M457.302 646.715L468.268 550.14L529.863 567.358L323.362 323.358" fill="#5087EB"/>
<path d="M529.863 567.358L410.63 534.041L323.362 323.358" fill="#7CAAFF"/>
<path d="M646.735 457.304L550.141 468.272L567.353 529.87L323.362 323.358" fill="#5087EB"/>
<path d="M646.735 457.304L586.161 381.258L641.916 349.861L323.362 323.358" fill="#5087EB"/>
<path d="M641.916 349.861L534.028 410.642L323.362 323.358" fill="#7CAAFF"/>
<path d="M189.417 646.731L178.476 550.126L116.851 567.35L323.362 323.358" fill="#5087EB"/>
<path d="M189.417 646.731L265.474 586.185L296.86 641.912L323.362 323.358" fill="#5087EB"/>
<path d="M296.86 641.912L236.09 534.052L323.362 323.358" fill="#7CAAFF"/>
<path d="M0.0032288 457.297L60.5492 381.282L4.80934 349.875L323.362 323.358" fill="#5087EB"/>
<path d="M0.0032288 457.297L96.5783 468.264L79.3724 529.886L323.362 323.358" fill="#5087EB"/>
<path d="M79.3724 529.886L112.678 410.626L323.362 323.358" fill="#7CAAFF"/>
<path d="M646.719 189.419L586.157 265.474L641.897 296.88L323.362 323.358" fill="#5087EB"/>
<path d="M646.719 189.419L550.128 178.491L567.334 116.869L323.362 323.358" fill="#5087EB"/>
<path d="M567.334 116.869L534.044 236.09L323.362 323.358" fill="#7CAAFF"/>
<path d="M314.253 301.37H332.469L345.349 314.25V332.466L332.469 345.346H314.253L301.373 332.466V314.25L314.253 301.37Z" fill="#C7DBFF"/>
</svg>
