<svg width="153" height="99" viewBox="0 0 153 99" fill="none" xmlns="http://www.w3.org/2000/svg">
<path d="M74.74 59.2922H107.23V52.9922H0V59.2922H74.74Z" fill="white"/>
<path d="M105.48 71.6913V65.5312H74.73V98.6512H95.14C103.86 98.6512 107.45 94.2613 107.45 88.3613C107.45 82.4613 104.11 78.2213 95.35 78.2213H81.96V71.6913H105.47H105.48ZM95.36 84.3412C98.71 84.3412 99.98 86.2413 99.98 88.4413C99.98 90.6413 98.7 92.4912 95.36 92.4912H81.97V84.3412H95.36Z" fill="white"/>
<path d="M53.92 92.4912H38.22V98.6613H54.59C64.29 98.6613 70.89 91.9412 70.89 82.0912C70.89 72.2412 64.29 65.5312 54.59 65.5312H38.22V71.6913H53.92V71.7112C58.55 71.7112 61.95 74.6013 62.99 79.1013H41.77V85.1013H63C61.97 89.6013 58.56 92.5013 53.93 92.5013L53.92 92.4912Z" fill="white"/>
<path d="M33.12 74.6291C33.12 69.1691 29.49 65.5391 20.76 65.5391H0.0200195V98.6591H22.04C30.76 98.6591 34.35 94.6491 34.35 89.1091C34.35 85.4691 32.78 82.7891 29.1 81.4191C31.87 80.0491 33.11 77.7391 33.11 74.6391L33.12 74.6291ZM7.27002 71.6891H21.02C24.33 71.6891 25.65 73.6691 25.65 75.7791C25.65 77.8891 24.37 79.5091 21.02 79.5091H7.27002V71.6891ZM22.26 92.5291H7.27002V84.549H22.26C25.65 84.549 26.89 86.3691 26.89 88.5091C26.89 90.6491 25.65 92.519 22.26 92.519V92.5291Z" fill="white"/>
<path d="M94.1299 13.6484H107.22L107.19 46.7484H99.9699L99.9199 21.0484H96.0699C95.3299 21.0484 94.6499 21.4484 94.2899 22.0884L81.0199 46.7384H73.4199L89.4499 16.4485C90.3599 14.7285 92.1499 13.6484 94.1099 13.6484H94.1299Z" fill="white"/>
<path d="M26.22 26.2928H7.25V20.9428C7.25 20.2028 7.64999 19.8028 8.51999 19.8028H32.33L32.4 13.6328H7.48999C2.13999 13.6328 0 15.9728 0 20.7928V39.3228C0 45.0028 2.47 46.7428 8.03 46.7428H26.23C32.05 46.7428 33.92 44.7328 33.92 39.6528V33.3828C33.92 28.3028 32.05 26.2928 26.23 26.2928H26.22ZM26.65 39.3928C26.65 40.2628 26.25 40.6628 25.38 40.6628H8.53C7.66 40.6628 7.25998 40.2628 7.25998 39.4628V32.4728H25.38C26.25 32.4728 26.65 32.8728 26.65 33.7428V38.3128V39.4028V39.3928Z" fill="white"/>
<path d="M44.77 27.0406V20.9906C44.77 20.1906 45.17 19.7906 46.04 19.7906H70.74V13.6406H45.54C39.99 13.6406 37.51 15.3806 37.51 21.0606V39.5906C37.51 44.4106 39.65 46.7506 45 46.7506H70.75L70.68 40.6506H46.02C45.15 40.6506 44.75 40.2506 44.75 39.5106V33.0406H67.19V27.0506H44.75L44.77 27.0406Z" fill="white"/>
<path d="M129.02 0L115.37 13.64H139.03V37.37L152.68 23.73V0.0100098H129.02V0ZM129.78 1.84H147.85L121.23 10.39L129.78 1.84ZM140.87 32.94V13.65V11.81H139.03H122.8L150.84 2.81V22.97L140.86 32.94H140.87Z" fill="white"/>
</svg>
