<svg width="713" height="90" viewBox="0 0 713 90" fill="none" xmlns="http://www.w3.org/2000/svg">
<path d="M0 90L51.5987 0L57.4852 10.2147L11.497 90H0ZM92.1602 90L78.3638 66.7178H90.2287L103.565 90H92.1602Z" fill="#282828"/>
<path d="M67.2346 47.6687L61.3482 37.454L67.1427 27.3313L87.9293 63.2209H76.3403L67.2346 47.6687Z" fill="#282828"/>
<path d="M57.1173 64.7853L71.8335 90H15.452L20.9706 80.3374H54.9098L54.8179 80.1534L45.9881 64.6932L51.5067 54.7546L57.1173 64.7853Z" fill="#282828"/>
<path d="M49.3913 76.4724H38.722L44.2406 67.7301L49.3913 76.4724Z" fill="#282828"/>
<path d="M88.1133 90H76.2483L70.7297 80.1534L52.1505 47.2086L35.1349 76.6564H23.27L59.6006 13.6196L65.5791 23.7423L57.945 36.9939L65.5791 51.0736L87.1015 88.1595L88.1133 90Z" fill="#282828"/>
<path d="M129.411 20.2454H138.516V68.2822H129.411V20.2454Z" fill="#282828"/>
<path d="M147.806 32.7607H156.728V36.4417C158.409 34.9726 160.3 33.7629 162.338 32.8528C163.914 32.2001 165.6 31.8565 167.305 31.8405C168.974 31.8249 170.631 32.1376 172.18 32.7607C173.729 33.3958 175.137 34.3344 176.318 35.5215C177.406 36.7973 178.248 38.2638 178.802 39.8466C179.343 41.4442 179.562 43.1332 179.446 44.8159V68.2822H170.616V52.7301C170.707 49.9273 170.522 47.1223 170.064 44.3558C169.776 43.0828 169.062 41.9464 168.041 41.135C167.024 40.4018 165.799 40.0147 164.546 40.0307C162.805 40.0249 161.127 40.6831 159.855 41.8712C158.471 43.2232 157.512 44.9504 157.095 46.8405C156.744 49.2159 156.621 51.6195 156.728 54.0184V68.1902H147.806V32.7607Z" fill="#282828"/>
<path d="M187.816 32.7607H196.737V36.4417C198.403 34.9526 200.298 33.7409 202.348 32.8528C203.953 32.1912 205.671 31.8474 207.406 31.8405C209.076 31.8249 210.732 32.1376 212.281 32.7607C213.816 33.3743 215.197 34.3166 216.328 35.5215C217.416 36.7973 218.258 38.2638 218.812 39.8466C219.352 41.4442 219.571 43.1332 219.455 44.8159V68.2822H210.534V52.7301C210.625 49.9273 210.44 47.1223 209.982 44.3558C209.694 43.0828 208.98 41.9464 207.958 41.135C206.942 40.4018 205.716 40.0147 204.463 40.0307C202.723 40.0249 201.045 40.6831 199.772 41.8712C198.388 43.2232 197.429 44.9504 197.013 46.8405C196.661 49.2159 196.538 51.6195 196.645 54.0184V68.1902H187.724L187.816 32.7607Z" fill="#282828"/>
<path d="M244.749 31.8405C248.068 31.8348 251.333 32.6909 254.222 34.3251C257.096 35.9279 259.48 38.2816 261.121 41.135C262.748 43.9954 263.604 47.2301 263.604 50.5215C263.604 53.8128 262.748 57.0475 261.121 59.908C259.541 62.7764 257.181 65.1377 254.314 66.7178C251.429 68.3632 248.162 69.2201 244.841 69.2025C242.411 69.224 240.001 68.7542 237.757 67.8212C235.512 66.8882 233.48 65.5113 231.78 63.773C230.047 61.9627 228.673 59.8391 227.733 57.5153C226.81 55.174 226.372 52.6693 226.446 50.1534C226.535 47.6474 227.097 45.181 228.101 42.8834C229.156 40.5863 230.657 38.5218 232.516 36.8098C234.129 35.2182 236.039 33.9602 238.138 33.1075C240.237 32.2549 242.484 31.8243 244.749 31.8405ZM244.749 40.2147C243.463 40.1965 242.185 40.4148 240.978 40.8589C239.785 41.3116 238.714 42.0363 237.851 42.9755C236.926 43.958 236.206 45.1156 235.735 46.3804C235.254 47.6419 235.035 48.9883 235.091 50.3374C235.028 51.7169 235.247 53.0949 235.735 54.3865C236.204 55.6797 236.923 56.868 237.851 57.8834C238.731 58.8028 239.797 59.5243 240.978 60C242.173 60.4882 243.46 60.708 244.749 60.6442C246.035 60.6624 247.313 60.4441 248.52 60C249.728 59.5263 250.825 58.8054 251.739 57.8834C252.667 56.868 253.386 55.6797 253.854 54.3865C254.343 53.0949 254.562 51.7169 254.498 50.3374C254.57 48.9875 254.35 47.638 253.854 46.3804C253.418 45.1282 252.715 43.9858 251.794 43.0324C250.873 42.079 249.756 41.3374 248.52 40.8589C247.313 40.4148 246.035 40.1965 244.749 40.2147Z" fill="#282828"/>
<path d="M267.007 20.2454H293.496V29.2638H284.758V68.2822H275.377V29.2638H267.007V20.2454Z" fill="#282828"/>
<path d="M334.334 53.0982H305.729C305.861 54.264 306.221 55.3924 306.79 56.4187C307.358 57.4451 308.122 58.3494 309.04 59.0798C310.954 60.6486 313.374 61.4664 315.846 61.3804C317.456 61.3957 319.052 61.0826 320.537 60.4601C322.027 59.8553 323.374 58.9464 324.492 57.7914L331.942 61.2883C330.233 63.7836 327.924 65.8088 325.228 67.1779C322.327 68.5463 319.144 69.2085 315.938 69.1104C313.43 69.2162 310.926 68.8091 308.58 67.9141C306.246 66.9958 304.12 65.619 302.326 63.865C300.576 62.1575 299.225 60.0833 298.371 57.7914C297.44 55.5165 297.002 53.0702 297.083 50.6135C297.002 48.1269 297.44 45.6506 298.371 43.3436C299.312 41.0414 300.65 38.9231 302.326 37.0859C304.019 35.3385 306.054 33.96 308.304 33.0368C310.576 32.0978 313.023 31.6585 315.479 31.7485C317.994 31.6667 320.499 32.1053 322.837 33.0368C325.205 33.9315 327.342 35.3467 329.091 37.1779C330.831 39.088 332.202 41.3031 333.138 43.7117C334.04 46.1527 334.447 48.7495 334.334 51.3497V53.0982ZM325.412 46.1043C324.839 44.1507 323.603 42.4583 321.917 41.319C320.164 40.0279 318.021 39.3782 315.846 39.4785C313.498 39.4599 311.207 40.2025 309.316 41.5951C307.854 42.8163 306.743 44.4042 306.097 46.1963L325.412 46.1043Z" fill="#282828"/>
<path d="M376.275 39.9386L368.825 43.9877C367.654 42.7176 366.249 41.6863 364.686 40.9509C363.151 40.4012 361.533 40.121 359.903 40.1227C358.434 40.0587 356.967 40.2773 355.58 40.7669C354.194 41.2983 352.916 42.0779 351.809 43.0675C350.798 44.0714 349.987 45.258 349.418 46.5644C348.856 47.8694 348.604 49.2868 348.682 50.7055C348.604 52.0944 348.856 53.482 349.418 54.7546C349.955 56.0288 350.736 57.1855 351.717 58.1595C352.763 59.1348 353.994 59.8899 355.337 60.38C356.68 60.87 358.108 61.085 359.535 61.0123C361.298 61.0736 363.053 60.76 364.686 60.092C366.3 59.4027 367.721 58.3285 368.825 56.9632L375.815 61.7485C373.952 64.1972 371.522 66.1555 368.734 67.4542C365.945 68.7529 362.883 69.3529 359.811 69.2025C357.12 69.3603 354.425 68.9528 351.901 68.0061C349.378 67.0647 347.088 65.5894 345.187 63.681C343.14 61.6583 341.623 59.161 340.772 56.411C339.887 53.6815 339.635 50.7861 340.036 47.9448C340.503 45.0986 341.603 42.3938 343.255 40.0307C344.921 37.6708 347.129 35.7457 349.694 34.4172C352.879 32.7761 356.412 31.924 359.995 31.9325C363.279 31.8431 366.534 32.5703 369.469 34.0491C372.233 35.3527 374.587 37.3898 376.275 39.9386Z" fill="#282828"/>
<path d="M384.277 19.0491H393.107V36.2577C394.686 34.8824 396.451 33.7362 398.349 32.8528C400.031 32.1175 401.848 31.7414 403.684 31.7485C405.353 31.7329 407.01 32.0455 408.559 32.6687C410.093 33.2822 411.474 34.2246 412.605 35.4294C413.693 36.7053 414.535 38.1718 415.089 39.7546C415.624 41.3535 415.843 43.0414 415.733 44.7239V68.2822H406.903V52.7301C406.994 49.9273 406.809 47.1223 406.351 44.3558C406.063 43.0828 405.349 41.9464 404.328 41.135C403.311 40.4018 402.086 40.0147 400.833 40.0307C399.092 40.0249 397.415 40.6831 396.142 41.8712C394.742 43.1741 393.779 44.8774 393.383 46.7485C393.029 49.1854 392.905 51.6503 393.015 54.1104V68.3742H384.185L384.277 19.0491Z" fill="#282828"/>
<path d="M439.555 59.3558L443.602 56.8712C446.453 62.1166 449.672 64.7853 453.443 64.7853C455.013 64.7913 456.56 64.4122 457.95 63.681C459.309 63.0231 460.433 61.9629 461.169 60.6442C461.907 59.4239 462.289 58.0214 462.273 56.5951C462.302 54.8825 461.714 53.2166 460.617 51.9018C458.193 48.955 455.377 46.3541 452.247 44.1718C449.552 42.3183 447.11 40.122 444.981 37.638C443.325 35.5408 442.418 32.949 442.406 30.2761C442.38 28.2771 442.888 26.3074 443.877 24.5705C444.877 22.8479 446.344 21.4439 448.108 20.5215C449.914 19.5405 451.94 19.0339 453.995 19.0491C456.218 19.0414 458.405 19.6122 460.341 20.7055C462.816 22.3231 464.942 24.4194 466.596 26.8712L462.733 29.8159C461.465 28.0114 459.912 26.4261 458.134 25.1227C456.876 24.3944 455.448 24.0133 453.995 24.0184C453.135 23.9693 452.273 24.0993 451.466 24.4003C450.659 24.7012 449.922 25.1666 449.304 25.7669C448.714 26.3076 448.244 26.9659 447.924 27.6994C447.592 28.5709 447.436 29.5003 447.468 30.4327C447.5 31.3652 447.717 32.2819 448.108 33.1288C448.715 34.3317 449.524 35.4212 450.5 36.3497C451.144 36.9939 453.259 38.5583 456.662 41.135C459.965 43.3505 462.859 46.1215 465.216 49.3251C466.698 51.4261 467.501 53.9314 467.515 56.5031C467.509 58.21 467.165 59.8988 466.504 61.4724C465.835 63.0503 464.83 64.4634 463.56 65.6135C462.284 66.8564 460.772 67.8308 459.114 68.4788C457.455 69.1269 455.683 69.4355 453.903 69.3865C451.095 69.4324 448.339 68.6307 445.993 67.0859C443.234 65.0892 441.02 62.4312 439.555 59.3558Z" fill="#282828"/>
<path d="M493.637 31.8405C496.199 31.7673 498.745 32.2705 501.087 33.3129C503.448 34.3432 505.552 35.883 507.249 37.8221C510.463 41.3706 512.205 46.0098 512.124 50.7975C512.034 55.5767 510.203 60.1585 506.973 63.681C505.21 65.4089 503.155 66.8109 500.903 67.8221C498.596 68.7683 496.13 69.2679 493.637 69.2945C491.139 69.3132 488.664 68.8118 486.37 67.8221C484.088 66.8671 482.022 65.4583 480.3 63.681C477.038 60.182 475.202 55.5895 475.151 50.8051C475.099 46.0206 476.838 41.3899 480.024 37.8221C481.703 35.8639 483.813 34.3207 486.187 33.3129C488.545 32.3226 491.079 31.8217 493.637 31.8405ZM493.637 36.3497C491.801 36.3426 489.984 36.7187 488.302 37.454C486.619 38.1614 485.112 39.2295 483.887 40.5828C482.575 41.9306 481.543 43.5259 480.852 45.2761C480.146 47.0295 479.802 48.9076 479.84 50.7975C479.85 53.3057 480.482 55.7722 481.68 57.9755C482.871 60.1178 484.619 61.8983 486.738 63.1288C488.87 64.3369 491.279 64.971 493.729 64.9693C496.177 64.9591 498.583 64.3257 500.719 63.1288C502.838 61.8983 504.586 60.1178 505.778 57.9755C507.353 55.2499 507.968 52.0742 507.525 48.9571C507.131 45.8426 505.744 42.9382 503.57 40.6748C502.324 39.3219 500.824 38.2275 499.155 37.454C497.431 36.6484 495.538 36.2696 493.637 36.3497Z" fill="#282828"/>
<path d="M519.942 19.0491H524.541V68.2822H519.942V19.0491Z" fill="#282828"/>
<path d="M533.37 32.7607H537.969V49.3251C537.863 52.132 538.079 54.9418 538.613 57.6994C539.258 59.8168 540.625 61.6406 542.476 62.8528C544.442 64.0566 546.702 64.6936 549.006 64.6936C551.311 64.6936 553.571 64.0566 555.537 62.8528C557.273 61.7251 558.572 60.0363 559.216 58.0675C559.829 55.1962 560.076 52.2587 559.951 49.3251V32.7607H564.642V50.1534C564.829 53.9379 564.266 57.7221 562.987 61.2883C561.894 63.697 560.099 65.7182 557.836 67.0859C555.166 68.4763 552.2 69.2023 549.19 69.2023C546.18 69.2023 543.215 68.4763 540.544 67.0859C538.211 65.751 536.347 63.7257 535.21 61.2883C533.879 57.6712 533.315 53.8164 533.554 49.9693V32.7607H533.37Z" fill="#282828"/>
<path d="M578.715 19.6012H583.313V32.7607H590.58V36.7178H583.313V68.2822H578.715V36.7178H572.46V32.7607H578.715V19.6012Z" fill="#282828"/>
<path d="M598.765 18.1288C599.521 18.1147 600.261 18.3402 600.881 18.773C601.509 19.1859 602.016 19.7573 602.352 20.4294C602.63 21.1304 602.725 21.8903 602.628 22.638C602.519 23.378 602.162 24.0591 601.617 24.5705C601.247 24.93 600.809 25.2116 600.329 25.3988C599.859 25.5789 599.361 25.6725 598.857 25.6748C597.857 25.6748 596.898 25.2773 596.191 24.5698C595.484 23.8622 595.086 22.9025 595.086 21.9018C595.08 21.3976 595.174 20.8972 595.362 20.4294C595.549 19.9489 595.831 19.5108 596.19 19.1411C596.505 18.7807 596.922 18.524 597.386 18.4049C597.824 18.2249 598.292 18.1312 598.765 18.1288ZM596.558 32.7607H601.157V68.2822H596.558V32.7607Z" fill="#282828"/>
<path d="M627.37 31.8405C629.932 31.7673 632.478 32.2705 634.82 33.3129C637.181 34.3432 639.286 35.883 640.983 37.8221C644.196 41.3706 645.939 46.0098 645.857 50.7975C645.768 55.5767 643.936 60.1585 640.707 63.681C638.943 65.4089 636.888 66.8109 634.636 67.8221C632.329 68.7683 629.863 69.2679 627.37 69.2945C624.872 69.3132 622.398 68.8118 620.104 67.8221C616.74 66.4154 613.873 64.0335 611.874 60.9831C609.874 57.9327 608.832 54.3532 608.883 50.7055C608.803 45.9732 610.549 41.3922 613.758 37.9141C615.437 35.9559 617.546 34.4127 619.92 33.4049C622.258 32.342 624.802 31.8079 627.37 31.8405ZM627.37 36.3497C625.534 36.3426 623.718 36.7187 622.035 37.454C620.353 38.1614 618.846 39.2295 617.621 40.5828C615.428 42.8337 614.039 45.7445 613.666 48.865C613.268 51.9808 613.881 55.142 615.413 57.8834C616.57 60.021 618.287 61.8026 620.38 63.0368C622.512 64.2448 624.92 64.879 627.37 64.8773C629.818 64.867 632.224 64.2337 634.36 63.0368C636.48 61.8062 638.227 60.0257 639.419 57.8834C640.952 55.142 641.564 51.9808 641.167 48.865C640.813 45.7388 639.42 42.822 637.211 40.5828C635.986 39.2295 634.479 38.1614 632.797 37.454C631.108 36.6407 629.243 36.2612 627.37 36.3497Z" fill="#282828"/>
<path d="M654.319 32.7607H658.918V39.0184C660.522 36.7386 662.591 34.8253 664.988 33.4049C667.219 32.195 669.717 31.5624 672.254 31.5644C674.739 31.4815 677.187 32.1716 679.263 33.5396C681.339 34.9076 682.939 36.8862 683.843 39.2025C685.019 42.6322 685.518 46.2573 685.315 49.8773V68.1902H680.716V51.2577C680.795 48.5195 680.641 45.7796 680.256 43.0675C679.863 41.0014 678.795 39.1242 677.221 37.7301C675.508 36.5089 673.437 35.8937 671.335 35.9816C668.602 35.9836 665.959 36.9627 663.885 38.7423C661.749 40.4876 660.233 42.8759 659.562 45.5521C658.982 48.7381 658.766 51.9799 658.918 55.2147V68.1902H654.319V32.7607Z" fill="#282828"/>
<path d="M712.908 36.6258L709.965 39.6626C708.104 37.6409 705.532 36.4203 702.791 36.2577C702.096 36.2428 701.406 36.3652 700.758 36.6179C700.111 36.8705 699.52 37.2485 699.02 37.7301C698.522 38.1682 698.116 38.6997 697.824 39.2945C697.532 39.8647 697.375 40.4943 697.364 41.135C697.373 42.3598 697.831 43.5388 698.652 44.4478C700.287 46.0242 702.186 47.3013 704.262 48.2209C706.885 49.4151 709.234 51.1382 711.16 53.2822C712.352 54.9113 712.996 56.8769 713 58.8957C712.987 60.2775 712.738 61.6469 712.264 62.9448C711.727 64.2189 710.946 65.3756 709.965 66.3497C708.957 67.3325 707.771 68.1134 706.47 68.6503C705.153 69.1689 703.746 69.4191 702.331 69.3865C700.288 69.3893 698.273 68.9167 696.444 68.0061C694.593 67.114 692.984 65.7882 691.753 64.1411L694.513 60.9202C695.391 62.0819 696.524 63.0264 697.824 63.681C699.109 64.355 700.517 64.762 701.963 64.8773C703.692 64.9165 705.371 64.2907 706.654 63.1288C707.241 62.6069 707.715 61.9703 708.047 61.2581C708.38 60.5459 708.562 59.7733 708.585 58.9877C708.594 57.7044 708.136 56.4616 707.297 55.4908C705.629 53.9126 703.7 52.636 701.595 51.7178C699.073 50.6152 696.838 48.9463 695.065 46.8405C693.9 45.2031 693.288 43.2366 693.317 41.227C693.299 39.9704 693.517 38.7217 693.961 37.546C694.415 36.38 695.14 35.339 696.076 34.5092C696.99 33.5872 698.087 32.8663 699.295 32.3926C700.49 31.9045 701.778 31.6846 703.067 31.7485C704.949 31.8629 706.79 32.3535 708.48 33.1911C710.171 34.0288 711.676 35.1966 712.908 36.6258Z" fill="#282828"/>
</svg>
