<svg width="717" height="900" viewBox="0 0 717 900" fill="none" xmlns="http://www.w3.org/2000/svg">
<path d="M23.6502 270.136C57.8123 209.6 91.368 148.861 125.328 88.3242C117.444 113.227 108.146 137.523 99.858 162.223C85.1016 204.133 70.5473 246.043 55.7909 287.953C45.0773 281.879 34.1616 276.21 23.6502 270.136Z" fill="#5087EB"/>
<path d="M587.425 88.3242C610.469 154.327 633.918 219.925 656.558 285.928C643.419 280.057 630.482 273.983 617.342 268.112C607.639 208.183 597.128 148.456 587.425 88.3242Z" fill="#5087EB"/>
<path d="M121.892 111C124.52 103.711 127.148 96.6246 129.371 89.3359C129.169 92.7778 128.967 96.2197 128.36 99.6616C118.658 155.946 109.763 212.231 99.8584 268.314C86.7191 273.983 73.782 280.259 60.6427 286.13C80.857 227.618 101.475 169.309 121.892 111Z" fill="#5087EB"/>
<path d="M592.48 89.1338C623.61 144.406 654.336 199.679 685.264 255.154C688.094 260.215 691.126 265.277 693.552 270.541C682.838 276.007 672.529 282.081 661.815 287.75C643.218 234.907 624.823 182.267 606.226 129.424C601.577 116.061 596.119 102.901 592.48 89.1338Z" fill="#5087EB"/>
<path d="M60.2386 290.99C72.9736 284.309 86.3149 279.045 99.2521 272.769C104.71 309.009 110.168 345.453 115.626 381.694C118.253 399.916 121.488 418.137 123.509 436.561C103.093 387.768 81.0593 339.581 60.2386 290.99Z" fill="#5087EB"/>
<path d="M601.778 381.086C607.236 345.048 612.29 308.807 618.152 272.769C631.089 279.045 644.228 284.714 657.165 290.585C636.547 338.974 615.12 386.958 594.097 435.144C595.714 417.125 599.151 399.106 601.778 381.086Z" fill="#5087EB"/>
<path d="M22.64 274.59C33.3535 279.652 43.4606 285.726 53.972 291.395C35.9814 343.225 17.5864 394.854 0 446.887C1.61714 427.045 5.05356 407.204 7.47927 387.362C12.5328 349.704 17.3843 312.249 22.64 274.59Z" fill="#5087EB"/>
<path d="M663.837 290.99C674.146 285.523 684.455 279.652 694.765 274.185C701.031 322.371 707.702 370.355 713.968 418.339C714.979 427.045 716.798 435.751 716.596 444.659C705.478 411.86 693.956 379.264 682.636 346.667C676.572 328.243 669.497 309.819 663.837 290.99Z" fill="#5087EB"/>
<path d="M605.214 415.707C623.205 374.809 640.993 333.912 658.984 293.014C659.186 350.919 657.973 409.026 657.569 466.93C635.535 461.059 613.502 454.782 591.266 449.113C594.501 437.573 600.565 426.842 605.214 415.707Z" fill="#5087EB"/>
<path d="M58.2162 293.216C80.4519 342.01 101.273 391.411 123.104 440.407C124.519 443.242 125.328 446.279 125.53 449.316C103.496 454.782 81.6648 461.666 59.4291 466.93C59.227 409.025 58.8227 351.121 58.2162 293.216Z" fill="#5087EB"/>
<path d="M662.825 359.423C663.027 338.771 662.825 318.12 663.432 297.469C680.614 347.68 698.2 397.486 715.584 447.697C697.796 453.77 679.805 459.439 661.814 465.513C662.219 430.082 661.612 394.854 662.825 359.423Z" fill="#5087EB"/>
<path d="M54.5794 296.254C54.5794 296.254 54.7815 410.241 55.7923 465.513C37.8016 459.844 20.013 453.568 2.02234 447.899L54.5794 296.254Z" fill="#5087EB"/>
<path d="M2.02234 452.151C19.8109 457.82 37.3973 463.489 54.9837 469.765C60.6437 482.318 65.0908 495.276 70.3465 508.031C81.2622 536.376 92.5822 564.316 103.296 592.863C69.1336 546.094 35.578 499.122 2.02234 452.151Z" fill="#5087EB"/>
<path d="M662.017 469.563C679.806 463.692 697.594 457.618 715.383 451.949C683.242 496.896 650.9 541.64 618.759 586.587C617.344 588.611 615.727 590.636 614.312 592.458C629.675 551.358 646.25 510.663 662.017 469.563Z" fill="#5087EB"/>
<path d="M60.2386 471.182C82.4743 465.108 104.508 458.832 126.743 453.163C120.679 499.73 114.211 546.094 107.742 592.66C91.5707 552.37 76.2078 511.675 60.2386 471.182Z" fill="#5087EB"/>
<path d="M590.256 452.758C612.492 459.034 634.727 464.906 656.963 470.98C641.6 511.27 625.631 551.357 610.066 591.445C608.247 586.991 608.044 582.132 607.438 577.475C601.778 535.97 596.118 494.465 590.256 452.758Z" fill="#5087EB"/>
<path d="M129.371 454.58C144.734 486.974 160.097 519.57 175.46 551.964C153.83 565.125 132.201 578.487 110.572 591.445C116.636 545.891 122.7 500.134 129.371 454.58Z" fill="#5087EB"/>
<path d="M615.12 596.305C648.878 548.726 683.04 501.552 717 453.973C711.34 486.165 704.265 518.154 698.201 550.346C692.945 576.261 688.296 602.379 682.636 628.092C660.198 617.361 637.558 606.833 615.12 596.305Z" fill="#5087EB"/>
<path d="M0.404175 454.377C33.1513 498.919 64.8876 544.069 97.2304 588.813C99.0497 591.243 100.667 593.875 102.082 596.507C79.4419 606.63 57.2062 618.17 34.3641 628.091C23.2463 569.984 11.522 512.282 0.404175 454.377Z" fill="#5087EB"/>
<path d="M542.146 552.37C557.104 519.571 572.669 486.974 588.234 454.377C594.298 500.134 600.767 545.688 606.831 591.243C585 578.892 563.775 565.125 542.146 552.37Z" fill="#5087EB"/>
<path d="M170.204 559.861C172.428 558.444 174.651 557.027 177.077 556.015C200.121 581.323 223.57 606.226 246.614 631.534C200.93 620.398 155.65 608.048 109.966 596.507C129.978 584.157 150.394 572.212 170.204 559.861Z" fill="#5087EB"/>
<path d="M470.386 631.736C493.431 606.226 517.284 581.323 540.328 555.812C555.488 564.923 570.649 574.237 586.012 583.55C592.885 588.004 600.364 591.649 606.63 596.71C561.148 608.453 515.869 620.398 470.386 631.736Z" fill="#5087EB"/>
<path d="M36.5869 631.736C59.2268 621.006 81.6646 610.478 104.305 599.747C117.04 666.762 129.37 733.778 141.701 800.793C140.69 799.578 139.68 798.364 138.669 796.946C104.507 741.876 70.5468 686.806 36.5869 631.736Z" fill="#5087EB"/>
<path d="M471.599 633.963C516.07 622.423 560.34 610.883 604.811 599.747C588.235 616.754 572.064 633.761 555.488 650.768C539.721 666.965 524.358 683.567 508.389 699.157C503.538 692.07 499.899 684.174 495.452 676.886C487.568 662.511 479.078 648.541 471.599 633.963Z" fill="#5087EB"/>
<path d="M572.67 804.639C572.67 804.639 531.029 737.017 510.208 703.205C543.562 668.786 577.117 634.165 610.471 599.544C605.417 629.913 599.353 660.283 593.693 690.652" fill="#5087EB"/>
<path d="M613.099 599.747C635.739 610.275 658.177 621.006 680.614 631.736C649.687 682.555 618.152 732.968 587.022 783.786C583.384 789.86 579.341 795.732 576.107 802.008L613.099 599.747Z" fill="#5087EB"/>
<path d="M106.732 599.747C139.075 632.951 171.216 666.358 203.558 699.764C204.771 701.384 207.803 703.206 205.782 705.23C185.568 738.434 165.151 771.638 144.735 804.64C132 736.207 119.467 667.977 106.732 599.747Z" fill="#5087EB"/>
<path d="M112.593 599.747C157.064 610.883 201.535 622.423 245.805 633.963C233.676 655.627 221.345 677.493 209.217 699.157C203.153 694.095 198.099 687.819 192.439 682.15C165.958 655.02 139.276 627.485 112.593 599.747Z" fill="#5087EB"/>
<path d="M249.444 635.785C261.169 650.363 271.68 665.75 283 680.53C305.842 711.506 328.886 742.281 351.526 773.258C305.034 749.772 258.945 725.679 212.654 701.991C224.783 679.72 237.316 657.854 249.444 635.785Z" fill="#5087EB"/>
<path d="M361.431 671.621C395.593 660.081 429.553 647.933 463.715 636.393C444.916 662.713 425.308 688.628 406.105 714.746C391.348 734.385 376.996 754.631 362.038 774.068C362.24 762.73 362.038 751.392 362.644 740.054C362.038 717.175 361.431 694.297 361.431 671.621Z" fill="#5087EB"/>
<path d="M465.534 638.214C466.14 637.202 468.161 635.177 468.768 637.404C480.694 659.068 493.025 680.327 504.749 701.99C458.459 725.881 412.168 749.772 365.675 773.46C398.827 728.31 432.382 683.364 465.534 638.214Z" fill="#5087EB"/>
<path d="M253.285 636.19C287.649 647.933 322.013 659.879 356.377 671.824C356.175 690.856 355.164 709.685 354.962 728.514C354.558 743.698 355.367 758.681 355.164 773.866C321.204 728.109 287.244 682.15 253.285 636.19Z" fill="#5087EB"/>
<path d="M147.766 808.082C168.385 773.461 189.61 739.447 210.633 705.23C258.338 730.133 306.651 754.429 354.356 779.534C285.426 789.05 216.697 798.566 147.766 808.082Z" fill="#5087EB"/>
<path d="M403.476 758.478C437.841 740.662 472.407 723.047 506.771 705.23C527.794 739.447 548.817 773.866 569.84 808.082C501.111 798.566 432.181 789.253 363.452 779.534C376.389 771.841 390.135 765.565 403.476 758.478Z" fill="#5087EB"/>
<path d="M361.633 781.964C391.55 785.406 421.265 790.062 451.182 794.112C490.196 799.376 529.007 805.045 568.021 810.106C558.722 815.168 548.817 818.61 539.316 823.064C480.089 848.777 420.659 874.49 361.431 900C361.633 860.722 361.027 821.242 361.633 781.964Z" fill="#5087EB"/>
<path d="M298.16 789.657C317.364 787.228 336.567 783.786 355.771 782.166C356.175 821.444 355.771 860.722 355.771 900C286.84 870.44 218.112 840.071 148.979 810.713C167.576 807.069 186.78 805.247 205.579 802.412C236.507 798.161 267.435 793.909 298.16 789.657Z" fill="#5087EB"/>
<path d="M505.123 212.549L538.07 179.699L570.92 212.646L537.973 245.496L505.123 212.549Z" fill="#5087EB"/>
<path d="M145.298 212.549L178.245 179.699L211.095 212.646L178.148 245.496L145.298 212.549Z" fill="#5087EB"/>
<path d="M325.424 392.248L358.371 359.398L391.221 392.345L358.274 425.195L325.424 392.248Z" fill="#5087EB"/>
<path d="M325.424 32.8499L358.371 0L391.221 32.9469L358.274 65.7967L325.424 32.8499Z" fill="#5087EB"/>
<path d="M332.68 212.565L358.137 187.184L383.519 212.641L358.062 238.022L332.68 212.565Z" fill="#5087EB"/>
<path d="M365.547 116.954V194.638L449.634 110.551V32.8665L365.547 116.954Z" fill="#5087EB"/>
<path d="M453.902 205.309H376.218L460.305 121.222H537.99L453.902 205.309Z" fill="#5087EB"/>
<path d="M453.476 220.249H375.791L459.878 304.336H537.563L453.476 220.249Z" fill="#5087EB"/>
<path d="M365.547 308.177V230.493L449.634 314.58V392.264L365.547 308.177Z" fill="#5087EB"/>
<path d="M350.608 116.954V194.638L266.52 110.551V32.8665L350.608 116.954Z" fill="#5087EB"/>
<path d="M262.252 205.309H339.937L255.849 121.222H178.165L262.252 205.309Z" fill="#5087EB"/>
<path d="M262.679 220.249H340.363L256.276 304.336H178.592L262.679 220.249Z" fill="#5087EB"/>
<path d="M350.608 308.177V230.493L266.52 314.58V392.264L350.608 308.177Z" fill="#5087EB"/>
</svg>
