<svg width="397" height="97" viewBox="0 0 397 97" fill="none" xmlns="http://www.w3.org/2000/svg">
<path d="M108.865 0H104.209V96.6871H108.865V0Z" fill="#2B2A29"/>
<path d="M140.228 22.6751L140.189 13.382L135.689 20.9339H133.478L128.978 13.5777V22.6751H124.419V5.14542H128.489L134.652 15.2602L140.678 5.14542H144.748L144.806 22.6751H140.228ZM162.611 18.8405V22.6751H148.524V5.14542H162.278V8.98005H153.435V11.9343H161.222V15.6319H153.435V18.8405H162.611ZM181.824 15.9645H179.73V22.6751H174.878V15.9645H172.804L169.361 22.6751H163.628L168.617 13.4798L163.941 5.14542H169.146L172.648 11.9538H174.878V5.14542H179.73V11.9538H181.863L185.443 5.14542H190.628L185.952 13.4798L190.922 22.6751H185.228L181.824 15.9645ZM211.837 18.7427V26.1967H207.317V22.6751H196.087V26.1967H191.528V18.7427H192.154C193.191 18.7231 193.915 18.0188 194.346 16.6101C194.776 15.2015 195.03 13.1864 195.148 10.5452L195.343 5.14542H209.469V18.7427H211.837ZM199.472 10.9756C199.413 12.8342 199.256 14.4385 199.022 15.7297C198.787 17.0406 198.435 18.0383 197.946 18.7427H204.578V9.07786H199.55L199.472 10.9756ZM230.874 5.14542L223.615 18.684C222.852 20.1317 221.913 21.2469 220.798 21.9903C219.683 22.7534 218.469 23.1251 217.159 23.1251C216.18 23.1251 215.143 22.9099 214.048 22.4599L215.222 18.8209C215.906 19.0166 216.493 19.1144 216.982 19.1144C217.452 19.1144 217.882 18.997 218.274 18.7818C218.646 18.5666 218.978 18.234 219.311 17.7644L212.502 5.14542H217.726L221.815 13.5972L226.041 5.14542H230.874ZM249.128 5.14542V22.6751H244.178V15.8276H237.409V22.6751H232.459V5.14542H237.409V11.7191H244.178V5.14542H249.128ZM264.976 19.2709H257.561L256.191 22.6751H251.143L258.872 5.14542H263.763L271.511 22.6751H266.365L264.976 19.2709ZM263.528 15.6124L261.278 9.99739L259.028 15.6124H263.528ZM281.528 5.14542C283.132 5.14542 284.502 5.39977 285.676 5.928C286.83 6.45624 287.73 7.19969 288.376 8.17791C289.002 9.15613 289.315 10.3104 289.315 11.6212C289.315 12.9516 289.002 14.0863 288.376 15.0646C287.73 16.0232 286.83 16.7667 285.676 17.2949C284.502 17.8231 283.132 18.0775 281.528 18.0775H278.476V22.6751H273.526V5.14542H281.528ZM281.235 14.1842C282.252 14.1842 283.015 13.9494 283.543 13.519C284.052 13.069 284.326 12.4429 284.326 11.6212C284.326 10.7995 284.052 10.1735 283.543 9.72349C283.015 9.27351 282.252 9.03874 281.235 9.03874H278.476V14.1842H281.235ZM300.428 23.0273C298.569 23.0273 296.906 22.636 295.419 21.8338C293.952 21.0513 292.778 19.9752 291.937 18.5861C291.096 17.1971 290.685 15.6319 290.685 13.9103C290.685 12.169 291.096 10.6039 291.937 9.21482C292.778 7.82575 293.952 6.7497 295.419 5.96713C296.906 5.18455 298.569 4.79327 300.428 4.79327C302.267 4.79327 303.93 5.18455 305.417 5.96713C306.885 6.7497 308.059 7.82575 308.9 9.21482C309.741 10.6039 310.152 12.169 310.152 13.9103C310.152 15.6319 309.741 17.1971 308.9 18.5861C308.059 19.9752 306.885 21.0513 305.417 21.8338C303.93 22.636 302.267 23.0273 300.428 23.0273ZM300.428 18.9187C301.309 18.9187 302.111 18.7035 302.815 18.2927C303.539 17.8623 304.106 17.2753 304.517 16.5123C304.948 15.7689 305.143 14.8885 305.143 13.9103C305.143 12.9125 304.948 12.0517 304.517 11.2886C304.106 10.5256 303.539 9.93869 302.815 9.52784C302.111 9.09743 301.309 8.90178 300.428 8.90178C299.528 8.90178 298.726 9.09743 298.022 9.52784C297.298 9.93869 296.73 10.5256 296.319 11.2886C295.889 12.0517 295.693 12.9125 295.693 13.9103C295.693 14.8885 295.889 15.7689 296.319 16.5123C296.73 17.2753 297.298 17.8623 298.022 18.2927C298.726 18.7035 299.528 18.9187 300.428 18.9187ZM331.146 18.7427V26.1967H326.606V22.6751H315.395V26.1967H310.837V18.7427H311.463C312.5 18.7231 313.224 18.0188 313.654 16.6101C314.085 15.2015 314.339 13.1864 314.437 10.5452L314.652 5.14542H328.759V18.7427H331.146ZM318.78 10.9756C318.702 12.8342 318.565 14.4385 318.33 15.7297C318.096 17.0406 317.724 18.0383 317.254 18.7427H323.887V9.07786H318.859L318.78 10.9756ZM350.202 5.14542V22.6751H345.252V15.8276H338.483V22.6751H333.532V5.14542H338.483V11.7191H345.252V5.14542H350.202ZM362.9 10.7213C365.052 10.7213 366.715 11.2104 367.889 12.169C369.063 13.1277 369.63 14.5559 369.63 16.4341C369.63 18.4492 368.985 19.9948 367.693 21.0708C366.382 22.1273 364.563 22.6751 362.254 22.6751H353.959V5.14542H358.85V10.7213H362.9ZM361.922 19.1144C362.763 19.1144 363.428 18.8796 363.917 18.4296C364.406 17.9797 364.661 17.3536 364.661 16.5319C364.661 15.0059 363.741 14.2624 361.922 14.2624H358.85V19.1144H361.922ZM371.567 5.14542H376.459V22.6751H371.567V5.14542ZM380.235 5.14542H385.106V15.4363L392.346 5.14542H397.002V22.6751H392.13V12.4038L384.911 22.6751H380.235V5.14542ZM388.589 4.08895C386.828 4.08895 385.537 3.73679 384.696 3.05204C383.874 2.36729 383.463 1.34994 383.463 0H386.789C386.809 0.586931 386.965 1.01735 387.239 1.31081C387.533 1.58471 387.982 1.74123 388.589 1.74123C389.215 1.74123 389.665 1.58471 389.978 1.31081C390.272 1.01735 390.428 0.586931 390.448 0H393.774C393.774 1.34994 393.363 2.36729 392.522 3.05204C391.7 3.73679 390.389 4.08895 388.589 4.08895ZM143.241 53.2738V60.7278H138.722V57.2062H127.491V60.7278H122.932V53.2738H123.559C124.596 53.2542 125.339 52.5499 125.75 51.1413C126.18 49.7326 126.454 47.7175 126.552 45.0763L126.748 39.6765H140.874V53.2738H143.241ZM130.876 45.5067C130.817 47.3849 130.661 48.9696 130.426 50.2609C130.191 51.5717 129.839 52.5695 129.35 53.2738H135.982V43.609H130.954L130.876 45.5067ZM159.696 53.3716V57.2062H145.628V39.6765H159.382V43.5112H150.539V46.4654H158.326V50.163H150.539V53.3716H159.696ZM178.889 39.6765V57.2062H173.998V43.609H168.969L168.872 46.4654C168.793 48.9696 168.578 51.0043 168.245 52.5695C167.932 54.1346 167.365 55.3476 166.582 56.2084C165.8 57.0693 164.685 57.4997 163.256 57.4997C162.591 57.4997 161.848 57.4019 161.006 57.2062L161.28 53.1368C161.496 53.1955 161.73 53.2151 161.965 53.2151C162.611 53.2151 163.1 52.9607 163.452 52.4521C163.804 51.9238 164.059 51.2 164.215 50.2804C164.352 49.3413 164.469 48.1479 164.509 46.661L164.763 39.6765H178.889ZM191.254 57.5584C189.396 57.5584 187.732 57.1671 186.265 56.3845C184.778 55.5824 183.624 54.5063 182.782 53.1173C181.941 51.7282 181.511 50.1826 181.511 48.4414C181.511 46.7001 181.941 45.135 182.782 43.7459C183.624 42.3764 184.778 41.2808 186.265 40.4982C187.732 39.7157 189.396 39.3244 191.254 39.3244C193.113 39.3244 194.776 39.7157 196.243 40.4982C197.73 41.2808 198.885 42.3764 199.726 43.7459C200.567 45.135 200.998 46.7001 200.998 48.4414C200.998 50.1826 200.567 51.7282 199.726 53.1173C198.885 54.5063 197.73 55.5824 196.243 56.3845C194.776 57.1671 193.113 57.5584 191.254 57.5584ZM191.254 53.4498C192.135 53.4498 192.937 53.2346 193.661 52.8238C194.385 52.3934 194.952 51.8064 195.363 51.063C195.774 50.3 195.989 49.4196 195.989 48.4414C195.989 47.4436 195.774 46.5828 195.363 45.8197C194.952 45.0567 194.385 44.4698 193.661 44.059C192.937 43.6285 192.135 43.4329 191.254 43.4329C190.374 43.4329 189.572 43.6285 188.848 44.059C188.143 44.4698 187.576 45.0567 187.146 45.8197C186.735 46.5828 186.519 47.4436 186.519 48.4414C186.519 49.4196 186.735 50.3 187.146 51.063C187.576 51.8064 188.143 52.3934 188.848 52.8238C189.572 53.2346 190.374 53.4498 191.254 53.4498ZM216.415 48.0305C217.452 48.3631 218.254 48.8913 218.782 49.5957C219.33 50.2804 219.604 51.1608 219.604 52.1977C219.604 53.7433 218.998 54.9759 217.785 55.8563C216.572 56.7562 214.869 57.2062 212.639 57.2062H203.659V39.6765H212.169C214.263 39.6765 215.906 40.0678 217.061 40.8699C218.215 41.6525 218.802 42.7873 218.802 44.235C218.802 45.0763 218.606 45.8393 218.196 46.4849C217.785 47.1305 217.198 47.6588 216.415 48.0305ZM208.53 46.6806H211.7C213.089 46.6806 213.793 46.1132 213.793 44.9589C213.793 43.8046 213.089 43.2373 211.7 43.2373H208.53V46.6806ZM212.443 53.6455C213.872 53.6455 214.596 53.039 214.596 51.826C214.596 50.6326 213.872 50.0456 212.443 50.0456H208.53V53.6455H212.443ZM230.893 57.5584C229.054 57.5584 227.372 57.1671 225.904 56.3845C224.417 55.5824 223.263 54.5063 222.422 53.1173C221.58 51.7282 221.15 50.1826 221.15 48.4414C221.15 46.7001 221.58 45.135 222.422 43.7459C223.263 42.3764 224.417 41.2808 225.904 40.4982C227.372 39.7157 229.054 39.3244 230.893 39.3244C232.752 39.3244 234.415 39.7157 235.902 40.4982C237.369 41.2808 238.524 42.3764 239.385 43.7459C240.226 45.135 240.637 46.7001 240.637 48.4414C240.637 50.1826 240.226 51.7282 239.385 53.1173C238.524 54.5063 237.369 55.5824 235.902 56.3845C234.415 57.1671 232.752 57.5584 230.893 57.5584ZM230.893 53.4498C231.793 53.4498 232.576 53.2346 233.3 52.8238C234.024 52.3934 234.591 51.8064 235.002 51.063C235.433 50.3 235.628 49.4196 235.628 48.4414C235.628 47.4436 235.433 46.5828 235.002 45.8197C234.591 45.0567 234.024 44.4698 233.3 44.059C232.576 43.6285 231.793 43.4329 230.893 43.4329C230.013 43.4329 229.211 43.6285 228.487 44.059C227.782 44.4698 227.215 45.0567 226.785 45.8197C226.374 46.5828 226.159 47.4436 226.159 48.4414C226.159 49.4196 226.374 50.3 226.785 51.063C227.215 51.8064 227.782 52.3934 228.487 52.8238C229.211 53.2346 230.013 53.4498 230.893 53.4498ZM243.298 39.6765H248.169V49.9674L255.409 39.6765H260.065V57.2062H255.193V46.9349L247.974 57.2062H243.298V39.6765ZM251.652 38.6201C249.891 38.6201 248.6 38.2679 247.759 37.6027C246.937 36.918 246.526 35.9006 246.526 34.5311H249.852C249.872 35.118 250.028 35.5485 250.302 35.8419C250.596 36.1158 251.046 36.2723 251.652 36.2723C252.278 36.2723 252.728 36.1158 253.041 35.8419C253.335 35.5485 253.491 35.118 253.511 34.5311H256.837C256.837 35.9006 256.426 36.918 255.585 37.6027C254.763 38.2679 253.452 38.6201 251.652 38.6201ZM136.511 88.3331H129.096L127.726 91.7373H122.659L130.406 74.2076H135.278L143.046 91.7373H137.88L136.511 88.3331ZM135.063 84.6746L132.813 79.0596L130.543 84.6746H135.063ZM161.613 74.2076V91.7373H156.722V78.1401H151.693L151.596 80.9965C151.498 83.5007 151.302 85.5354 150.969 87.1006C150.656 88.6657 150.089 89.8787 149.306 90.7395C148.524 91.6004 147.409 92.0308 145.98 92.0308C145.315 92.0308 144.552 91.933 143.73 91.7373L144.004 87.6679C144.219 87.7266 144.435 87.7462 144.669 87.7462C145.335 87.7462 145.824 87.4919 146.176 86.9832C146.528 86.4549 146.782 85.7311 146.939 84.8115C147.076 83.892 147.174 82.679 147.232 81.1921L147.487 74.2076H161.613ZM174.311 79.7835C176.463 79.7835 178.126 80.2726 179.28 81.2313C180.454 82.1899 181.041 83.6181 181.041 85.4963C181.041 87.5114 180.396 89.057 179.085 90.133C177.774 91.2091 175.974 91.7373 173.646 91.7373H165.369V74.2076H170.241V79.7835H174.311ZM173.333 88.1766C174.154 88.1766 174.819 87.9614 175.309 87.5114C175.817 87.0419 176.052 86.4158 176.052 85.5941C176.052 84.0877 175.152 83.3246 173.333 83.3246H170.241V88.1766H173.333ZM197.241 74.2076V91.7373H192.35V87.3353H189.65L186.774 91.7373H181.569L185.13 86.5919C183.956 86.0832 183.056 85.3398 182.45 84.3615C181.824 83.3833 181.511 82.2095 181.511 80.8595C181.511 79.49 181.824 78.3162 182.469 77.3184C183.096 76.301 184.015 75.538 185.189 75.0098C186.382 74.462 187.772 74.2076 189.356 74.2076H197.241ZM189.454 78.1205C187.498 78.1205 186.519 79.0009 186.519 80.7813C186.519 81.6812 186.774 82.3464 187.263 82.816C187.752 83.2659 188.476 83.5007 189.396 83.5007H192.35V78.1205H189.454ZM217.667 74.2076V91.7373H212.717V84.8898H205.948V91.7373H200.998V74.2076H205.948V80.7813H212.717V74.2076H217.667ZM229.974 92.0895C228.135 92.0895 226.491 91.6982 225.024 90.9156C223.556 90.1526 222.422 89.057 221.58 87.6679C220.739 86.2984 220.328 84.7137 220.328 82.9725C220.328 81.2117 220.739 79.6465 221.58 78.2575C222.422 76.8684 223.556 75.7924 225.024 75.0098C226.491 74.2468 228.135 73.8555 229.974 73.8555C231.578 73.8555 233.026 74.1294 234.298 74.6968C235.589 75.2641 236.665 76.0858 237.506 77.1619L234.356 80.0183C233.222 78.6488 231.852 77.964 230.228 77.964C229.269 77.964 228.428 78.1596 227.685 78.59C226.941 79.0009 226.354 79.5879 225.963 80.3509C225.552 81.1139 225.337 81.9943 225.337 82.9725C225.337 83.9507 225.552 84.8311 225.963 85.5941C226.354 86.3376 226.941 86.9245 227.685 87.3549C228.428 87.7657 229.269 87.981 230.228 87.981C231.852 87.981 233.222 87.2962 234.356 85.9267L237.506 88.7831C236.665 89.8396 235.589 90.6613 234.298 91.2286C233.026 91.796 231.578 92.0895 229.974 92.0895Z" fill="#2B2A29"/>
<path fill-rule="evenodd" clip-rule="evenodd" d="M75.1542 30.5987C72.7672 16.1993 60.2651 5.24325 45.1803 5.24325C22.152 5.24325 8.02593 29.6009 18.0824 49.4C19.9998 53.1173 22.6411 56.4236 25.8498 59.0648C26.0846 55.3672 26.9259 51.6499 28.4129 48.0892C18.3172 34.5115 27.8064 14.732 45.1803 14.732C53.789 14.732 61.1651 19.9165 64.3738 27.3119C68.052 27.801 71.6912 28.877 75.1542 30.5987ZM43.5759 56.4628C42.6564 59.6126 42.6955 62.919 43.5564 65.971C55.589 66.6167 66.8194 60.1213 72.2781 49.4C70.0477 47.0719 67.1716 45.4285 64.0412 44.6459C60.0303 52.8434 52.4781 56.9127 43.5759 56.4628ZM55.8629 77.827C58.152 74.325 59.6781 70.3926 60.3629 66.2841C57.0368 67.9275 53.3977 69.0622 49.5825 69.5513C42.8716 85.0854 20.9781 86.7484 12.2911 71.7034C7.98679 64.269 8.78897 55.2693 13.602 48.7935C12.1738 45.3698 11.2933 41.6721 11.0585 37.7984C-0.211029 47.0719 -3.45885 63.3885 4.07375 76.438C11.6064 89.4874 27.3564 94.8481 41.0325 89.7222C47.1172 87.4332 52.3412 83.2659 55.8629 77.827ZM34.5172 77.827C37.6281 77.064 40.5042 75.3815 42.7346 73.0729C37.8629 65.9515 37.8629 56.5801 42.7346 49.4391C40.4651 47.0719 37.6085 45.448 34.5172 44.6655C27.9433 54.7802 27.9629 67.771 34.5172 77.827ZM76.7781 48.7935C81.5912 55.2693 82.3738 64.269 78.089 71.7034C73.7846 79.1379 65.6064 82.9529 57.5846 82.0138C55.3346 84.968 52.5759 87.5701 49.3477 89.7222C63.0042 94.8481 78.7738 89.4874 86.3064 76.438C94.7977 61.706 89.4368 43.1786 75.1738 34.942C67.289 30.3835 57.8585 29.6205 49.3672 32.7899C52.4585 34.8441 55.2368 37.4266 57.5846 40.4787C64.9803 39.6178 72.3173 42.7873 76.7781 48.7935ZM49.2499 52.2173C52.439 51.4543 55.2759 49.7717 57.4868 47.4827C52.0085 36.7419 40.7977 30.2661 28.7651 30.8921C27.8846 34.0029 27.8846 37.3092 28.7846 40.4004C39.0564 40.107 45.3564 44.7046 49.2499 52.2173Z" fill="#FF694B"/>
</svg>
