<svg width="431" height="100" viewBox="0 0 431 100" fill="none" xmlns="http://www.w3.org/2000/svg">
<g clip-path="url(#clip0_95_1305)">
<mask id="mask0_95_1305" style="mask-type:luminance" maskUnits="userSpaceOnUse" x="0" y="0" width="431" height="100">
<path d="M0 0H431V100H0V0Z" fill="white"/>
</mask>
<g mask="url(#mask0_95_1305)">
<path fill-rule="evenodd" clip-rule="evenodd" d="M269.163 19.0908C249.081 19.0908 233.999 33.3783 233.999 53.1971C233.999 73.0096 249.077 87.3002 269.072 87.3002C279.775 87.3002 289.01 83.4439 295.163 76.1877L295.913 75.3033L286.574 66.3346L285.741 67.2596C281.356 72.1189 275.977 74.4408 269.706 74.4408C257.226 74.4408 248.284 65.6502 248.284 53.1939C248.284 40.7408 257.226 31.9502 269.709 31.9502C275.977 31.9502 281.359 34.2752 285.747 39.0471L286.578 39.9533L295.916 31.0908L295.166 30.2033C289.014 22.9471 279.778 19.0908 269.163 19.0908ZM354.913 20.0064H306.222V86.3908H356.178V73.9846H320.417V58.8064H351.018V46.5877H320.417V32.4064H354.913V20.0064ZM383.334 20.0064H369.136V86.3908H383.334V58.9908H413.682V86.3908H427.877V20.0064H413.682V46.4033H383.334V20.0064ZM218.639 20.0064H169.811L169.043 41.4658C168.727 50.8252 168.049 59.0064 166.419 64.8658C165.601 67.7971 164.576 70.0439 163.318 71.5596C162.093 73.0346 160.663 73.8158 158.914 73.8939H155.016L154.916 100H168.302V86.3908H214.494V100H227.784V73.8971H218.639V20.0064ZM181.791 42.6502L182.197 32.5002H204.622V73.8971H176.163C177.95 71.0408 179.137 67.1033 179.961 62.6127C181.017 56.8471 181.517 49.9252 181.791 42.6502ZM11.587 20.0064H0V86.3908H13.564V47.7002L32.4905 79.0846H39.1117L58.0445 47.1971L58.1257 86.3908H71.7802L71.5928 20.0064H60.0933L35.9729 61.1252L11.587 20.0064ZM150.816 56.9533L136.021 82.8283C135.009 84.6064 133.132 85.7033 131.108 85.7033H101.519C99.4954 85.7033 97.6184 84.6064 96.6065 82.8283L87.8116 67.4408L85.3911 63.2127L81.8119 56.9533C81.3147 56.0779 81.0533 55.0883 81.0533 54.0814C81.0533 53.0746 81.3147 52.085 81.8119 51.2096L96.6065 25.3377C97.0993 24.4683 97.8135 23.7451 98.6765 23.2418C99.5395 22.7384 100.52 22.4728 101.519 22.4721H109.796L115.677 32.7689C115.902 33.16 115.977 33.6204 115.886 34.0627H104.87L93.4239 54.0877L98.6209 63.1721L100.748 66.9033L104.87 74.1096H127.757L139.204 54.0877L127.76 34.0627H120.102C120.173 32.8764 119.897 31.695 119.309 30.6627L114.624 22.4752H131.108C133.132 22.4752 135.009 23.5596 136.021 25.3377L150.816 51.2127C151.828 52.9939 151.828 55.1721 150.816 56.9533Z" fill="#2C3144"/>
<path d="M150.816 56.9529L136.021 82.8279C135.009 84.6061 133.132 85.7029 131.108 85.7029H101.519C99.4954 85.7029 97.6184 84.6061 96.6065 82.8279L87.8116 67.4404L85.3911 63.2123L81.8119 56.9529C81.3147 56.0775 81.0533 55.0879 81.0533 54.0811C81.0533 53.0742 81.3147 52.0846 81.8119 51.2092L96.6065 25.3373C97.0993 24.4679 97.8136 23.7448 98.6765 23.2414C99.5395 22.738 100.52 22.4724 101.519 22.4717H109.796L115.677 32.7686C115.902 33.1596 115.977 33.62 115.886 34.0623H104.87L93.424 54.0873L98.6209 63.1717L100.748 66.9029L104.87 74.1092H127.757L139.204 54.0873L127.76 34.0623H120.102C120.173 32.876 119.897 31.6946 119.309 30.6623L114.624 22.4748H131.108C133.132 22.4748 135.009 23.5592 136.021 25.3373L150.816 51.2123C151.828 52.9936 151.828 55.1717 150.816 56.9529Z" stroke="#2C3144" stroke-width="0.798"/>
<mask id="mask1_95_1305" style="mask-type:luminance" maskUnits="userSpaceOnUse" x="44" y="0" width="77" height="68">
<path fill-rule="evenodd" clip-rule="evenodd" d="M44.8958 0H120.118V67.4438H44.8958V0Z" fill="white"/>
</mask>
<g mask="url(#mask1_95_1305)">
<path fill-rule="evenodd" clip-rule="evenodd" d="M70.4404 63.2188V67.4469H87.8178L85.3973 63.2188H70.4404ZM119.315 30.6656L114.63 22.4781L103.531 3.05625C103.002 2.13002 102.239 1.35972 101.317 0.82311C100.396 0.2865 99.3496 0.00257633 98.2836 0L66.7332 0C65.6672 0.00257633 64.6208 0.2865 63.6995 0.82311C62.7783 1.35972 62.0148 2.13002 61.4862 3.05625L45.7016 30.6656C45.1727 31.5973 44.8946 32.6504 44.8946 33.7219C44.8946 34.7934 45.1727 35.8465 45.7016 36.7781L48.247 41.2344L55.1742 53.3438L59.4624 60.8469V52.3969L57.7509 49.3937L50.8236 37.275L49.3308 34.6719C49.1653 34.3832 49.0782 34.0562 49.0782 33.7234C49.0782 33.3907 49.1653 33.0637 49.3308 32.775L65.1029 5.175C65.2664 4.88654 65.5034 4.64663 65.7898 4.47974C66.0762 4.31285 66.4017 4.22495 66.7332 4.225H98.2805C98.9489 4.225 99.5766 4.58437 99.9077 5.175L109.799 22.4781L115.683 32.775C115.907 33.1679 115.981 33.6285 115.892 34.0719C115.857 34.2823 115.786 34.4852 115.683 34.6719L99.9108 62.2719C99.7786 62.5097 99.5945 62.7146 99.3723 62.8715C99.1501 63.0284 98.8954 63.1332 98.6272 63.1781L100.754 66.9062C101.903 66.3906 102.884 65.5156 103.531 64.3906L119.315 36.7781C119.793 35.9344 120.055 35.0094 120.108 34.0688C120.18 32.8814 119.904 31.6989 119.315 30.6656Z" fill="#FF6624"/>
<path d="M101.544 85.7093C99.5204 85.7093 97.6402 84.6124 96.6315 82.8311L87.8366 67.4468L85.4161 63.2186L81.8369 56.9593C81.3397 56.0839 81.0783 55.0943 81.0783 54.0874C81.0783 53.0805 81.3397 52.0909 81.8369 51.2155L96.6315 25.3437C97.1243 24.4743 97.8385 23.7511 98.7015 23.2477C99.5645 22.7444 100.545 22.4788 101.544 22.478M104.892 34.0718L93.4489 54.0936L98.6428 63.178L100.773 66.9093L104.895 74.1155" stroke="#2C3144" stroke-width="0.798"/>
<path fill-rule="evenodd" clip-rule="evenodd" d="M58.0476 47.1875L58.1319 86.3844H71.7865L71.5991 20H60.0995L58.0476 47.1875Z" fill="#2C3144"/>
</g>
</g>
</g>
<defs>
<clipPath id="clip0_95_1305">
<rect width="431" height="100" fill="white"/>
</clipPath>
</defs>
</svg>
