<svg width="1837" height="343" viewBox="0 0 1837 343" fill="none" xmlns="http://www.w3.org/2000/svg">
<path d="M327.087 299.33L237.795 341.435C235.713 342.416 233.485 342.707 231.365 342.404L10.599 325.219C4.66303 324.755 0.152028 319.795 0.155028 313.943L1.41549e-05 155.838C-0.000985845 155.206 0.0510151 154.586 0.151015 153.981L0.129027 153.978L10.198 94.5515C10.279 94.0625 10.391 93.5844 10.53 93.1215C10.87 91.8064 11.34 90.5535 11.926 89.3875C12.706 87.8235 13.682 86.4015 14.809 85.1525L15.342 84.5975L88.812 4.79146C91.513 1.92046 94.841 0.427461 98.22 0.0764609C101.037 -0.214539 103.894 0.33446 106.428 1.56346C108.945 2.78646 111.166 4.73046 112.717 7.22146L112.731 7.24546L112.761 7.22446C114.541 10.0995 115.407 13.5995 114.819 17.4585L114.777 17.7205L114.795 17.7235L107.638 58.4725L194.182 71.9395L195.856 52.1445C196.027 50.0775 196.594 48.1525 197.476 46.4335C197.658 46.0825 197.854 45.7445 198.064 45.4215C199.444 43.1655 201.334 41.3535 203.516 40.1225C206.06 38.6845 209.083 37.9955 212.227 38.2545C214.106 38.4135 216.006 38.9275 217.833 39.8615L217.906 39.8995L217.922 39.8695L313.742 89.5205C317.527 91.4825 319.742 95.2794 319.864 99.2595L333.568 288.26C333.912 293.068 331.203 297.39 327.087 299.33Z" fill="#FEFEFE"/>
<path fill-rule="evenodd" clip-rule="evenodd" d="M81.327 83.5665L22.689 145.776L22.504 301.124L83.741 256.539L81.327 83.5665ZM85.905 40.0865L30.53 98.3295L27.149 131.934L80.665 81.6305L85.905 40.0865ZM311.644 285.859L233.215 324.445L24.93 306.884L87.033 260.843L311.644 285.859Z" fill="#A08CDC"/>
<path fill-rule="evenodd" clip-rule="evenodd" d="M94.257 86.0975L94.461 254.183L306.241 278.646L294.541 117.292L94.257 86.0975ZM140.879 111.407C167.261 107.586 181.266 144.044 163.486 166.336C165.002 161.348 162.551 147.358 153.771 147.177C148.998 147.078 144.072 152.437 143.751 161.974C143.627 165.708 144.482 169.055 145.984 171.565C137.941 168.803 132.198 158.375 132.63 145.529C133.041 133.239 137.519 124.638 143.185 120.496C142.006 120.624 140.788 120.878 139.523 121.28C121.517 127.031 123.345 157.385 128.983 173.359L118.39 176.871C111.214 155.316 111.914 115.191 140.879 111.407ZM164.535 226.993C163.145 228.781 161.521 230.536 159.657 232.22C148.241 242.536 136.321 243.724 130.439 237.223C124.556 230.72 127.634 218.359 137.889 209.093C138.19 208.822 138.49 208.557 138.792 208.298C135.034 204.614 131.596 200.657 128.549 196.442L137.606 189.907C142.797 197.086 149.202 203.337 156.372 208.666C190.778 234.233 248.151 242.604 284.018 215.27L284.391 214.985L287.745 218.893L287.392 219.227C254.573 250.134 202.118 246.933 164.535 226.993ZM267.403 135.19L268.086 149.469L281.871 151.333L282.404 169.702L268.983 168.251L269.698 183.182L249.354 181.202L248.714 166.062L232.882 164.351L232.395 144.644L247.897 146.738L247.279 132.133L267.403 135.19ZM322.252 292.067L232.96 334.172L11.48 316.932L11.328 158.826L21.397 99.4005C21.667 97.9985 22.32 96.7315 23.241 95.7145L97.039 15.5495C99.576 12.8655 104.182 15.0105 103.605 18.7785L94.451 70.8895L204.44 88.0035L207.137 56.1084C207.366 53.3354 210.239 51.6845 212.694 52.9375L308.514 102.589L322.252 292.067ZM230.187 318.832L287.838 291.674L89.418 268.756L41.042 304.126L230.187 318.832ZM79.465 257.377L79.271 96.0105L26.279 153.282L26.45 296.145L79.465 257.377ZM32.264 124.602L78.488 74.6745L82.142 53.8985L35.822 104.297L32.264 124.602Z" fill="#333333"/>
<path fill-rule="evenodd" clip-rule="evenodd" d="M548.246 182.789C548.246 149.707 547.765 130.24 530.523 112.968C518.868 101.292 504.296 94.7195 484.385 94.7195C464.468 94.7195 449.653 101.292 437.995 112.968C420.754 130.24 420.515 149.707 420.515 182.789C420.515 215.868 420.754 235.331 437.995 252.603C449.653 264.291 464.468 270.856 484.385 270.856C504.296 270.856 518.868 264.291 530.523 252.603C547.765 235.331 548.246 215.868 548.246 182.789ZM1836.74 215.868V202.495C1836.74 166.486 1816.84 141.196 1781.62 141.196C1748.84 141.196 1726.49 164.54 1726.49 205.897C1726.49 257.23 1755.15 270.856 1785.03 270.856C1807.84 270.856 1820.24 264.042 1833.1 250.904L1813.91 232.177C1805.9 239.958 1799.1 244.09 1785.27 244.09C1767.3 244.09 1757.58 232.416 1757.58 215.868H1836.74ZM1805.65 194.223H1757.58C1757.82 188.63 1758.3 185.222 1760.48 180.605C1763.9 173.051 1770.94 167.461 1781.62 167.461C1792.31 167.461 1799.34 173.051 1802.74 180.605C1804.93 185.222 1805.41 188.63 1805.65 194.223ZM1706.88 269.396V188.38C1706.88 174.519 1703.24 162.595 1693.05 152.381C1685.99 145.32 1674.58 141.196 1661.95 141.196C1646.17 141.196 1634.76 146.056 1624.07 157.243C1616.06 146.297 1604.65 141.196 1590.56 141.196C1578.91 141.196 1567.24 145.815 1558.99 154.326V142.652H1528.14V269.396H1559.71V192.768C1559.71 175.492 1570.89 169.655 1580.85 169.655C1590.81 169.655 1601.72 175.492 1601.72 192.768V269.396H1633.31V192.032C1633.31 175.492 1644.71 169.655 1654.43 169.655C1664.38 169.655 1675.32 175.492 1675.32 192.768V269.396H1706.88ZM1502.22 269.396V185.952C1502.22 156.272 1484.01 141.196 1448.32 141.196C1427.19 141.196 1415.28 145.569 1402.9 159.185L1422.82 178.898C1429.61 171.113 1435.68 167.952 1447.1 167.952C1463.85 167.952 1470.65 174.028 1470.65 187.898V194.223H1441.27C1411.4 194.223 1397.56 210.761 1397.56 230.958C1397.56 242.148 1401.21 252.364 1408 259.419C1415.28 266.722 1425.97 270.606 1440.3 270.606C1454.88 270.606 1462.88 266.966 1471.38 258.45V269.396H1502.22ZM1470.65 222.686C1470.65 230.719 1469.44 235.579 1465.8 238.742C1460.46 243.853 1454.88 244.822 1447.1 244.822C1433.99 244.822 1427.91 239.23 1427.91 230.474C1427.91 220.981 1433.99 215.868 1446.61 215.868H1470.65V222.686ZM1382.57 198.357V173.051H1317.24V201.52H1349.05V207.844C1349.05 216.85 1346.85 224.629 1341.28 230.958C1335.94 237.034 1327.68 240.69 1317.24 240.69C1308.01 240.69 1300.72 237.284 1295.63 231.684C1289.31 224.389 1287.37 215.868 1287.37 182.789C1287.37 149.707 1289.31 141.429 1295.63 134.128C1300.72 128.535 1308.01 124.89 1317.24 124.89C1334.48 124.89 1344.44 133.642 1348.32 150.19H1382.32C1377.71 120.995 1357.55 94.7195 1317.24 94.7195C1297.57 94.7195 1283 101.292 1271.1 112.968C1253.86 130.24 1253.61 149.707 1253.61 182.789C1253.61 215.868 1253.86 235.331 1271.1 252.603C1283 264.291 1297.57 270.856 1317.24 270.856C1335.69 270.856 1351.72 266.234 1366.06 251.15C1378.68 238.014 1382.57 223.416 1382.57 198.357ZM1246.39 142.652H1213.12L1187.86 220.981L1161.64 142.652H1128.36L1171.59 260.397L1166.25 275.965C1163.09 285.208 1159.44 287.394 1150.46 287.394H1143.18V315.859H1155.56C1165.99 315.859 1175.48 313.428 1182.76 306.131C1186.65 302.236 1189.56 296.882 1192.23 289.833L1246.39 142.652ZM1115.31 269.396V96.1835H1082.04L1037.11 189.84L991.935 96.1835H958.665V269.396H992.415V168.432L1025.7 234.121H1048.53L1081.55 168.432V269.396H1115.31ZM930.315 269.396V188.38C930.315 174.519 927.645 162.595 917.445 152.381C910.395 145.32 900.205 141.196 887.565 141.196C875.915 141.196 864.255 145.569 856.005 154.326V142.652H825.157V269.396H856.735V192.768C856.735 175.492 867.895 169.655 877.855 169.655C887.815 169.655 898.745 175.492 898.745 192.768V269.396H930.315ZM804.088 215.868V202.495C804.088 166.486 784.182 141.196 748.964 141.196C716.179 141.196 693.837 164.54 693.837 205.897C693.837 257.23 722.5 270.856 752.368 270.856C775.189 270.856 787.578 264.042 800.45 250.904L781.269 232.177C773.251 239.958 766.455 244.09 752.609 244.09C734.639 244.09 724.927 232.416 724.927 215.868H804.088ZM773.008 194.223H724.927C725.163 188.63 725.655 185.222 727.835 180.605C731.239 173.051 738.278 167.461 748.964 167.461C759.652 167.461 766.693 173.051 770.093 180.605C772.281 185.222 772.767 188.63 773.008 194.223ZM678.115 205.897C678.115 184.739 677.145 165.037 665 152.621C657.959 145.32 646.789 141.196 634.396 141.196C620.802 141.196 611.573 144.835 602.828 154.565V142.652H572.231V315.859H603.804V258.205C611.818 267.45 621.531 270.856 634.396 270.856C646.789 270.856 657.959 266.722 665 259.419C677.145 247.014 678.115 227.064 678.115 205.897ZM646.544 205.897C646.544 226.336 644.113 242.393 625.176 242.393C606.23 242.393 603.804 226.336 603.804 205.897C603.804 185.463 606.23 169.655 625.176 169.655C644.113 169.655 646.544 185.463 646.544 205.897ZM514.494 182.789C514.494 215.868 512.306 223.905 505.998 231.197C501.141 236.795 493.608 240.69 484.385 240.69C475.154 240.69 467.627 236.795 462.525 231.197C456.206 223.905 454.267 215.868 454.267 182.789C454.267 149.707 456.206 141.429 462.525 134.128C467.627 128.535 475.154 124.89 484.385 124.89C493.608 124.89 501.141 128.535 505.998 134.128C512.306 141.429 514.494 149.707 514.494 182.789Z" fill="#333333"/>
</svg>
