<svg width="357" height="73" viewBox="0 0 357 73" fill="none" xmlns="http://www.w3.org/2000/svg">
<path fill-rule="evenodd" clip-rule="evenodd" d="M25.8765 0.870001C25.8765 1.348 22.7215 4.367 18.8665 7.579C14.0725 11.572 10.5225 15.645 7.64047 20.459C5.32147 24.332 3.40747 27.725 3.38547 28C3.36347 28.275 3.06547 28.95 2.72347 29.5C1.82647 30.94 -0.581531 58.875 0.129469 59.586C0.457469 59.914 5.01147 57.624 10.2495 54.498L19.7745 48.814L20.1455 44.157C20.5145 39.516 20.5165 39.519 20.6965 45.074L20.8765 50.648L28.4905 53.036C32.6785 54.349 35.6995 55.559 35.2025 55.725C34.7065 55.89 31.0075 54.905 26.9815 53.536L19.6615 51.046L10.1255 56.186L0.590468 61.327L21.3405 66.764L42.0905 72.202L52.2335 69.193C57.8125 67.539 62.2635 65.693 62.1265 65.093C61.9885 64.492 62.3265 64 62.8765 64C63.5075 64 63.8765 57.167 63.8765 45.5C63.8765 28.553 63.7295 26.999 62.1265 26.985C60.9255 26.974 60.7565 26.728 61.5865 26.2C62.3865 25.692 60.0095 23.294 54.5865 19.138L46.3765 12.845L45.8045 15.673C45.4905 17.228 45.3685 18.779 45.5335 19.12C45.6985 19.461 48.5585 20.759 51.8875 22.004C55.2175 23.249 57.7685 24.441 57.5565 24.653C57.3455 24.864 49.5995 22.11 40.3445 18.532C31.0895 14.954 23.4155 12.133 23.2925 12.263C23.1685 12.393 22.6075 18.575 22.0445 26L21.0215 39.5L21.5205 26L22.0195 12.5L18.1985 15.988C8.17347 25.137 6.02347 26.73 13.4595 19.5C17.9855 15.1 23.0805 9.2 24.7825 6.389C28.1265 0.866 28.4105 0 26.8765 0C26.3265 0 25.8765 0.391001 25.8765 0.870001ZM43.4425 22.421L60.3765 28.843L60.6515 44.906L60.9255 60.969L58.6515 60.106C57.4005 59.631 49.0115 56.902 40.0105 54.041L23.6455 48.841L24.2965 36.17C24.8995 24.452 25.7305 16 26.2805 16C26.4065 16 34.1295 18.89 43.4425 22.421ZM29.8535 22.023C27.2015 24.675 27.1785 31.059 29.8135 33.443C32.2665 35.663 34.0695 34.618 33.2715 31.439C32.8005 29.56 33.0555 29 34.3845 29C35.6855 29 35.9925 29.615 35.6315 31.5C35.3685 32.875 35.4515 34 35.8155 34C39.0355 34 40.0525 25.32 37.1265 22.807C34.0435 20.16 31.9435 19.933 29.8535 22.023ZM90.7745 30.27C84.2505 34.628 82.0055 44.283 85.4905 52.993C89.4545 62.901 102.725 64.986 110.456 56.916C113.071 54.187 113.403 53.087 113.721 46.082C114.133 37.003 112.621 33.035 107.577 29.96C103.016 27.178 95.1855 27.323 90.7745 30.27ZM185.422 29.25C185.206 29.938 184.823 37.327 184.57 45.671L184.109 60.842L186.577 61.461C189.379 62.164 193.019 61.272 194.111 59.615C194.515 59.002 194.873 55.575 194.908 52L194.97 45.5L197.465 53.25C199.923 60.884 200.01 61 203.321 61C206.628 61 206.715 60.885 208.831 53.75C210.014 49.763 211.147 46.05 211.35 45.5C211.552 44.95 211.754 47.972 211.797 52.215C211.887 61.019 213.174 62.598 219.321 61.444L222.737 60.803L222.172 46.152C221.861 38.093 221.201 30.712 220.706 29.75C220.019 28.414 218.542 28 214.463 28C211.4 28 208.686 28.533 208.1 29.25C207.539 29.938 206.213 33.339 205.154 36.809L203.228 43.118L201.356 36.934C200.326 33.533 198.865 30.132 198.109 29.375C196.327 27.594 185.972 27.492 185.422 29.25ZM254.598 31.918C250.445 35.792 250.394 35.922 250.053 43.668C249.749 50.565 249.989 51.918 252.062 55C256.24 61.213 264.813 63.661 272.727 60.902L275.876 59.804V52.011C275.876 44.599 275.757 44.187 273.455 43.609C269.394 42.59 267.876 43.813 267.876 48.107C267.876 50.973 267.463 52 266.31 52C261.096 52 258.203 45.202 261.365 40.377C262.89 38.049 263.562 37.817 267.504 38.262C271.201 38.678 272.173 38.414 273.403 36.658C275.451 33.734 275.241 30.266 272.942 29.035C271.878 28.466 268.26 28 264.903 28C259.184 28 258.533 28.247 254.598 31.918ZM52.8765 31C52.8765 31.55 52.2015 32 51.3765 32C50.5435 32 49.8765 32.889 49.8765 34C49.8765 35.111 50.5435 36 51.3765 36C52.2015 36 52.8765 36.852 52.8765 37.893C52.8765 38.934 53.5885 40.059 54.4585 40.393C57.0105 41.372 57.8525 41.102 57.2385 39.5C56.8735 38.55 57.2515 38 58.2695 38C60.2445 38 60.4075 35.141 58.4755 34.399C57.7045 34.104 56.8465 32.993 56.5685 31.931C56.0555 29.97 52.8765 29.168 52.8765 31ZM116.876 46.922C116.876 62.234 117.128 62.906 122.378 61.589C124.415 61.078 124.876 60.349 124.876 57.639C124.876 54.639 125.257 54.202 128.806 53.139C136.391 50.867 139.268 40.948 133.899 35.579C132.298 33.978 130.244 33.456 124.367 33.16L116.876 32.781V46.922ZM138.876 46.981C138.876 63.082 138.373 62.374 149.418 61.806L155.376 61.5L155.686 57.75L155.997 54H151.936C148.994 54 147.876 53.587 147.876 52.5C147.876 51.57 148.818 51 150.357 51C152.154 51 153.007 50.326 153.451 48.557C154.254 45.36 153.318 44 150.317 44C148.814 44 147.876 43.424 147.876 42.5C147.876 41.417 148.987 41 151.876 41H155.876V37V33H147.376H138.876V46.981ZM158.543 33.667C158.176 34.033 157.876 40.285 157.876 47.558V60.783L160.461 61.432C165.426 62.678 166.87 61.396 166.937 55.683L166.998 50.5L169.602 55.665C172.254 60.924 174.696 62.383 178.976 61.264C180.728 60.806 180.876 59.683 180.876 46.883V33H176.876H172.876L172.828 38.75L172.78 44.5L169.812 38.75C166.985 33.273 166.663 33 163.027 33C160.927 33 158.909 33.3 158.543 33.667ZM223.876 34.022C223.876 34.584 225.676 38.624 227.876 43C230.921 49.055 231.876 52.129 231.876 55.869C231.876 60.277 232.134 60.848 234.376 61.411C235.751 61.756 238.001 61.756 239.376 61.411C241.658 60.838 241.876 60.31 241.876 55.369C241.876 51.046 242.682 48.353 245.876 42C248.076 37.624 249.876 33.785 249.876 33.467C249.876 33.15 247.739 33.028 245.126 33.195C240.693 33.48 240.247 33.765 238.439 37.468L236.503 41.436L235.759 38.654C235.35 37.124 234.478 35.226 233.823 34.436C232.456 32.79 223.876 32.433 223.876 34.022ZM284.336 34.25C284.073 34.938 282.354 41.206 280.516 48.179C277.175 60.852 277.174 60.858 279.305 61.393C283.022 62.326 285.718 60.998 286.398 57.898C286.923 55.507 287.546 55 289.955 55C292.173 55 292.876 55.464 292.876 56.929C292.876 60.122 295.798 62.266 299.217 61.582C300.874 61.25 302.398 60.811 302.604 60.605C302.978 60.232 300.076 48.138 297.24 38.25L295.734 33H290.274C286.827 33 284.637 33.461 284.336 34.25ZM305.543 33.667C305.176 34.033 304.876 40.285 304.876 47.56C304.876 61.832 305.22 62.705 310.337 61.42C312.211 60.95 312.757 59.951 313.275 56.049C313.625 53.412 313.606 50.41 313.234 49.377C312.862 48.345 312.888 47.796 313.292 48.159C313.696 48.521 314.805 51.446 315.755 54.659C317.348 60.044 317.729 60.524 320.634 60.81C323.689 61.11 323.835 60.942 325.403 55.31C326.293 52.114 327.178 49.05 327.37 48.5C327.561 47.95 327.754 50.055 327.797 53.179C327.886 59.593 329.796 62.525 333.275 61.591C334.431 61.281 335.713 61.021 336.126 61.014C337.031 60.997 337.11 42.046 336.227 36.704L335.599 32.908L330.067 33.204L324.534 33.5L322.55 39.466L320.566 45.431L319.125 40.466C318.332 37.735 317.222 34.938 316.657 34.25C315.595 32.956 306.719 32.49 305.543 33.667ZM339.876 46.981C339.876 63.082 339.373 62.374 350.418 61.806L356.376 61.5L356.686 57.75L356.997 54H352.936C348.181 54 347.086 51.339 351.626 50.816C353.917 50.553 354.428 49.958 354.689 47.25C354.981 44.222 354.793 44 351.939 44C349.883 44 348.876 43.507 348.876 42.5C348.876 41.417 349.987 41 352.876 41H356.876V37V33H348.376H339.876V46.981ZM102.841 39.934C104.449 42.939 104.065 47.545 101.993 50.103C100.332 52.155 99.8045 52.288 97.4935 51.235C95.1975 50.189 94.8765 49.452 94.8765 45.221C94.8765 42.57 95.4165 39.86 96.0765 39.2C97.9135 37.363 101.684 37.772 102.841 39.934ZM27.9565 40.597C29.0745 41.943 29.0155 42.343 27.5795 43.146C25.4445 44.341 25.3565 47.863 27.4405 48.663C28.3005 48.993 30.0645 48.78 31.3615 48.189C33.3265 47.293 34.8365 47.677 40.4315 50.492C44.1235 52.35 48.8505 54.158 50.9355 54.51C55.1165 55.216 58.8765 53.775 58.8765 51.465C58.8765 49.721 57.2095 49.5 56.6535 51.169C55.3925 54.952 36.6705 48.109 31.5145 41.982C30.1345 40.342 28.4715 39 27.8185 39C26.9605 39 26.9985 39.442 27.9565 40.597ZM127.696 43.172C127.224 46.373 124.876 46.716 124.876 43.583C124.876 41.903 125.425 41 126.446 41C127.488 41 127.908 41.729 127.696 43.172ZM290.806 48.25C290.844 48.662 290.263 49 289.515 49C288.572 49 288.313 48.162 288.674 46.278C289.141 43.834 289.273 43.758 289.965 45.528C290.389 46.613 290.767 47.838 290.806 48.25ZM51.4145 60.424C56.8935 62.307 60.9095 63.882 60.3385 63.924C59.7675 63.966 54.8175 62.459 49.3385 60.576C43.8595 58.693 39.8435 57.118 40.4145 57.076C40.9855 57.034 45.9355 58.541 51.4145 60.424Z" fill="#333333"/>
</svg>
