<svg width="182" height="150" viewBox="0 0 182 150" fill="none" xmlns="http://www.w3.org/2000/svg">
<path d="M96.163 47.9975C96.163 21.4893 74.636 0 48.0815 0C21.5269 0 0 21.4893 0 47.9975C0 74.5059 21.5269 95.995 48.0815 95.995C74.636 95.995 96.163 74.5059 96.163 47.9975Z" fill="#282828"/>
<path d="M77.1135 103.236C73.5064 103.236 69.8885 104.302 67.6856 106.541V104.148H59.1729V136.156H67.6856L67.6873 120.156C67.6873 112.914 72.7758 111.221 75.9932 111.221C80.1091 111.221 82.6767 113.594 82.6767 118.916L82.6785 136.156H91.1801V116.862C91.1801 112.68 89.9035 109.364 87.3498 106.912C84.7966 104.462 81.2158 103.236 77.1135 103.236Z" fill="black"/>
<path d="M104.859 116.664C105.129 114.866 106.03 113.404 107.562 112.279C109.093 111.156 110.851 110.593 112.834 110.593C114.861 110.593 116.572 111.144 117.969 112.245C119.366 113.348 120.2 114.82 120.47 116.664H104.859ZM112.834 103.307C107.877 103.307 103.8 104.915 100.602 108.13C97.4019 111.346 95.8034 115.36 95.8034 120.172C95.8034 125.029 97.4477 129.067 100.737 132.281C104.025 135.497 108.171 137.105 113.171 137.105C116.686 137.105 119.884 136.15 122.768 134.238C125.651 132.327 127.419 129.752 128.681 126.514H119.805C119.266 127.396 118.584 128.154 117.679 128.754C116.248 129.703 114.66 130.112 112.916 130.112C110.434 130.112 108.318 129.314 106.686 127.718C105.353 126.416 104.664 124.843 104.433 122.998L129.391 123.006C129.48 122.511 129.526 121.522 129.526 120.037C129.526 115.271 127.971 111.291 124.863 108.096C121.754 104.904 117.743 103.307 112.834 103.307Z" fill="black"/>
<path d="M173.172 104.147L164.356 124.112L156.108 104.147H146.57L159.731 134.161L152.485 150H161.526L182 104.147H173.172Z" fill="black"/>
<path d="M134.337 136.138H142.852V88.14H134.337V136.138Z" fill="black"/>
<path d="M21.6596 129.192C16.6878 129.192 12.6575 125.169 12.6575 120.206C12.6575 115.243 16.6878 111.219 21.6596 111.219C26.6313 111.219 30.6616 115.243 30.6616 120.206C30.6616 125.169 26.6313 129.192 21.6596 129.192ZM22.6328 103.235C18.8928 103.235 15.4408 104.483 12.6575 106.591V104.147H4.14242V149.918H12.6575V133.774C15.4408 135.883 17.9728 137.131 22.6328 137.131C31.8539 137.131 39.3294 129.592 39.3294 120.183C39.3294 110.538 32.0991 103.235 22.6328 103.235Z" fill="black"/>
<path d="M43.8239 136.156H52.3391V104.147H43.8239V136.156Z" fill="black"/>
</svg>
