<svg width="362" height="130" viewBox="0 0 362 130" fill="none" xmlns="http://www.w3.org/2000/svg">
<g clip-path="url(#clip0_46_37)">
<path d="M180.373 59.9594C177.882 59.0026 174.624 58.7161 171.079 58.7161H151.339V52.5928H185.26V42.0687H137.444V87.6098H169.833C174.337 87.6098 177.69 87.2274 180.182 86.2698C185.452 84.2608 188.998 79.3815 188.998 72.9714C188.998 66.466 185.644 61.9688 180.373 59.9594ZM173.474 75.746C172.708 76.0332 171.654 76.1285 170.312 76.1285H151.339V68.857H170.312C171.845 68.857 173.091 68.9534 174.049 69.4315C175.199 70.0055 175.774 71.058 175.774 72.3969C175.774 73.7366 175.103 75.172 173.474 75.746Z" fill="white"/>
<path d="M227.956 42.0687H207.642L188.956 87.6098H204.671L207.258 81.0081H228.339L231.023 87.6098H246.642L227.956 42.0687ZM210.708 70.962L217.32 52.5928H218.374L224.986 70.962H210.708Z" fill="white"/>
<path d="M264.526 70.6759V87.6102H250.632V42.0687H264.526V58.7165H286.853V42.0687H300.747V87.6102H286.853V70.6759H264.526Z" fill="white"/>
<path d="M322.74 70.3891V87.6102H308.846V42.0687H322.74V59.1949H326.573L343.342 42.0687H360.781L338.551 63.8826L361.644 87.6102H343.15L326.573 70.3891H322.74Z" fill="white"/>
<path d="M0.644531 15.5098H110.845V67.0525C110.845 81.2384 103.265 94.3474 90.9614 101.441L55.7449 121.745L20.5279 101.441C8.2239 94.3474 0.644544 81.2384 0.644544 67.0525L0.644531 15.5098Z" fill="white"/>
<path fill-rule="evenodd" clip-rule="evenodd" d="M31.0449 42.0687V59.1714C33.3872 56.5303 37.6461 54.7433 42.5156 54.7433H47.8071V74.6249C47.8071 79.9142 46.3677 85.0936 44.2321 87.6402H67.2498C65.1188 85.0909 63.6827 79.918 63.6827 74.6351V54.7433H68.9746C73.8439 54.7433 78.1026 56.5303 80.4449 59.1714V42.0687H31.0449Z" fill="#1E356F"/>
</g>
<defs>
<clipPath id="clip0_46_37">
<rect width="361" height="129" fill="white" transform="translate(0.644531 0.333374)"/>
</clipPath>
</defs>
</svg>
