<svg width="125" height="125" viewBox="0 0 125 125" fill="none" xmlns="http://www.w3.org/2000/svg">
<path d="M0 0H124.524V62.6323C124.524 78.6884 115.959 93.5252 102.056 101.554L62.262 124.535L22.4678 101.554C8.56459 93.5252 1.4272e-05 78.6884 1.4272e-05 62.6323L0 0Z" fill="#FFDD2D"/>
<path fill-rule="evenodd" clip-rule="evenodd" d="M34.3514 34.3547V53.9303C36.9983 50.9072 41.8106 48.8613 47.3131 48.8613H53.2924V71.6178C53.2924 77.6723 51.6659 82.9715 49.2527 85.8865H75.2623C72.8538 82.9685 71.2312 77.6762 71.2312 71.6294V48.8613H77.2109C82.7131 48.8613 87.5258 50.9072 90.1725 53.9303V34.3547H34.3514Z" fill="#333333"/>
</svg>
