<svg width="694" height="71" viewBox="0 0 694 71" fill="none" xmlns="http://www.w3.org/2000/svg">
<path fill-rule="evenodd" clip-rule="evenodd" d="M0 18.056H26V70.056H44V18.114L70.5 17.556L71.078 0.056H0V18.056ZM78 18.056H148V0.056H78V18.056ZM155 70.056H227V53.056H173V18.089L226.5 17.556L227.078 0.056H155V70.056ZM233 70.056H251V44.056H286V70.056H304V0.056H286V26.056H251V0.056H233V70.056ZM310.982 52.556L311 70.056H382V53.192L355.656 0.056H337.139L310.982 52.556ZM389 70.056H407V44.056H428.561L441.439 70.056H450.695C461.493 70.056 461.227 71.693 453.078 55.411C450.285 49.832 448 44.994 448 44.661C448 44.328 450.7 44.056 454 44.056H460V0.056H389V70.056ZM467 18.056H538V0.056H467V18.056ZM545 70.056H563L563.14 19.556L588.303 70.056H616V0.056H598L597.912 51.556L572.5 0.556L545 0V70.056ZM623 52.469V70.056H693L693.066 51.556L667.566 0.056H648.985L623 52.469ZM442 26.056H407V18.056H442V26.056ZM363 52.714C363 52.902 355.575 53.056 346.5 53.056C337.425 53.056 330 52.835 330 52.564C330 52.293 333.694 44.667 338.209 35.618L346.418 19.164L354.709 35.768C359.269 44.901 363 52.527 363 52.714ZM675 52.775C675 52.93 667.575 53.056 658.5 53.056C649.425 53.056 642 52.866 642 52.633C642 52.4 645.673 44.731 650.162 35.591L658.323 18.973L666.662 35.734C671.248 44.952 675 52.621 675 52.775ZM78 44.056H148V26.056H78V44.056ZM467 44.056H538V26.056H467V44.056ZM78 70.056H148V53.056H78V70.056ZM467 70.056H538V53.056H467V70.056Z" fill="url(#paint0_linear_457_665)"/>
<path fill-rule="evenodd" clip-rule="evenodd" d="M0 18.056H26V70.056H44V18.114L70.5 17.556L71.078 0.056H0V18.056ZM78 18.056H148V0.056H78V18.056ZM155 70.056H227V53.056H173V18.089L226.5 17.556L227.078 0.056H155V70.056ZM233 70.056H251V44.056H286V70.056H304V0.056H286V26.056H251V0.056H233V70.056ZM389 70.056H407V44.056H428.561L441.439 70.056H450.695C461.493 70.056 461.227 71.693 453.078 55.411C450.285 49.832 448 44.994 448 44.661C448 44.328 450.7 44.056 454 44.056H460V0.056H389V70.056ZM467 18.056H538V0.056H467V18.056ZM545 70.056H563L563.14 19.556L588.303 70.056H616V0.056H598L597.912 51.556L572.5 0.556L545 0V70.056ZM623 52.469V70.056H693L693.066 51.556L667.566 0.056H648.985L623 52.469ZM442 26.056H407V18.056H442V26.056ZM675 52.775C675 52.93 667.575 53.056 658.5 53.056C649.425 53.056 642 52.866 642 52.633C642 52.4 645.673 44.731 650.162 35.591L658.323 18.973L666.662 35.734C671.248 44.952 675 52.621 675 52.775ZM78 44.056H148V26.056H78V44.056ZM467 44.056H538V26.056H467V44.056ZM78 70.056H148V53.056H78V70.056ZM467 70.056H538V53.056H467V70.056Z" fill="#333333"/>
<defs>
<linearGradient id="paint0_linear_457_665" x1="311" y1="61.5" x2="382" y2="61.5" gradientUnits="userSpaceOnUse">
<stop stop-color="#FBAF3B"/>
<stop offset="1" stop-color="#ED1D24"/>
</linearGradient>
</defs>
</svg>
