<svg width="431" height="122" viewBox="0 0 431 122" fill="none" xmlns="http://www.w3.org/2000/svg">
<path d="M77.7275 96.996V65.9472C77.7275 63.5156 78.0097 61.2002 78.573 59.004C79.1364 56.8059 79.9819 54.7489 81.1067 52.8358C82.2372 50.8779 83.6013 49.1403 85.1932 47.6227C86.7898 46.1014 88.6181 44.7974 90.6761 43.7127C92.7313 42.5936 94.9561 41.7586 97.3497 41.2019C99.7375 40.6472 102.287 40.3688 104.996 40.3688C107.711 40.3688 110.253 40.6472 112.624 41.2019C114.995 41.7577 117.191 42.5955 119.211 43.7136C121.269 44.7984 123.098 46.1014 124.695 47.6227C126.287 49.1403 127.65 50.8779 128.78 52.8358C129.905 54.7489 130.752 56.8059 131.315 59.004C131.878 61.2002 132.16 63.5156 132.16 65.9472V96.996V98.4954H130.66H118.621H117.12V96.996V66.053C117.12 63.5899 116.563 61.4585 115.448 59.6627C114.884 58.7247 114.215 57.8707 113.464 57.151C112.718 56.4351 111.877 55.828 110.946 55.3323L110.894 55.3027C109.995 54.7756 109.045 54.3791 108.049 54.1141C107.054 53.85 106.001 53.7175 104.892 53.7175C103.816 53.7175 102.78 53.85 101.787 54.1141C100.785 54.38 99.8128 54.7813 98.87 55.3151C97.9673 55.8127 97.1342 56.4294 96.4088 57.1396C95.671 57.8621 95.0181 58.6962 94.4519 59.6389C93.9333 60.5263 93.5406 61.5005 93.2756 62.5614C93.0077 63.6328 92.8733 64.7976 92.8733 66.053V96.996V98.4954H91.3729H79.2279H77.7275V96.996Z" fill="white"/>
<path d="M147.087 96.4746V43.1474V42.6164V41.1161H148.587H149.116H161.261H161.791H163.291V42.6164V43.1474V96.4746V97.0055V98.5058H161.791H161.261H149.116H148.587H147.087V97.0055V96.4746Z" fill="white"/>
<path d="M203.032 99.6999C201.698 99.6999 200.394 99.6151 199.12 99.4464C197.846 99.2777 196.625 99.026 195.459 98.6934C194.277 98.355 193.142 97.9327 192.056 97.4265C190.98 96.9251 189.936 96.3313 188.926 95.6459C187.938 94.9749 187.006 94.2485 186.133 93.4688C185.253 92.6824 184.434 91.8455 183.677 90.96C182.917 90.0687 182.209 89.1203 181.559 88.1166C180.909 87.1138 180.315 86.0576 179.78 84.95C179.262 83.8195 178.799 82.6394 178.415 81.4698C178.031 80.3003 177.709 79.0964 177.452 77.862C177.195 76.6361 177.002 75.3789 176.873 74.093C176.744 72.7957 176.678 71.4898 176.678 70.1781C176.678 68.7998 176.752 67.4443 176.9 66.1146C177.048 64.7887 177.269 63.5 177.562 62.2522C177.855 61.0064 178.226 59.7872 178.673 58.5957C179.09 57.4833 179.574 56.4014 180.122 55.352L180.23 55.1403C180.838 54.0194 181.513 52.948 182.257 51.928C183 50.9091 183.803 49.9549 184.664 49.0665C185.526 48.1772 186.452 47.345 187.442 46.5739C188.441 45.7951 189.49 45.085 190.588 44.4444L191.415 43.9621C192.293 43.4855 193.209 43.0708 194.146 42.6915C195.379 42.1929 196.67 41.7764 198.018 41.4418C199.355 41.1101 200.742 40.8613 202.176 40.6954C203.615 40.5305 205.098 40.4467 206.622 40.4467C208.132 40.4467 209.594 40.5305 211.008 40.6954C212.427 40.8623 213.786 41.111 215.08 41.4418C216.372 41.7716 217.624 42.191 218.832 42.6991C220.012 43.1948 221.149 43.7772 222.238 44.452C223.332 45.1002 224.366 45.8104 225.332 46.5824C226.3 47.3536 227.204 48.1886 228.042 49.0837C228.876 49.973 229.65 50.9291 230.362 51.95C231.065 52.9575 231.71 54.0327 232.29 55.1737L232.321 55.2347C232.474 55.5235 232.621 55.8143 232.764 56.1069L232.953 56.4787C233.279 57.1707 233.565 57.8722 233.834 58.5833C234.279 59.7615 234.649 60.9654 234.942 62.1922L235.158 63.0987C235.356 64.0519 235.493 65.0203 235.603 65.9964C235.752 67.2995 235.826 68.6235 235.826 69.9675V97.0033V97.5323V98.4322H234.925H234.396H222.251H221.722H220.823V97.5323V97.0033V91.408C220.626 91.6568 220.425 91.9037 220.218 92.1486C219.82 92.6205 219.396 93.0904 218.948 93.5556C218.505 93.9988 218.005 94.4544 217.482 94.8796C216.971 95.2961 216.437 95.6879 215.885 96.053C215.337 96.4142 214.754 96.7612 214.139 97.0901C213.529 97.417 212.898 97.7201 212.249 97.9985C211.586 98.2825 210.892 98.5323 210.17 98.7458C209.456 98.9574 208.71 99.1337 207.935 99.2758C207.15 99.4197 206.354 99.5265 205.551 99.5951C204.732 99.6647 203.892 99.6999 203.032 99.6999ZM206.305 86.4913C207.049 86.4913 207.754 86.4485 208.415 86.3617C209.083 86.275 209.731 86.1434 210.355 85.9671C210.973 85.7926 211.564 85.5763 212.124 85.3199C212.646 85.0806 213.154 84.8004 213.644 84.482L213.744 84.4143C214.289 84.0454 214.803 83.646 215.284 83.218C215.768 82.7862 216.217 82.3277 216.628 81.8454C217.04 81.3621 217.425 80.8426 217.779 80.2907C218.122 79.7569 218.434 79.1955 218.715 78.6083L218.75 78.5302C219.067 77.8801 219.339 77.2262 219.565 76.5713C219.792 75.9155 219.986 75.2225 220.144 74.4981C220.301 73.7737 220.419 73.0387 220.496 72.2952C220.573 71.5555 220.612 70.7787 220.612 69.9675C220.612 68.3728 220.464 66.8791 220.171 65.4893C219.879 64.1053 219.439 62.8118 218.856 61.6107C218.564 60.9978 218.234 60.3954 217.89 59.8587C217.547 59.3221 217.167 58.8083 216.754 58.3212C216.352 57.8484 215.915 57.4023 215.447 56.9858C214.993 56.5826 214.508 56.2051 213.995 55.86L213.938 55.8267C213.421 55.4654 212.877 55.1489 212.308 54.8792C211.731 54.6027 211.136 54.3768 210.53 54.1995C209.905 54.0184 209.249 53.8812 208.566 53.7897C207.89 53.7001 207.171 53.6543 206.411 53.6543C204.85 53.6543 203.415 53.8373 202.105 54.2034C200.811 54.5656 199.625 55.1108 198.549 55.8381L198.492 55.8762C197.972 56.2165 197.454 56.5997 196.995 56.9981C196.518 57.4109 196.072 57.857 195.66 58.3326C195.247 58.8102 194.862 59.3221 194.511 59.8654C194.161 60.4068 193.84 60.9854 193.549 61.5993C193.251 62.2255 192.995 62.8642 192.779 63.5124C192.561 64.1663 192.377 64.8488 192.229 65.5589C192.081 66.2671 191.969 66.9963 191.896 67.7446C191.824 68.4776 191.787 69.2545 191.787 70.0733C191.787 70.873 191.824 71.6375 191.896 72.3629C191.969 73.1007 192.081 73.8261 192.229 74.5353C192.374 75.2263 192.558 75.9127 192.782 76.5932C193.006 77.2719 193.264 77.9277 193.555 78.5578C193.841 79.1621 194.162 79.7436 194.514 80.2993C194.865 80.8512 195.245 81.3707 195.651 81.8568C196.058 82.3439 196.496 82.8024 196.963 83.2295C197.419 83.646 197.918 84.0473 198.461 84.4248C198.979 84.7555 199.547 85.0644 200.113 85.3113C200.699 85.5686 201.32 85.786 201.974 85.9614C202.629 86.1367 203.318 86.2692 204.039 86.3588C204.761 86.4465 205.516 86.4913 206.305 86.4913Z" fill="white"/>
<path d="M277.319 40.4467C278.444 40.4467 279.545 40.4934 280.622 40.5858C281.68 40.6754 282.732 40.8155 283.776 41.0033C284.819 41.1902 285.815 41.4208 286.763 41.6925C287.734 41.9699 288.672 42.2949 289.578 42.6648L289.81 42.7591L290.193 42.9145L290.357 42.9812C290.994 43.251 291.605 43.5408 292.194 43.8467C293.036 44.2833 293.845 44.7637 294.619 45.2861C295.388 45.8056 296.13 46.3718 296.84 46.9837C297.551 47.5947 298.224 48.2467 298.857 48.9359L298.904 48.9864C299.03 49.1208 299.155 49.2562 299.279 49.3944L299.441 49.5717C299.87 50.0569 300.283 50.5659 300.681 51.0921C301.264 51.8604 301.797 52.6439 302.277 53.4427C302.76 54.2434 303.211 55.0927 303.631 55.9887C304.048 56.879 304.422 57.7903 304.75 58.7206C305.098 59.6414 305.403 60.5841 305.662 61.5459C305.924 62.5134 306.142 63.5076 306.316 64.5256C306.491 65.5475 306.622 66.5922 306.709 67.6588C306.796 68.7274 306.84 69.814 306.84 70.9178C306.84 72.3143 306.766 73.6831 306.618 75.0223C306.471 76.3568 306.25 77.6503 305.957 78.899C305.661 80.1554 305.289 81.3736 304.845 82.5508C304.396 83.7385 303.877 84.8766 303.288 85.9614L302.875 86.723C302.414 87.5218 301.909 88.2815 301.383 89.0135C300.687 89.981 299.935 90.8875 299.131 91.7292C298.323 92.5728 297.452 93.3649 296.519 94.1008C295.584 94.8386 294.6 95.5125 293.569 96.1197C292.545 96.7154 291.461 97.2454 290.351 97.6934C289.239 98.1414 288.089 98.5151 286.905 98.8106C285.722 99.107 284.494 99.3291 283.226 99.4778C281.958 99.6256 280.657 99.6999 279.325 99.6999C278.666 99.6999 278.005 99.6742 277.346 99.6218C276.708 99.5712 276.06 99.4931 275.406 99.3873C274.75 99.2815 274.117 99.1528 273.511 99.0003C272.878 98.843 272.268 98.6619 271.681 98.4598C271.101 98.2606 270.517 98.0328 269.931 97.7783C269.365 97.5314 268.806 97.2607 268.253 96.9661C267.696 96.6678 267.164 96.3561 266.659 96.0301C266.149 95.7012 265.644 95.3447 265.148 94.9625C264.665 94.5917 264.197 94.1952 263.744 93.7767C263.454 93.5079 263.175 93.2324 262.906 92.9522V120.237L262.902 120.766L262.901 121.666H262.006H261.477H249.332H248.803H247.902V120.766V120.237V70.7062C247.902 69.1782 247.98 67.6865 248.131 66.2309C248.283 64.7868 248.51 63.3932 248.814 62.0511C249.12 60.6966 249.5 59.4031 249.955 58.1735C250.413 56.9314 250.95 55.7437 251.561 54.6123L251.58 54.577C252.203 53.4627 252.903 52.3856 253.647 51.3942C254.409 50.3772 255.222 49.4373 256.085 48.5746L256.348 48.3116C257.145 47.5376 257.999 46.8141 258.896 46.144C259.885 45.4033 260.941 44.7246 262.059 44.1098C263.172 43.4979 264.326 42.9612 265.52 42.5037C266.699 42.0518 267.935 41.6706 269.227 41.3617C270.509 41.0557 271.823 40.827 273.164 40.6764C274.52 40.5229 275.906 40.4467 277.319 40.4467ZM277.319 53.6543C276.614 53.6543 275.941 53.6981 275.3 53.7839C274.657 53.8707 274.025 54.0022 273.406 54.1795C272.801 54.352 272.208 54.5713 271.631 54.8334C271.046 55.0993 270.489 55.4034 269.964 55.7437L269.926 55.7676C269.398 56.0936 268.89 56.4596 268.408 56.8628C267.929 57.2631 267.477 57.6997 267.054 58.1706C266.63 58.6405 266.236 59.1476 265.872 59.6881C265.499 60.241 265.161 60.8176 264.863 61.4144C264.552 62.0378 264.285 62.6783 264.058 63.3332C263.833 63.9833 263.638 64.6772 263.48 65.4121C263.322 66.1451 263.204 66.8944 263.127 67.656C263.051 68.4166 263.012 69.223 263.012 70.0733C263.012 70.9054 263.051 71.6985 263.127 72.4515C263.204 73.2036 263.322 73.9481 263.48 74.6821C263.634 75.3989 263.829 76.0976 264.062 76.7753C264.294 77.4521 264.566 78.1079 264.874 78.7418L264.987 78.9753C265.259 79.4967 265.555 79.9971 265.874 80.4747C266.24 81.0218 266.637 81.5356 267.059 82.0141C267.479 82.4888 267.932 82.9368 268.42 83.3543C268.905 83.7709 269.419 84.156 269.964 84.5077C270.485 84.828 271.037 85.1149 271.618 85.3647C272.196 85.6134 272.795 85.8212 273.411 85.9871C274.045 86.1577 274.691 86.2854 275.348 86.3684C276 86.4504 276.694 86.4913 277.425 86.4913C278.15 86.4913 278.838 86.4484 279.487 86.3617C280.135 86.2759 280.77 86.1444 281.391 85.9671C282.001 85.7926 282.586 85.5763 283.145 85.3179C283.707 85.0587 284.25 84.7546 284.769 84.4086L284.83 84.3676C285.351 84.0273 285.859 83.6489 286.325 83.2485C286.811 82.831 287.265 82.384 287.684 81.9083C288.107 81.4298 288.503 80.9151 288.87 80.367C289.228 79.8313 289.565 79.2489 289.877 78.6255C290.181 78.0173 290.453 77.3796 290.686 76.7143C290.913 76.0623 291.106 75.375 291.263 74.6563C291.421 73.9319 291.539 73.1931 291.615 72.4411C291.693 71.6928 291.731 70.9035 291.731 70.0733C291.731 69.223 291.693 68.4166 291.615 67.656C291.539 66.8934 291.421 66.1451 291.263 65.4121C291.104 64.6762 290.911 63.9813 290.685 63.3303C290.455 62.6678 290.186 62.0292 289.88 61.4163C289.574 60.8043 289.235 60.2276 288.872 59.6881C288.507 59.1467 288.112 58.6405 287.69 58.1706C287.268 57.6997 286.815 57.2631 286.335 56.8628C285.852 56.4596 285.346 56.0936 284.819 55.7676L284.781 55.7437C284.249 55.3996 283.691 55.0955 283.109 54.8325C282.529 54.5713 281.932 54.352 281.317 54.1795C280.691 54.0032 280.048 53.8707 279.39 53.7839C278.736 53.6981 278.045 53.6543 277.319 53.6543Z" fill="white"/>
<path d="M384.221 88.5449L384.506 88.1646L389.627 81.3244L389.998 80.8297L390.368 80.335L391.35 79.0224L392.565 80.1243L393.024 80.5399L393.485 80.9565C394.384 81.7714 395.408 82.5121 396.52 83.165C397.662 83.837 398.908 84.4195 400.213 84.8999C401.539 85.3879 402.904 85.7635 404.268 86.0123C405.607 86.2582 406.97 86.3869 408.315 86.3869C408.927 86.3869 409.497 86.3554 410.024 86.2954C410.578 86.2315 411.08 86.1419 411.523 86.0285C411.961 85.916 412.375 85.7749 412.759 85.6072C413.124 85.4489 413.451 85.2688 413.738 85.0705C413.996 84.8913 414.23 84.6892 414.433 84.4671C414.621 84.2603 414.778 84.0382 414.902 83.8046C415.023 83.574 415.116 83.3223 415.178 83.0526C415.242 82.778 415.276 82.4673 415.276 82.1346C415.276 81.8401 415.225 81.5722 415.129 81.3273C415.027 81.067 414.867 80.8144 414.656 80.5685C414.401 80.2701 414.066 79.9746 413.662 79.682C413.222 79.3636 412.712 79.0558 412.142 78.7555C411.255 78.2884 410.223 77.8404 409.098 77.3953C408.318 77.0874 407.592 76.8148 406.88 76.5526L405.457 76.0379L403.984 75.5032L403.703 75.4012L402.405 74.9303C401.527 74.5986 400.626 74.2287 399.684 73.8303C398.723 73.4233 397.79 72.9981 396.912 72.5539C395.986 72.0859 395.085 71.5807 394.227 71.0317C393.36 70.475 392.53 69.8697 391.756 69.2072C390.947 68.5161 390.21 67.7726 389.561 66.9719C388.9 66.1541 388.319 65.259 387.838 64.2906C387.357 63.3221 386.978 62.2793 386.72 61.1564C386.462 60.0326 386.324 58.8401 386.324 57.5724C386.324 56.1959 386.484 54.8758 386.785 53.6147C387.096 52.3116 387.557 51.101 388.148 49.9867C388.761 48.8334 389.519 47.7648 390.4 46.7964C391.292 45.8174 392.314 44.9376 393.447 44.1588C394.477 43.4496 395.598 42.8272 396.791 42.2925C398.003 41.7482 399.281 41.2973 400.605 40.9408C401.92 40.5862 403.318 40.3165 404.78 40.1325C406.22 39.9523 407.702 39.8551 409.206 39.8551C411.079 39.8551 413.002 39.9876 414.92 40.2717C416.716 40.5376 418.518 40.9437 420.28 41.5051C421.951 42.038 423.565 42.7052 425.08 43.5192C426.53 44.298 427.904 45.2169 429.165 46.2835L429.514 46.579L429.865 46.8736L430.834 47.6914L430.181 48.7838L429.949 49.1727L429.715 49.5616L429.003 50.7493L425.59 56.4524L425.373 56.8165L425.029 57.3903L424.686 57.9632L423.769 59.494L422.424 58.3264L421.915 57.885L421.405 57.4427C420.753 56.8765 419.963 56.3542 419.076 55.8842C418.128 55.3829 417.073 54.9453 415.966 54.585C414.809 54.2075 413.603 53.9149 412.403 53.7186C411.224 53.5251 410.03 53.424 408.873 53.424C408.248 53.424 407.673 53.4517 407.152 53.505C406.621 53.5594 406.114 53.6423 405.641 53.751C405.2 53.853 404.783 53.9797 404.4 54.1313C404.042 54.2724 403.719 54.4325 403.438 54.6089C403.17 54.7776 402.932 54.9644 402.732 55.1684C402.55 55.3543 402.397 55.5554 402.277 55.7727C402.157 55.9872 402.066 56.2217 402.005 56.4743C401.945 56.7278 401.912 57.0243 401.912 57.3655C401.912 57.6801 401.964 57.9613 402.061 58.2129C402.165 58.4798 402.328 58.741 402.546 58.9974C402.803 59.2986 403.137 59.5951 403.54 59.8877C403.98 60.208 404.49 60.5168 405.063 60.8171C405.975 61.2966 407.022 61.7465 408.153 62.1888C409.302 62.6368 410.553 63.081 411.846 63.5404L411.942 63.5757L412.024 63.6033L413.453 64.1038C413.805 64.2305 414.148 64.3649 414.484 64.4879L414.74 64.5813C415.664 64.9235 416.603 65.2867 417.544 65.6794C418.498 66.0769 419.436 66.4982 420.338 66.9481C421.251 67.4028 422.155 67.9042 423.036 68.4609C423.917 69.0175 424.751 69.618 425.518 70.2691C426.316 70.9468 427.057 71.6894 427.719 72.5044C428.392 73.3327 428.978 74.223 429.456 75.1819C429.937 76.1475 430.318 77.1932 430.579 78.3285C430.838 79.4552 430.976 80.6533 430.976 81.9268C430.976 84.552 430.374 86.9988 429.257 89.1969C428.117 91.4389 426.441 93.4168 424.323 95.042C422.265 96.6215 419.788 97.8692 416.986 98.7109C414.296 99.5183 411.303 99.9558 408.092 99.9558C405.935 99.9558 403.702 99.7709 401.469 99.3915C399.319 99.0264 397.184 98.4812 395.136 97.7491C393.187 97.0523 391.288 96.1735 389.499 95.1059C387.803 94.0936 386.217 92.9144 384.792 91.5609L384.446 91.233L384.1 90.9041L383.137 89.99L383.936 88.9243L384.221 88.5449Z" fill="white"/>
<path d="M48.5726 49.0759V44.4557V42.8562V41.3558H50.073H51.6725H60.9131H62.5136H64.0139V42.8562V44.4557V49.0759V64.2519C64.0139 66.7607 63.8328 69.1542 63.4887 71.4286C63.1322 73.7763 62.6013 75.9925 61.914 78.0696C61.2029 80.2191 60.3135 82.236 59.2697 84.1101C58.2012 86.0279 56.9753 87.7818 55.6151 89.3622C54.1652 91.0494 52.5628 92.5431 50.8337 93.8375C49.0798 95.1501 47.201 96.253 45.224 97.1385C43.2327 98.0307 41.1442 98.7056 38.988 99.1555C36.8203 99.6073 34.5917 99.8361 32.3288 99.8361C30.0659 99.8361 27.837 99.6073 25.6692 99.1555C23.5123 98.7056 21.4238 98.0317 19.4325 97.1395C17.4551 96.2539 15.5755 95.1511 13.8213 93.8385C12.0932 92.545 10.4903 91.0513 9.04025 89.3651C7.68095 87.7847 6.45529 86.0317 5.38682 84.1139C4.34275 82.2389 3.45426 80.2229 2.74305 78.0724C2.05626 75.9954 1.52502 73.7792 1.16937 71.4305C0.825356 69.1561 0.644531 66.7617 0.644531 64.2519V25.5698V20.5216V18.9211V17.4218H2.14462H3.7447H12.9853H14.5853H16.0854V18.9211V20.5216V25.5698V64.2519C16.0854 65.9067 16.1914 67.4489 16.3934 68.8788C16.5995 70.3391 16.9099 71.7088 17.3127 72.9842C17.7155 74.2587 18.206 75.4225 18.7732 76.473C19.3513 77.5425 20.0117 78.5033 20.7417 79.3526C21.4398 80.1647 22.2134 80.8815 23.0486 81.5002C23.8907 82.1226 24.8071 82.6516 25.784 83.0815C26.7817 83.52 27.8257 83.8498 28.901 84.0672C29.9811 84.2845 31.1287 84.3951 32.3288 84.3951C33.5289 84.3951 34.6756 84.2845 35.7556 84.0672C36.8299 83.8498 37.8737 83.5191 38.8717 83.0806C39.8478 82.6507 40.7648 82.1217 41.6065 81.4983C42.4425 80.8796 43.2165 80.1619 43.9142 79.3497C44.6444 78.5014 45.306 77.5396 45.8836 76.4701C46.4508 75.4197 46.9417 74.2548 47.3449 72.9814C47.7481 71.705 48.0589 70.3353 48.2648 68.8759C48.4668 67.447 48.5726 65.9057 48.5726 64.2519V49.0759Z" fill="white"/>
<path fill-rule="evenodd" clip-rule="evenodd" d="M39.6953 17.3808C48.9073 15.8852 54.3921 10.2432 56.0317 0.333374C56.7161 8.77622 61.6281 14.8024 72.4014 17.3808C62.8367 19.4941 57.2394 25.0999 56.0488 34.4308C54.9116 25.8653 50.3171 19.6352 39.6953 17.3808Z" fill="white"/>
<path d="M346.478 40.4467C347.602 40.4467 348.704 40.4934 349.781 40.5858C350.838 40.6754 351.89 40.8155 352.934 41.0033C353.977 41.1902 354.974 41.4208 355.923 41.6925C356.892 41.9699 357.83 42.2949 358.736 42.6648L358.968 42.7591L359.351 42.9145L359.515 42.9812C360.152 43.251 360.764 43.5408 361.352 43.8467C362.194 44.2833 363.003 44.7637 363.777 45.2861C364.546 45.8056 365.288 46.3718 365.999 46.9837C366.709 47.5947 367.382 48.2467 368.016 48.9359L368.062 48.9864C368.189 49.1208 368.314 49.2562 368.437 49.3944L368.6 49.5717C369.029 50.0569 369.441 50.5659 369.84 51.0921C370.423 51.8604 370.956 52.6439 371.436 53.4427C371.919 54.2434 372.37 55.0927 372.79 55.9887C373.206 56.879 373.58 57.7903 373.908 58.7206C374.257 59.6414 374.561 60.5841 374.821 61.5459C375.082 62.5134 375.301 63.5076 375.474 64.5256C375.65 65.5475 375.78 66.5922 375.868 67.6588C375.955 68.7274 375.998 69.814 375.998 70.9178C375.998 72.3143 375.925 73.6831 375.776 75.0223C375.63 76.3568 375.408 77.6503 375.115 78.899C374.819 80.1554 374.448 81.3736 374.003 82.5508C373.555 83.7385 373.035 84.8766 372.447 85.9614L372.033 86.723C371.574 87.5218 371.068 88.2815 370.541 89.0135C369.845 89.981 369.094 90.8875 368.289 91.7292C367.481 92.5728 366.61 93.3649 365.678 94.1008C364.742 94.8386 363.758 95.5125 362.729 96.1197C361.703 96.7154 360.619 97.2454 359.51 97.6934C358.397 98.1414 357.248 98.5151 356.064 98.8106C354.88 99.107 353.653 99.3291 352.384 99.4778C351.116 99.6256 349.816 99.6999 348.485 99.6999C347.824 99.6999 347.163 99.6742 346.504 99.6218C345.866 99.5712 345.219 99.4931 344.564 99.3873C343.909 99.2815 343.276 99.1528 342.67 99.0003C342.037 98.843 341.426 98.6619 340.839 98.4598C340.259 98.2606 339.675 98.0328 339.091 97.7783C338.524 97.5314 337.965 97.2607 337.412 96.9661C336.854 96.6678 336.322 96.3561 335.818 96.0301C335.307 95.7012 334.803 95.3447 334.306 94.9625C333.823 94.5917 333.355 94.1952 332.903 93.7767C332.612 93.5079 332.334 93.2324 332.065 92.9522V120.237L332.061 120.766V121.666H331.164H330.635H318.49H317.961H317.062V120.766V120.237V70.7062C317.062 69.1782 317.138 67.6865 317.29 66.2309C317.441 64.7868 317.669 63.3932 317.972 62.0511C318.278 60.6966 318.659 59.4031 319.113 58.1735C319.571 56.9314 320.108 55.7437 320.719 54.6123L320.738 54.577C321.362 53.4627 322.062 52.3856 322.806 51.3942C323.567 50.3772 324.38 49.4373 325.243 48.5746L325.506 48.3116C326.303 47.5376 327.157 46.8141 328.054 46.144C329.045 45.4033 330.099 44.7246 331.217 44.1098C332.33 43.4979 333.485 42.9612 334.679 42.5037C335.857 42.0518 337.094 41.6706 338.385 41.3617C339.667 41.0557 340.981 40.827 342.322 40.6764C343.678 40.5229 345.064 40.4467 346.478 40.4467ZM346.478 53.6543C345.774 53.6543 345.1 53.6981 344.458 53.7839C343.816 53.8707 343.183 54.0022 342.565 54.1795C341.959 54.352 341.366 54.5713 340.789 54.8334C340.204 55.0993 339.647 55.4034 339.122 55.7437L339.084 55.7676C338.556 56.0936 338.05 56.4596 337.566 56.8628C337.087 57.2631 336.635 57.6997 336.212 58.1706C335.79 58.6405 335.395 59.1476 335.03 59.6881C334.657 60.241 334.321 60.8176 334.021 61.4144C333.711 62.0378 333.444 62.6783 333.217 63.3332C332.991 63.9833 332.797 64.6772 332.638 65.4121C332.48 66.1451 332.363 66.8944 332.285 67.656C332.209 68.4166 332.17 69.223 332.17 70.0733C332.17 70.9054 332.209 71.6985 332.285 72.4515C332.362 73.2036 332.48 73.9481 332.638 74.6821C332.794 75.3989 332.988 76.0976 333.221 76.7753C333.453 77.4521 333.724 78.1079 334.032 78.7418L334.146 78.9753C334.418 79.4967 334.713 79.9971 335.033 80.4747C335.399 81.0218 335.795 81.5356 336.218 82.0141C336.637 82.4888 337.091 82.9368 337.578 83.3543C338.063 83.7709 338.579 84.156 339.122 84.5077C339.643 84.828 340.195 85.1149 340.776 85.3647C341.355 85.6134 341.953 85.8212 342.569 85.9871C343.203 86.1577 343.85 86.2854 344.506 86.3684C345.158 86.4504 345.852 86.4913 346.583 86.4913C347.308 86.4913 347.997 86.4484 348.646 86.3617C349.294 86.2759 349.929 86.1444 350.549 85.9671C351.159 85.7926 351.745 85.5763 352.303 85.3179C352.866 85.0587 353.409 84.7546 353.927 84.4086L353.988 84.3676C354.509 84.0273 355.017 83.6489 355.484 83.2485C355.97 82.831 356.423 82.384 356.843 81.9083C357.266 81.4298 357.661 80.9151 358.028 80.367C358.387 79.8313 358.723 79.2489 359.035 78.6255C359.339 78.0173 359.612 77.3796 359.844 76.7143C360.072 76.0623 360.265 75.375 360.421 74.6563C360.579 73.9319 360.697 73.1931 360.774 72.4411C360.851 71.6928 360.89 70.9035 360.89 70.0733C360.89 69.223 360.851 68.4166 360.774 67.656C360.697 66.8934 360.58 66.1451 360.421 65.4121C360.263 64.6762 360.07 63.9813 359.844 63.3303C359.614 62.6678 359.346 62.0292 359.039 61.4163C358.734 60.8043 358.393 60.2276 358.03 59.6881C357.666 59.1467 357.271 58.6405 356.849 58.1706C356.426 57.6997 355.973 57.2631 355.495 56.8628C355.011 56.4596 354.504 56.0936 353.977 55.7676L353.939 55.7437C353.407 55.3996 352.849 55.0955 352.267 54.8325C351.687 54.5713 351.09 54.352 350.475 54.1795C349.85 54.0032 349.207 53.8707 348.548 53.7839C347.895 53.6981 347.203 53.6543 346.478 53.6543Z" fill="white"/>
</svg>
