<svg width="404" height="51" viewBox="0 0 404 51" fill="none" xmlns="http://www.w3.org/2000/svg">
<g clip-path="url(#clip0_20_2651)">
<path d="M35.0927 0.740036C31.0783 10.3411 28.4917 16.3598 27.4863 18.4323C27.3211 18.7727 27.2016 19.138 27.075 19.5245L27.0745 19.5261C27.3927 19.4293 27.6426 19.2705 27.9045 19.0633C28.8332 18.3281 29.7586 17.5883 30.6835 16.8484C32.0603 15.7475 33.4836 14.6088 34.8964 13.5058C38.0912 11.01 42.0203 8.42335 46.9363 8.16042C47.7391 8.11756 49.0731 8.07023 50.3635 8.02448C50.4877 8.02001 50.6121 8.01554 50.7366 8.01107V0.740036H35.0927Z" fill="white"/>
<path d="M27.1792 24.1583C24.3907 26.0633 22.7055 28.6106 22.0269 31.9456C21.0829 36.5852 18.2464 50.0322 18.2179 50.1673L18.1753 50.3705H50.7364V21.3014C46.4492 21.3121 41.4154 21.3442 38.2123 21.4281C34.51 21.5249 30.6085 21.8156 27.1792 24.1583Z" fill="white"/>
<path d="M2.18847 46.2751C4.39557 40.9624 6.95282 35.4574 11.7679 31.6565C12.8717 30.7852 14.0646 30.0119 15.2181 29.2641C16.2962 28.5653 17.4112 27.8425 18.44 27.0472C21.4837 24.6934 23.0592 21.3087 22.9961 17.2594C22.9469 14.1089 22.7239 11.386 22.314 8.93422C21.869 6.27417 21.7839 3.56889 22.0682 0.740036H0.758301V50.0158L0.767814 49.989C1.22393 48.6815 1.63591 47.6058 2.18847 46.2751Z" fill="white"/>
<path d="M139.951 31.3265L133.861 11.2482H132.701L126.684 31.3265H139.951ZM142.777 40.7493H123.856L121.029 50.1724H110.952L126.031 0.883026H140.603L155.609 50.1724H145.605L142.777 40.7493Z" fill="white"/>
<path d="M95.1807 19.586L89.0909 39.6643H87.9312L81.9139 19.586H95.1807ZM95.1807 19.586H81.9139L76.2596 0.740036H66.1826L81.2618 50.0295H95.8332L110.84 0.740036H100.836L95.1807 19.586Z" fill="white"/>
<path d="M195.753 25.5278C195.753 13.5678 193.289 10.3061 181.979 10.3061H174.077V40.7496H181.979C193.289 40.7496 195.753 37.1977 195.753 25.5278ZM205.178 25.5278C205.178 41.7643 198.363 50.1724 181.979 50.1724H164.653V0.883026H181.979C198.363 0.883026 205.178 9.21864 205.178 25.5278Z" fill="white"/>
<path d="M239.238 31.3265L233.149 11.2482H231.988L225.971 31.3265H239.238ZM242.065 40.7493H223.144L220.317 50.1724H210.24L225.318 0.883026H239.89L254.897 50.1724H244.893L242.065 40.7493Z" fill="white"/>
<path d="M346.089 25.5278C346.089 14.0029 339.855 10.3061 331.445 10.3061C323.035 10.3061 316.801 14.0029 316.801 25.5278C316.801 36.9806 323.035 40.7496 331.445 40.7496C339.855 40.7496 346.089 36.9806 346.089 25.5278ZM307.376 25.5278C307.376 11.7557 316.366 0.883026 331.445 0.883026C346.524 0.883026 355.513 11.7557 355.513 25.5278C355.513 39.2998 346.524 50.1724 331.445 50.1724C316.366 50.1724 307.376 39.2998 307.376 25.5278Z" fill="white"/>
<path d="M394.579 25.5278C394.579 13.5678 392.114 10.3061 380.805 10.3061H372.903V40.7496H380.805C392.114 40.7496 394.579 37.1977 394.579 25.5278ZM404.004 25.5278C404.004 41.7643 397.189 50.1724 380.805 50.1724H363.478V0.883026H380.805C397.189 0.883026 404.004 9.21864 404.004 25.5278Z" fill="white"/>
<path d="M272.286 8.7798V24.1817H279.464C286.733 24.1817 290.37 21.5913 290.37 16.4108C290.37 11.3242 287.156 8.7798 280.73 8.7798H272.286ZM263.069 0.798615H283.403C288.281 0.798615 292.234 2.24604 295.26 5.13931C298.285 8.03363 299.798 11.8143 299.798 16.4807C299.798 19.3748 299.059 22.0701 297.581 24.5666C296.104 27.0639 293.581 28.896 290.017 30.062L301.065 50.2242H290.439L280.659 31.8823H272.286V50.2242H263.069V0.798615Z" fill="white"/>
</g>
<defs>
<clipPath id="clip0_20_2651">
<rect width="403.245" height="49.6302" fill="white" transform="translate(0.758301 0.740036)"/>
</clipPath>
</defs>
</svg>
