<svg width="251" height="61" viewBox="0 0 251 61" fill="none" xmlns="http://www.w3.org/2000/svg">
<path d="M167.509 59.079H199.502L167.509 3.0636V59.079Z" fill="white"/>
<path d="M79.4279 59.079H115.42L82.8272 2.05249L64.8311 33.5991L79.4279 59.079Z" fill="white"/>
<path d="M50.2344 59.079H78.1284L64.2314 34.7113L50.2344 59.079Z" fill="white"/>
<path d="M107.722 1.3446V43.3056L116.72 59.0789H136.416V1.3446H107.722Z" fill="white"/>
<path d="M1.64453 1.3446L19.2407 32.2846L36.9369 1.3446H1.64453Z" fill="white"/>
<path d="M19.9408 59.0789H48.6346V33.2956L66.8307 1.3446H38.3368L19.8408 33.599V59.0789H19.9408Z" fill="white"/>
<path d="M167.909 1.3446L183.706 29.049C189.704 27.3301 193.804 21.769 193.804 15.5001C193.804 7.7146 187.605 1.3446 179.807 1.3446H167.909Z" fill="white"/>
<path d="M137.615 59.079H137.815C153.512 59.079 166.309 46.1368 166.309 30.2624C166.309 14.388 153.512 1.4458 137.815 1.4458H137.615V59.079Z" fill="white"/>
<path d="M221.097 58.8768C236.834 58.8768 249.591 45.9751 249.591 30.0601C249.591 14.1452 236.834 1.24353 221.097 1.24353C205.361 1.24353 192.604 14.1452 192.604 30.0601C192.604 45.9751 205.361 58.8768 221.097 58.8768Z" fill="white"/>
</svg>
