<svg width="299" height="70" viewBox="0 0 299 70" fill="none" xmlns="http://www.w3.org/2000/svg">
<path d="M199.744 69.5932H238.272L199.744 2.18994V69.5932Z" fill="#333333"/>
<path d="M93.6712 69.5932H137.015L97.7648 0.973145L76.0928 38.9332L93.6712 69.5932Z" fill="#333333"/>
<path d="M58.5144 69.5931H92.106L75.3704 40.2715L58.5144 69.5931Z" fill="#333333"/>
<path d="M127.744 0.121582V50.6133L138.58 69.5932H162.299V0.121582H127.744Z" fill="#333333"/>
<path d="M0 0.121582L21.1904 37.3516L42.5012 0.121582H0Z" fill="#333333"/>
<path d="M22.0332 69.5932H56.588V38.5682L78.5008 0.121582H44.1868L21.9128 38.9333V69.5932H22.0332Z" fill="#333333"/>
<path d="M200.225 0.121582L219.248 33.4582C226.472 31.3899 231.409 24.6982 231.409 17.1549C231.409 7.78658 223.944 0.121582 214.553 0.121582H200.225Z" fill="#333333"/>
<path d="M163.744 69.5931H163.985C182.888 69.5931 198.299 54.0198 198.299 34.9181C198.299 15.8165 182.888 0.243164 163.985 0.243164H163.744V69.5931Z" fill="#333333"/>
<path d="M264.278 69.35C283.229 69.35 298.592 53.8254 298.592 34.675C298.592 15.5245 283.229 0 264.278 0C245.327 0 229.964 15.5245 229.964 34.675C229.964 53.8254 245.327 69.35 264.278 69.35Z" fill="#333333"/>
</svg>
