<svg width="276" height="85" viewBox="0 0 276 85" fill="none" xmlns="http://www.w3.org/2000/svg">
<path d="M33.648 9.86414H28.3197C18.5508 9.86414 13.4199 15.1113 13.4199 22.8764C13.4199 31.6915 16.9721 35.7839 24.2741 41.0311L30.2929 45.3336L12.9266 72.9322H0L15.5906 48.2716C6.6112 41.4504 1.57864 34.8396 1.57864 23.6111C1.57864 9.54968 10.7555 0 28.2209 0H45.5876V72.9322H33.648V9.86414Z" fill="#FC3F1D"/>
<path d="M130.644 63.0673H114.067C117.323 55.0921 118.211 40.7154 118.211 31.5858V30.0118H130.644V63.0673ZM142.386 20.1476H108.146V24.6602C108.146 37.5672 107.357 54.2526 103.213 63.0673H99.5617V84.9999H110.416V72.9319H136.762V84.9999H147.616V63.0673H142.386V20.1476Z" fill="#282828"/>
<path d="M82.8861 41.0311H67.1968V20.1485H55.4547V72.9322H67.1968V50.8953H82.8861V72.9322H94.6282V20.1485H82.8861V41.0311Z" fill="#282828"/>
<path d="M264.644 28.9625C269.183 28.9625 273.624 30.6414 275.992 32.2155V21.6167C273.525 20.1474 269.183 19.0984 263.362 19.0984C248.363 19.0984 240.568 30.5366 240.568 46.5917C240.568 64.2219 248.166 73.9812 263.855 73.9812C269.282 73.9812 273.13 72.9317 275.992 70.7282V60.5487C273.032 62.7526 269.479 64.1166 264.546 64.1166C256.158 64.1166 252.705 57.191 252.705 46.2773C252.705 34.8391 256.948 28.9625 264.644 28.9625Z" fill="#282828"/>
<path d="M238.989 20.148H227.148L210.571 44.4937V20.148H198.828V72.9322H210.571V47.012L227.937 72.9322H241.258L222.412 44.4937L238.989 20.148Z" fill="#282828"/>
<path d="M178.995 41.7649H162.616C162.912 33.37 165.773 28.9627 171.398 28.9627C177.219 28.9627 178.995 34.1046 178.995 40.7153V41.7649ZM171.595 19.0981C157.287 19.0981 150.479 30.7464 150.479 46.6967C150.479 65.0615 158.965 73.9813 173.963 73.9813C181.462 73.9813 186.988 71.8823 190.442 69.3635V59.1849C186.791 61.8081 180.673 64.1168 174.95 64.1168C166.366 64.1168 163.109 59.8147 162.616 50.9996H190.935V44.3885C190.935 26.0242 183.337 19.0981 171.595 19.0981Z" fill="#282828"/>
</svg>
