<svg width="151" height="150" viewBox="0 0 151 150" fill="none" xmlns="http://www.w3.org/2000/svg">
<path d="M126.875 74.9453L138.492 63.3623L150.075 74.9795L138.458 86.5625L126.875 74.9453Z" fill="#A2BC4D"/>
<path d="M0 74.9453L11.6172 63.3623L23.2001 74.9795L11.583 86.5625L0 74.9453Z" fill="#A2BC4D"/>
<path d="M63.5128 138.308L75.13 126.725L86.713 138.342L75.0958 149.925L63.5128 138.308Z" fill="#A2BC4D"/>
<path d="M63.5128 11.583L75.13 0L86.713 11.6172L75.0958 23.2001L63.5128 11.583Z" fill="#A2BC4D"/>
<path d="M66.0714 74.9512L75.0475 66.0015L83.9973 74.9777L75.0212 83.9274L66.0714 74.9512Z" fill="#A2BC4D"/>
<path d="M77.6603 41.2382V68.63L107.31 38.9806V11.5888L77.6603 41.2382Z" fill="#A2BC4D"/>
<path d="M108.815 72.3926H81.4229L111.072 42.7432H138.464L108.815 72.3926Z" fill="#A2BC4D"/>
<path d="M108.664 77.6603H81.2724L110.922 107.31H138.314L108.664 77.6603Z" fill="#A2BC4D"/>
<path d="M77.6603 108.664V81.2724L107.31 110.922V138.314L77.6603 108.664Z" fill="#A2BC4D"/>
<path d="M72.3926 41.2382V68.63L42.7432 38.9806V11.5888L72.3926 41.2382Z" fill="#A2BC4D"/>
<path d="M41.2382 72.3926H68.63L38.9806 42.7432H11.5888L41.2382 72.3926Z" fill="#A2BC4D"/>
<path d="M41.3887 77.6603H68.7805L39.1311 107.31H11.7393L41.3887 77.6603Z" fill="#A2BC4D"/>
<path d="M72.3926 108.664V81.2724L42.7432 110.922V138.314L72.3926 108.664Z" fill="#A2BC4D"/>
</svg>
