<svg width="103" height="60" viewBox="0 0 103 60" fill="none" xmlns="http://www.w3.org/2000/svg">
<path d="M0 50.8835C3.4853 47.5178 6.96869 44.1506 10.4502 40.7819C13.673 37.6703 16.8997 34.5611 20.1303 31.4541C22.4922 29.1737 24.8426 26.8818 27.2045 24.6025C29.5664 22.3233 31.9605 20.0371 34.3305 17.7475C37.3891 14.7924 40.4439 11.8339 43.4949 8.87196C45.9639 6.48278 48.4109 4.05696 51.2436 2.0925C52.908 0.943129 54.7197 0.134906 56.8744 0.788582C58.5687 1.30259 59.5506 2.46112 59.9707 4.07414C60.2229 5.08519 60.3486 6.12337 60.3448 7.16507C60.3724 16.1986 60.3597 25.2322 60.3597 34.2657V35.2961C60.7223 34.9595 60.9721 34.7237 61.2253 34.4947C63.7299 32.2051 66.2035 29.8892 68.7564 27.6603C69.8706 26.6872 71.1253 25.8286 72.5997 25.4623C75.4278 24.7537 78.0705 25.9007 78.7001 29.0031C79.0455 30.6757 78.9304 32.4375 79.0282 34.1638C79.0455 34.4775 79.057 34.7912 79.0788 35.2857C80.0468 34.3401 80.8882 33.5056 81.7423 32.6859C83.9292 30.5841 86.1162 28.4754 88.6369 26.7673C89.9192 25.8984 91.2705 25.2047 92.9222 25.2677C94.9607 25.3444 96.6561 26.4663 97.2063 28.4261C97.515 29.5012 97.6799 30.6121 97.6967 31.73C97.7438 37.7139 97.7174 43.6977 97.7277 49.6826C97.7306 50.0415 97.7813 50.3983 97.8785 50.7439C98.1456 51.7147 98.9144 51.9928 99.7881 51.4548C99.9181 51.3747 100.047 51.2911 100.173 51.2041C100.891 50.7027 100.892 50.7004 101.472 51.3701C101.921 51.8887 102.353 52.4244 102.82 52.9258C103.057 53.1788 103.068 53.3483 102.804 53.5818C101.402 54.8136 100.041 56.0935 98.606 57.2852C97.2581 58.406 95.8147 59.3905 94.0721 59.8553C91.6906 60.4906 88.9535 58.9681 88.3941 56.5812C88.1273 55.4937 87.9813 54.3804 87.959 53.2613C87.9187 47.4869 87.9463 41.7126 87.9383 35.9371C87.9568 35.4255 87.9104 34.9135 87.8001 34.4134C87.5699 33.5193 86.8264 33.2057 86.0299 33.6888C85.4338 34.0655 84.881 34.5063 84.3816 35.003C82.7046 36.6171 81.0528 38.2565 79.4057 39.9015C79.2308 40.0756 79.0443 40.3457 79.0443 40.5724C79.0339 43.7538 79.0547 46.9351 79.0696 50.1165C79.0717 50.2121 79.0813 50.3075 79.0984 50.4016C79.2964 51.6551 80.0779 52.0215 81.1887 51.3907C81.534 51.1915 81.9322 50.8297 82.2488 50.8812C82.5653 50.9328 82.7978 51.4147 83.0648 51.7112C83.4343 52.1233 83.7957 52.5423 84.1687 52.951C84.3689 53.1708 84.4058 53.3609 84.1606 53.5818C81.8827 55.6424 79.6912 57.8004 76.9425 59.2714C74.728 60.4563 72.2233 60.1277 70.6637 58.3762C70.021 57.6593 69.6229 56.7584 69.5265 55.8027C69.3826 54.3866 69.3515 52.9579 69.2871 51.5349C69.2641 51.0461 69.2871 50.5561 69.2871 49.8681C68.6575 50.484 68.1694 50.9957 67.6446 51.4708C65.2988 53.5795 62.961 55.718 60.5727 57.7912C59.5395 58.6733 58.3386 59.3398 57.0413 59.7511C54.8037 60.4826 51.9411 59.3825 51.0974 56.7804C50.69 55.5211 50.6497 54.2446 50.6531 52.951C50.6531 52.2081 50.6635 51.4628 50.6531 50.7221C50.6531 50.4932 50.6082 50.2757 50.5714 49.9208C49.9372 50.5355 49.402 51.085 48.8334 51.599C46.5704 53.6402 44.3444 55.7203 42.0066 57.6802C41.0732 58.4632 39.9452 59.0608 38.8298 59.5771C36.3586 60.7219 32.9769 59.4489 32.2805 56.2766C32.0742 55.369 31.9635 54.4424 31.9501 53.512C31.9191 47.6804 31.9352 41.8488 31.9237 36.0161C31.9237 35.4701 31.9179 34.9011 31.7729 34.3814C31.5116 33.4484 30.7853 33.2205 29.9393 33.7208C29.7609 33.8273 29.5295 33.8868 29.4064 34.0368C28.9828 34.5519 28.7008 34.3001 28.3705 33.9223C27.8732 33.3499 27.3506 32.7901 26.8246 32.2395C26.6151 32.0197 26.5737 31.8376 26.8131 31.6155C28.977 29.6076 31.126 27.5836 33.7054 26.0873C35.0867 25.286 36.5646 25.0215 38.1116 25.4302C39.9405 25.9133 40.9569 27.2115 41.3586 28.9791C41.5657 29.8849 41.6741 30.8103 41.682 31.7392C41.712 37.5708 41.6959 43.4023 41.7085 49.2339C41.6933 49.7645 41.7479 50.2948 41.8708 50.8114C42.1125 51.6929 42.8975 51.9757 43.671 51.4674C44.2299 51.1006 44.7536 50.6833 45.2353 50.2207C46.9518 48.563 48.6519 46.8886 50.3354 45.1974C50.5047 45.0279 50.5806 44.7463 50.6428 44.5025C50.6934 44.3044 50.66 44.0858 50.66 43.8751C50.66 33.1263 50.657 22.3775 50.6508 11.6286C50.6605 10.9647 50.5831 10.3024 50.4206 9.65843C50.1904 8.79526 49.463 8.50105 48.7309 9.00475C47.8896 9.59326 47.0971 10.2479 46.361 10.9623C43.102 14.067 39.8577 17.1866 36.6279 20.321C32.6208 24.1919 28.6221 28.0678 24.6319 31.9487C20.6931 35.7551 0 55.7317 0 55.7317V50.8835ZM69.2917 39.8935C69.2917 38.4271 69.317 36.9594 69.2767 35.4941C69.264 35.0144 69.1156 34.5279 68.9625 34.0677C68.8094 33.6075 68.4157 33.3739 67.9715 33.5399C67.4339 33.7403 66.8584 33.9807 66.451 34.3642C64.4769 36.2188 62.5478 38.1214 60.6245 40.0275C60.461 40.1889 60.3747 40.4991 60.3735 40.7407C60.3563 43.7114 60.3505 46.6833 60.3735 49.654C60.3906 50.1253 60.4895 50.5901 60.6659 51.0278C60.8961 51.6242 61.3715 51.8669 61.9447 51.5922C62.5775 51.2956 63.1599 50.9028 63.6712 50.4279C65.4507 48.7302 67.1876 46.9935 68.9164 45.2409C69.1278 45.0116 69.253 44.7168 69.271 44.4063C69.3089 42.8986 69.2917 41.3932 69.2917 39.889V39.8935Z" fill="#282828"/>
<path d="M87.09 0.00308712C87.8957 0.00308712 88.5242 -0.00492643 89.1526 0.00995587C89.2822 0.0137996 89.4055 0.066131 89.4979 0.156489C91.1094 2.01792 92.4584 4.02932 92.9234 6.4952C93.3838 8.92903 93.0615 11.2862 91.8875 13.4681C91.2555 14.6564 90.436 15.736 89.6648 16.8315C89.529 17.0227 89.1964 17.1475 88.942 17.175C88.401 17.2265 87.852 17.191 87.1257 17.191C88.7187 14.4011 89.9514 11.696 89.9111 8.5833C89.8709 5.47061 88.668 2.76662 87.09 0.00308712Z" fill="#282828"/>
<path d="M71.6389 0.00345514C72.4032 0.00345514 73.0455 -0.00913757 73.6866 0.0137583C73.8316 0.0398554 73.9622 0.117582 74.0538 0.232414C75.8632 2.25526 77.2548 4.5105 77.5713 7.2477C77.8561 9.606 77.346 11.9916 76.121 14.0306C75.5904 14.9281 74.9401 15.7478 74.36 16.6224C74.2492 16.8106 74.085 16.962 73.888 17.0578C73.691 17.1535 73.47 17.1892 73.2527 17.1605C72.7842 17.1261 72.31 17.1524 71.6896 17.1524C73.2757 14.4358 74.4946 11.6975 74.4601 8.5894C74.4256 5.48129 73.2158 2.73607 71.6389 0.00345514Z" fill="#282828"/>
<path d="M79.3345 17.1756C83.1674 11.3921 83.0178 5.74601 79.3173 0.0163202C80.1748 0.0163202 80.8677 0.0163202 81.5606 0.0163202C81.6205 0.0163202 81.6895 0.0850077 81.7367 0.137668C83.789 2.47991 85.3049 5.07516 85.3763 8.27943C85.4258 10.5953 84.7202 12.7304 83.4897 14.6834C83.0569 15.3703 82.5091 15.9862 82.0544 16.6627C81.7828 17.0669 81.4248 17.1768 80.9805 17.171C80.5074 17.1756 80.0332 17.1756 79.3345 17.1756Z" fill="#282828"/>
</svg>
