<svg width="80" height="85" viewBox="0 0 80 85" fill="none" xmlns="http://www.w3.org/2000/svg">
<path fill-rule="evenodd" clip-rule="evenodd" d="M59.6295 43.3306H54.4544C54.1715 43.9124 53.5723 44.3139 52.8787 44.3139C51.913 44.3139 51.1297 43.5351 51.1297 42.5742C51.1297 41.6132 51.913 40.8344 52.8787 40.8344C53.5723 40.8344 54.1715 41.2359 54.4544 41.8178H60.7309C61.6794 41.8178 62.1545 42.9584 61.4838 43.6256L59.4366 45.6618V59.1374H57.9157V45.4736C57.9157 45.1929 58.028 44.9236 58.2275 44.7251L59.6295 43.3306ZM53.1069 51.9579V63.9806H54.6278V50.8623C54.6278 49.9186 53.481 49.4463 52.8103 50.1135L51.3882 51.528L43.9829 44.162L49.4686 38.7056C50.1393 38.0384 49.6641 36.8978 48.7157 36.8978H44.3993C44.1171 36.8978 43.8463 37.0094 43.6465 37.2079L39.2599 41.5712V30.5457C39.2599 30.265 39.1479 29.9957 38.9481 29.7969L35.6206 26.4871L39.2404 22.8863C39.408 22.9396 39.5866 22.968 39.7718 22.968C40.7379 22.968 41.5209 22.1892 41.5209 21.2283C41.5209 20.2676 40.7379 19.4885 39.7718 19.4885C38.8057 19.4885 38.0228 20.2676 38.0228 21.2283C38.0228 21.4458 38.0629 21.6537 38.1359 21.8455L26.7303 33.1905V21.1678H25.2094V34.2863C25.2094 35.2297 26.3561 35.702 27.0269 35.0349L34.545 27.5567L37.739 30.7336V52.0792L35.3055 49.6587V34.2174C35.8908 33.936 36.2941 33.3399 36.2941 32.6501C36.2941 31.6894 35.5111 30.9103 34.545 30.9103C33.5793 30.9103 32.796 31.6894 32.796 32.6501C32.796 33.3399 33.1996 33.936 33.7846 34.2174V49.8466C33.7846 50.1274 33.8968 50.397 34.0964 50.5955L37.4424 53.9237C38.1131 54.5908 39.2599 54.1182 39.2599 53.1748V43.7106L44.5886 38.4106H47.6143L42.5849 43.4132C42.1691 43.8268 42.1691 44.4973 42.5849 44.9109L49.2873 51.5776H45.6587L43.1312 49.0636C43.2206 48.8548 43.2699 48.6249 43.2699 48.3834C43.2699 47.4228 42.4869 46.6437 41.5209 46.6437C40.5548 46.6437 39.7718 47.4228 39.7718 48.3834C39.7718 49.3443 40.5548 50.1231 41.5209 50.1231C41.6812 50.1231 41.8363 50.102 41.9835 50.0617L44.7169 52.7803C44.9165 52.979 45.1872 53.0904 45.4698 53.0904H49.8174L40.4009 62.4569C40.2056 62.3821 39.9936 62.341 39.7718 62.341C38.8057 62.341 38.0228 63.1198 38.0228 64.0807C38.0228 65.0417 38.8057 65.8205 39.7718 65.8205C40.7379 65.8205 41.5209 65.0417 41.5209 64.0807C41.5209 63.8998 41.4932 63.7252 41.4415 63.5612L53.1069 51.9579ZM26.9584 40.8344C27.9245 40.8344 28.7075 41.6132 28.7075 42.5742C28.7075 43.5351 27.9245 44.3139 26.9584 44.3139C26.2652 44.3139 25.666 43.9124 25.3831 43.3306H19.1066C18.1578 43.3306 17.683 42.1899 18.3537 41.5228L20.4006 39.4865V26.0109H21.9215V39.6747C21.9215 39.9555 21.8095 40.2248 21.6097 40.4236L20.208 41.8178H25.3831C25.666 41.2359 26.2652 40.8344 26.9584 40.8344Z" fill="#282828"/>
<path fill-rule="evenodd" clip-rule="evenodd" d="M17.0348 51.2742H23.0062C23.2885 51.2742 23.5596 51.3859 23.7591 51.5844L30.6351 58.4238C30.835 58.6226 30.9469 58.8919 30.9469 59.1727V65.1928L29.426 63.8313V59.3609L22.8173 52.7871H18.5557L17.0348 51.2742Z" fill="#282828"/>
<path fill-rule="evenodd" clip-rule="evenodd" d="M62.51 33.1223H56.7317C56.4494 33.1223 56.1787 33.0106 55.9789 32.8122L49.1028 25.9727C48.9033 25.7739 48.791 25.5046 48.791 25.2239V19.5072L50.3119 20.8685V25.0357L56.9206 31.6095H61.1411L62.51 33.1223Z" fill="#282828"/>
<path fill-rule="evenodd" clip-rule="evenodd" d="M32.5168 65.6692C34.7252 67.7714 35.9723 69.9526 36.5506 72.8043C37.1218 75.6208 37.0354 79.0725 36.6437 83.7011L36.5335 85L7.79313 56.4041L7.78072 56.3926C7.76514 56.3786 7.7426 56.3581 7.71355 56.3311C7.65542 56.2773 7.57116 56.1986 7.46452 56.0967C7.25132 55.8927 6.94835 55.5956 6.58552 55.2192C5.86053 54.4667 4.89311 53.3939 3.92438 52.1125C2.007 49.5758 0 46.1123 0 42.6528C0 39.0478 2.00113 35.5111 3.92179 32.932C4.89086 31.6307 5.85871 30.5478 6.58418 29.7902C6.94723 29.4111 7.25043 29.1125 7.46388 28.9076C7.57062 28.8054 7.65497 28.7264 7.71322 28.6726C7.74236 28.6456 7.76493 28.625 7.78056 28.6108L7.79866 28.5942L7.80368 28.5897L7.80517 28.5884C7.80517 28.5884 7.80596 28.5878 8.21293 29.0374C8.21293 29.0374 7.28326 29.8698 6.07401 31.2434C3.82479 33.798 0.608365 38.2254 0.608365 42.6528C0.608365 49.158 8.21293 55.9656 8.21293 55.9656L36.0374 83.6503C36.0599 83.3825 36.0815 83.1187 36.1022 82.8591C36.7903 74.1501 36.2242 70.0334 32.0913 66.1015L15.057 49.158C6.47127 40.884 5.11209 35.3208 6.59942 31.5654C6.97737 30.6108 7.53919 29.7733 8.21293 29.0374L7.80596 28.5878L8.66269 29.445C7.12076 31.1288 6.21272 33.3641 6.94224 36.4288C7.68374 39.5431 10.13 43.5675 15.4805 48.7235L32.5168 65.6692Z" fill="#282828"/>
<path d="M15.4771 36.2841L15.4722 36.289L15.4662 36.2947L15.45 36.3104C15.4297 36.3307 15.3986 36.3619 15.3582 36.4033C15.2773 36.4868 15.1599 36.6121 15.0175 36.7749C14.7328 37.101 14.3519 37.5745 13.9714 38.16C13.2043 39.3409 12.4718 40.9267 12.4718 42.6537C12.4718 45.2243 14.0967 47.3032 14.9752 48.2321C15.1407 48.3951 15.3092 48.5591 15.4808 48.7243L14.6616 49.6184L14.6595 49.6169L14.6564 49.6142L14.6467 49.6057C14.6388 49.5987 14.6275 49.5888 14.6135 49.5764C14.5856 49.5515 14.5463 49.5155 14.497 49.4695C14.4 49.3785 14.2649 49.2466 14.1043 49.0774C8.96009 44.0116 6.46802 39.9028 5.71982 36.5401C4.96061 33.1278 6.01049 30.5451 7.7635 28.6308L7.77305 28.6205L36.5421 0.00456542L36.6522 1.3029C37.0449 5.93158 37.1313 9.38326 36.5588 12.2002C35.9793 15.052 34.7297 17.2332 32.5168 19.3354L15.4823 36.2793L15.4771 36.2841Z" fill="#282828"/>
<path fill-rule="evenodd" clip-rule="evenodd" d="M32.0916 66.1006L15.0573 49.157C7.02945 41.4207 5.31955 36.0542 6.34705 32.3196C6.69771 31.0449 7.36722 29.9605 8.21324 29.0365C8.21324 29.0365 6.98927 30.1321 5.52338 31.8839C3.33546 34.499 0.608674 38.5754 0.608674 42.6519C0.608674 49.157 8.21324 55.9647 8.21324 55.9647L36.0377 83.6493C36.0721 83.2436 36.104 82.8475 36.1332 82.4605C36.7723 74.0226 36.1612 69.9722 32.0916 66.1006ZM35.2794 81.6112C35.5261 77.9995 35.5069 75.3058 35.0601 73.1022C34.5469 70.5725 33.4637 68.6618 31.4607 66.7566L31.4534 66.7496L14.417 49.8039C8.98653 44.5695 6.30178 40.3013 5.46258 36.7761C5.20667 35.7014 5.12426 34.7035 5.18358 33.7789C5.17047 33.7964 5.15736 33.814 5.14425 33.8315C3.27237 36.3452 1.52122 39.55 1.52122 42.6519C1.52122 45.594 3.26358 48.7195 5.14032 51.2023C6.06367 52.4238 6.98899 53.4501 7.68384 54.1714C8.03076 54.5312 8.31891 54.8137 8.51894 55.0053C8.61893 55.1009 8.69677 55.1735 8.74881 55.2216C8.77482 55.2455 8.79438 55.2634 8.80703 55.2749L8.82072 55.2873L8.82358 55.29L8.84159 55.306L35.2794 81.6112Z" fill="#282828"/>
<path fill-rule="evenodd" clip-rule="evenodd" d="M47.4832 19.3311C45.2748 17.2286 44.0277 15.0477 43.4494 12.1958C42.8782 9.37912 42.9646 5.92759 43.3563 1.29891L43.4665 0L72.2068 28.5962L72.2193 28.6074C72.2348 28.6216 72.2573 28.6422 72.2865 28.6688C72.3446 28.7227 72.4289 28.8013 72.5354 28.9033C72.7486 29.1072 73.0516 29.4044 73.4145 29.781C74.1396 30.5332 75.1069 31.6061 76.0757 32.8878C77.993 35.4242 80 38.8876 80 42.3471C80 45.9522 77.9988 49.4889 76.0782 52.0679C75.109 53.3692 74.1414 54.4521 73.416 55.2097C73.0528 55.5889 72.7495 55.8875 72.536 56.0923C72.4295 56.1946 72.3449 56.2736 72.2868 56.3274C72.2576 56.3543 72.2351 56.3752 72.2193 56.3894L72.2014 56.4058L72.1962 56.4103L72.195 56.4115L72.1944 56.4121C72.1944 56.4121 72.1941 56.4124 71.7871 55.9625C71.7871 55.9625 72.7167 55.1302 73.9261 53.7568C76.1752 51.202 79.3916 46.7746 79.3916 42.3471C79.3916 35.842 71.7871 29.0343 71.7871 29.0343L43.9626 1.34971C43.9401 1.61766 43.9185 1.8814 43.8978 2.14109C43.2097 10.85 43.7758 14.9666 47.9087 18.8984L64.943 35.842C73.5288 44.1159 74.8879 49.6792 73.4005 53.4346C73.0227 54.3892 72.4608 55.2267 71.7871 55.9625L72.1944 56.4121L71.3372 55.555C72.8791 53.8712 73.7874 51.6359 73.0576 48.5715C72.3164 45.4569 69.8701 41.4325 64.5195 36.2765L47.4832 19.3311Z" fill="#282828"/>
<path d="M64.5232 48.7167L64.528 48.7119L64.5341 48.7061L64.5503 48.6904C64.5706 48.6701 64.6017 48.6393 64.6421 48.5975C64.723 48.514 64.8404 48.3887 64.9828 48.226C65.2675 47.9001 65.6484 47.4266 66.0289 46.8408C66.796 45.6599 67.5285 44.0742 67.5285 42.3472C67.5285 39.7766 65.9036 37.698 65.0251 36.7688C64.8596 36.6057 64.6911 36.4417 64.5195 36.2765L65.3387 35.3824L65.3408 35.3842L65.3439 35.3867L65.3536 35.3951C65.3615 35.4024 65.3728 35.4121 65.3868 35.4245C65.4147 35.4496 65.454 35.4853 65.5033 35.5316C65.6003 35.6227 65.7354 35.7543 65.896 35.9234C71.0403 40.9895 73.5322 45.0981 74.2804 48.4608C75.0397 51.8731 73.99 54.4558 72.2366 56.3701L72.2272 56.3804L43.4582 84.9963L43.3481 83.698C42.9554 79.0694 42.869 75.6177 43.4415 72.8008C44.021 69.9489 45.2706 67.768 47.4835 65.6655L64.518 48.7216L64.5232 48.7167Z" fill="#282828"/>
<path fill-rule="evenodd" clip-rule="evenodd" d="M47.9087 18.8984L64.943 35.842C72.971 43.5783 74.681 48.9453 73.6535 52.6801C73.3027 53.9545 72.633 55.0388 71.7871 55.9625C71.7871 55.9625 73.0113 54.8674 74.4772 53.1155C76.6652 50.5008 79.3916 46.4236 79.3916 42.3471C79.3916 35.842 71.7871 29.0343 71.7871 29.0343L43.9626 1.34971C43.9282 1.75545 43.8965 2.15203 43.8673 2.53895C43.2282 10.9767 43.8391 15.0271 47.9087 18.8984ZM44.7211 3.38834C44.4745 6.99981 44.4936 9.69357 44.9405 11.8972C45.4536 14.4269 46.5368 16.3376 48.5399 18.2429L48.5472 18.2498L65.5835 35.1955C71.0141 40.4299 73.6988 44.6982 74.538 48.2234C74.7939 49.2981 74.8763 50.2959 74.817 51.2206C74.83 51.203 74.8431 51.1855 74.8562 51.1679C76.7281 48.6542 78.4793 45.4494 78.4793 42.3476C78.4793 39.4054 76.737 36.2802 74.8602 33.7974C73.937 32.5756 73.0117 31.5493 72.3166 30.8283C71.9698 30.4683 71.6818 30.1857 71.4816 29.9945C71.3815 29.8989 71.3037 29.8259 71.2516 29.7778C71.2258 29.7539 71.206 29.7361 71.1936 29.7246L71.1799 29.7122L71.1771 29.7095L71.1589 29.6934L44.7211 3.38834Z" fill="#282828"/>
</svg>
