<svg width="60" height="60" viewBox="0 0 60 60" fill="none" xmlns="http://www.w3.org/2000/svg">
<path d="M4.2 4.2C7.94729e-07 8.44 0 15.22 0 28.8V31.2C0 44.76 7.94729e-07 51.54 4.2 55.8C8.44 60 15.22 60 28.8 60H31.2C44.76 60 51.54 60 55.8 55.8C60 51.56 60 44.78 60 31.2V28.8C60 15.24 60 8.46 55.8 4.2C51.56 7.94729e-07 44.78 0 31.2 0H28.8C15.24 0 8.46 7.94729e-07 4.2 4.2ZM10.12 18.26H17C17.22 29.7 22.26 34.54 26.26 35.54V18.26H32.72V28.12C36.66 27.7 40.82 23.2 42.22 18.24H48.66C48.1345 20.8074 47.0854 23.2389 45.5782 25.3827C44.071 27.5265 42.138 29.3366 39.9 30.7C42.3981 31.9429 44.6042 33.7014 46.3728 35.8596C48.1414 38.0177 49.4322 40.5264 50.16 43.22H43.06C41.54 38.48 37.74 34.8 32.72 34.3V43.22H31.92C18.24 43.22 10.44 33.86 10.12 18.26Z" fill="#282828"/>
</svg>
